<svg width="60" height="60" viewBox="0 0 60 60" fill="none" xmlns="http://www.w3.org/2000/svg">
<path opacity="0.3" d="M60 30C60 46.5649 46.5649 60 30 60C13.4351 60 0 46.5649 0 30C0 13.4351 13.4351 0 30 0C46.5649 0 60 13.4351 60 30Z" fill="url(#paint0_linear_144_1419)"/>
<path d="M17.3284 10.626C18.1376 11.8779 21.4353 10.4427 22.6872 9.80153C24.0155 9.1145 26.9926 7.37405 26.2903 5.80153C25.5269 4.07634 21.8933 5.45038 20.5803 6.1374C19.2368 6.85496 16.4582 9.26718 17.3284 10.626Z" fill="#8D58D1"/>
<path d="M15.191 14.9008C15.9544 17.0382 19.1299 16.5344 20.8704 15.9848C22.9773 15.313 25.7711 13.5878 25.3437 11.1451C24.8856 8.50385 21.1299 8.71758 19.1452 9.41987C17.0536 10.1527 14.3513 12.5344 15.191 14.9008Z" fill="url(#paint1_linear_144_1419)"/>
<path d="M43.6277 42.3262C44.4369 43.5781 47.7346 42.1429 48.9865 41.5017C50.3148 40.8147 53.2919 39.0742 52.5896 37.5017C51.8262 35.7765 48.1926 37.1506 46.8796 37.8376C45.5361 38.5552 42.7575 40.9674 43.6277 42.3262Z" fill="#8D58D1"/>
<path d="M41.4903 46.601C42.2537 48.7384 45.4293 48.2346 47.1697 47.685C49.2766 47.0132 52.0705 45.288 51.643 42.8453C51.185 40.204 47.4292 40.4178 45.4445 41.1201C43.3529 41.8529 40.6506 44.2346 41.4903 46.601Z" fill="url(#paint2_linear_144_1419)"/>
<g opacity="0.24">
<path d="M19.0382 5.99995C20.7329 5.34346 21.8474 5.17554 21.8474 5.17554C22.5802 7.0076 23.2061 8.83964 23.771 10.7328C23.771 10.7328 23.9848 11.1908 23.8321 11.2366C22.7939 11.5877 21.8168 11.9847 20.9008 12.4274C20.3817 10.1984 19.9237 8.13735 19.0382 5.99995Z" fill="#22CDC6"/>
<path d="M20.2749 12.7482C18.7787 13.5268 17.481 14.4276 16.3817 15.3589C15.9085 12.9925 15.3436 10.6566 14.5802 8.38179C16.0764 7.41996 17.313 6.71767 18.4428 6.24438C19.313 8.39706 19.771 10.4887 20.2749 12.7482Z" fill="#F77B64"/>
<path d="M6.76343 18.0305C7.60312 16.2137 8.50389 14.5649 9.63366 12.8855C10.7329 15.5115 11.5268 18.0916 12.0917 20.8702C11.0382 23.6183 11.1451 26.2443 11.2214 29.1298C9.17563 25.5878 7.60311 22.1832 6.79395 18.2595C6.77869 18.1985 6.77869 18.1221 6.76343 18.0305Z" fill="#22CDC6"/>
<path d="M10.1987 12.1831C11.2674 10.9159 12.5193 9.78616 13.8934 8.8396C14.7178 11.1449 15.3132 13.5113 15.7712 15.9083C14.5041 17.1144 13.4201 18.4885 12.5651 19.9846C12.0155 17.2823 11.2522 14.748 10.1987 12.1831Z" fill="#F77B64"/>
</g>
<g opacity="0.24">
<path d="M47.1954 53.044C45.7284 54.1167 44.6954 54.5674 44.6954 54.5674C43.5133 52.9874 42.4346 51.3798 41.3989 49.6974C41.3989 49.6974 41.0739 49.3103 41.2095 49.2265C42.1215 48.6187 42.9625 47.9823 43.7328 47.3176C44.8111 49.3363 45.7869 51.2086 47.1954 53.044Z" fill="#22CDC6"/>
<path d="M44.2542 46.8457C45.4979 45.7064 46.5182 44.5005 47.339 43.3164C48.4086 45.4797 49.5588 47.5898 50.8849 49.5895C49.6886 50.9058 48.6759 51.9042 47.7071 52.6538C46.3094 50.7997 45.3256 48.8979 44.2542 46.8457Z" fill="#F77B64"/>
<path d="M55.9381 38.2463C55.5973 40.2186 55.154 42.0444 54.4973 43.9589C52.7559 41.707 51.3213 39.4202 50.0565 36.8825C50.3628 33.9554 49.5799 31.4465 48.7593 28.6791C51.6522 31.5709 54.0523 34.4525 55.8494 38.033C55.8799 38.0881 55.8997 38.1618 55.9381 38.2463Z" fill="#22CDC6"/>
<path d="M54.1335 44.7836C53.4292 46.2842 52.5124 47.6995 51.4301 48.9694C50.0371 46.956 48.8495 44.8244 47.7867 42.6276C48.6986 41.1346 49.39 39.5269 49.8286 37.8604C51.0589 40.3283 52.4522 42.5788 54.1335 44.7836Z" fill="#F77B64"/>
</g>
<defs>
<linearGradient id="paint0_linear_144_1419" x1="30" y1="9.66667" x2="38" y2="53.3333" gradientUnits="userSpaceOnUse">
<stop stop-color="#ED7660"/>
<stop offset="1" stop-color="#9E5D51"/>
</linearGradient>
<linearGradient id="paint1_linear_144_1419" x1="17.7505" y1="14.496" x2="21.0093" y2="9.9985" gradientUnits="userSpaceOnUse">
<stop stop-color="#1DD3C6"/>
<stop offset="0.3611" stop-color="#835ED2"/>
<stop offset="0.6869" stop-color="#F51BC9"/>
<stop offset="1" stop-color="#ED7660"/>
</linearGradient>
<linearGradient id="paint2_linear_144_1419" x1="44.0498" y1="46.1962" x2="47.3086" y2="41.6987" gradientUnits="userSpaceOnUse">
<stop stop-color="#1DD3C6"/>
<stop offset="0.3611" stop-color="#835ED2"/>
<stop offset="0.6869" stop-color="#F51BC9"/>
<stop offset="1" stop-color="#ED7660"/>
</linearGradient>
</defs>
</svg>
