<svg width="706" height="636" viewBox="0 0 706 636" fill="none" xmlns="http://www.w3.org/2000/svg">
<g clip-path="url(#clip0_144_91)">
<path opacity="0.15" d="M51.7504 554.25C35.3354 538.895 21.5468 519.136 12.7519 492.916C-18.6267 399.404 13.1838 300.59 51.474 223.244C91.4229 142.548 153.126 84.8933 219.702 54.5286C372.033 -14.9578 554.498 19.2931 655.2 208.563C716.817 324.339 720.722 461.861 675.831 542.453C644.781 598.191 611.052 608.641 565.557 610.748C536.114 612.112 506.687 613.477 477.244 614.841C415.818 617.691 354.339 620.541 292.878 618.883C242.665 617.536 190.673 619.315 141.687 602.578C111.553 592.301 78.239 579.036 51.7504 554.25Z" fill="#8D58D1"/>
<path opacity="0.3" d="M365.916 631.647C535.102 631.647 672.254 621.332 672.254 608.606C672.254 595.881 535.102 585.565 365.916 585.565C196.73 585.565 59.5778 595.881 59.5778 608.606C59.5778 621.332 196.73 631.647 365.916 631.647Z" fill="url(#paint0_linear_144_91)"/>
<path d="M36.3549 0L126.257 93.2531L101.324 115.845L36.3549 0Z" fill="#BF9AED"/>
<path d="M141.169 87.2941L123.147 96.2584L36.3549 0L141.169 87.2941Z" fill="#BF9AED"/>
<path d="M79.5868 79.418L108.46 102.269L101.168 115.638L79.5868 79.418Z" fill="#BF9AED"/>
<path d="M36.3549 0L108.201 101.734L60.4935 104.48L36.3549 0Z" fill="#BF9AED"/>
<path d="M39.1713 5.94165L62.1696 102.839L103.587 97.2602L39.1713 5.94165Z" fill="#8D58D1"/>
<path d="M40.3463 5.66528C40.9511 6.49435 119.95 96.0339 119.95 96.0339L111.19 103.565L40.3463 5.66528Z" fill="#8D58D1"/>
<path d="M41.7113 5.44067L138.456 86.655L123.13 93.3048L41.7113 5.44067Z" fill="#8D58D1"/>
<path d="M95.8808 103.893L106.335 102.304L101.099 113.358L95.8808 103.893Z" fill="#8D58D1"/>
<path d="M103.846 107.883C101.531 104.791 100.045 103.167 100.028 103.15L101.116 102.148C101.185 102.217 102.654 103.841 105.021 106.984L103.846 107.883Z" fill="#BF9AED"/>
<path d="M26.0566 364.601C25.1754 364.549 24.3115 364.48 23.4648 364.376L23.6549 362.908C24.467 363.012 25.2964 363.081 26.143 363.132C29.1496 363.305 32.3807 363.15 35.7501 362.649L35.9575 364.117C32.5017 364.618 29.1668 364.773 26.0566 364.601ZM11.5596 360.369C7.89647 358.072 5.09729 354.911 3.21388 350.973L4.56164 350.334C6.32409 354.013 8.95049 356.984 12.3544 359.125L11.5596 360.369ZM48.07 361.181L47.6035 359.764C51.3184 358.521 55.1198 356.949 58.9212 355.101L59.5778 356.431C55.7246 358.331 51.8541 359.92 48.07 361.181ZM70.3771 350.334L69.5823 349.09C72.9689 346.931 76.3211 344.548 79.5695 341.974L80.4853 343.148C77.2023 345.739 73.7983 348.157 70.3771 350.334ZM0.431975 338.727C0.380138 337.345 0.397417 335.894 0.483812 334.409C0.622043 331.852 0.984901 329.123 1.53783 326.291L2.98926 326.584C2.45361 329.348 2.10803 332.008 1.95252 334.495C1.86613 335.929 1.84885 337.328 1.90068 338.675L0.431975 338.727ZM89.885 335.03L88.8656 333.96C91.803 331.179 94.6713 328.208 97.3841 325.133L98.4899 326.118C95.7426 329.21 92.857 332.198 89.885 335.03ZM183.9 338.52C182.604 338.45 181.256 338.329 179.908 338.174L180.081 336.706C181.412 336.861 182.725 336.965 183.986 337.034C186.854 337.19 189.636 337.155 192.245 336.93L192.384 338.416C189.688 338.658 186.837 338.692 183.9 338.52ZM167.675 335.894C163.96 334.961 159.968 333.752 155.804 332.301L156.288 330.902C160.418 332.336 164.375 333.528 168.038 334.443L167.675 335.894ZM204.565 335.583L204.012 334.201C205.377 333.666 206.725 333.027 208.004 332.336C210.406 331.041 212.652 329.693 214.673 328.346L215.486 329.59C213.412 330.954 211.131 332.319 208.695 333.631C207.382 334.357 205.982 335.013 204.565 335.583ZM144.227 327.897C140.685 326.446 136.97 324.823 132.875 322.974L133.497 321.627C137.575 323.475 141.273 325.082 144.797 326.533L144.227 327.897ZM6.1513 314.77L4.75171 314.286C6.22042 310.037 7.96559 306.22 9.95267 302.956L11.2313 303.733C9.29607 306.911 7.58545 310.625 6.1513 314.77ZM121.678 317.741C117.842 315.91 113.972 314.027 110.551 312.352L111.207 311.022C114.628 312.68 118.499 314.563 122.335 316.411L121.678 317.741ZM106.3 316.48L105.108 315.599C107.527 312.335 109.859 308.915 112.019 305.46L113.281 306.238C111.104 309.727 108.754 313.181 106.3 316.48ZM225.145 321.679L224.073 320.66C227.08 317.482 229.257 314.096 230.536 310.625L231.935 311.143C230.587 314.805 228.307 318.345 225.145 321.679ZM99.4403 306.963C95.1551 304.908 91.6129 303.249 88.2781 301.73L88.9001 300.382C92.2522 301.902 95.8117 303.56 100.097 305.633L99.4403 306.963ZM18.9896 294.562L18.0392 293.422C21.2876 290.744 25.0372 288.793 29.1496 287.601L29.5643 289.034C25.6419 290.174 22.0825 292.023 18.9896 294.562ZM76.9604 296.841C72.8134 295.149 69.0294 293.732 65.4353 292.541L65.9019 291.124C69.5304 292.333 73.3318 293.75 77.5133 295.46L76.9604 296.841ZM119.38 295.425L118.05 294.752C119.899 291.124 121.626 287.376 123.199 283.611L124.564 284.181C123.009 287.998 121.264 291.781 119.38 295.425ZM53.6338 289.242C49.2968 288.309 45.2363 287.774 41.5558 287.67L41.5904 286.184C45.3745 286.288 49.5214 286.824 53.9448 287.791L53.6338 289.242ZM231.78 298.845C231.33 295.235 230.207 291.453 228.358 287.29L229.723 286.685C231.641 290.986 232.799 294.907 233.266 298.655L231.78 298.845ZM128.849 272.557L127.432 272.108C128.59 268.515 129.627 264.836 130.525 261.14C130.594 260.846 130.663 260.57 130.732 260.276L132.184 260.622C132.115 260.915 132.046 261.191 131.977 261.485C131.061 265.199 130.007 268.929 128.849 272.557ZM222.501 276.564C220.566 273.507 218.285 270.208 215.52 266.442L216.712 265.561C219.494 269.344 221.792 272.678 223.745 275.769L222.501 276.564ZM208.038 256.649C206.621 254.835 205.187 253.022 203.736 251.174C202.63 249.774 201.524 248.358 200.401 246.942L201.576 246.026C202.699 247.443 203.805 248.859 204.911 250.258C206.362 252.106 207.796 253.92 209.213 255.733L208.038 256.649ZM134.724 248.514L133.255 248.255C133.998 244.213 134.62 240.119 135.104 236.095L136.573 236.268C136.089 240.309 135.467 244.437 134.724 248.514ZM192.85 237.148C190.137 233.539 187.753 230.257 185.576 227.131L186.803 226.284C188.962 229.393 191.33 232.658 194.042 236.25L192.85 237.148ZM137.73 223.952L136.244 223.866C136.262 223.572 136.279 223.262 136.296 222.968C136.521 219.168 136.625 215.351 136.607 211.585H138.093C138.093 215.368 137.99 219.237 137.765 223.054C137.765 223.348 137.748 223.642 137.73 223.952ZM178.82 216.75C176.573 213.054 174.552 209.392 172.824 205.903L174.154 205.247C175.865 208.718 177.869 212.328 180.098 215.99L178.82 216.75ZM136.21 199.288C135.933 195.211 135.536 191.083 135 187.059L136.469 186.869C137.005 190.928 137.419 195.073 137.696 199.184L136.21 199.288ZM167.917 194.486C166.465 190.479 165.325 186.454 164.513 182.551L165.964 182.257C166.759 186.092 167.882 190.047 169.316 194.002L167.917 194.486ZM132.979 174.951C132.167 170.944 131.216 166.919 130.145 162.999L131.579 162.601C132.668 166.557 133.618 170.616 134.43 174.657L132.979 174.951ZM163.009 170.184C162.958 168.267 162.975 166.332 163.079 164.415C163.2 162.204 163.441 159.959 163.787 157.765L165.256 157.99C164.91 160.149 164.686 162.342 164.565 164.501C164.461 166.384 164.426 168.284 164.495 170.149L163.009 170.184ZM126.499 151.271C125.151 147.402 123.648 143.55 122.041 139.819L123.406 139.232C125.03 142.997 126.534 146.884 127.899 150.787L126.499 151.271ZM168.228 146.158L166.828 145.674C168.141 141.84 169.817 138.006 171.804 134.275L173.118 134.966C171.165 138.645 169.524 142.41 168.228 146.158ZM116.806 128.713C114.905 125.034 112.866 121.441 110.758 118.022L112.019 117.244C114.145 120.699 116.201 124.326 118.119 128.039L116.806 128.713ZM179.597 124.602L178.388 123.739C180.789 120.405 183.45 117.192 186.301 114.153L187.39 115.172C184.591 118.142 181.964 121.321 179.597 124.602ZM196.323 106.795L195.39 105.637C199.122 102.597 202.82 100.127 205.792 98.6938L206.431 100.041C203.563 101.423 199.969 103.806 196.323 106.795Z" fill="#8D58D1"/>
<path d="M217.887 95.7574L217.49 94.3238C221.879 93.132 223.659 93.3393 223.849 93.3566L223.641 94.8247C223.641 94.842 221.982 94.652 217.887 95.7574Z" fill="white"/>
<path d="M349.968 134.275C349.968 122.512 388.206 112.995 389.156 113.03C386.668 100.266 382.003 88.2961 375.54 77.5009C374.521 75.7909 372.326 72.4401 372.326 72.4401H364.862C364.862 72.4401 336.369 91.8714 329.596 85.1179C321.267 76.7927 341.57 43.0427 342.278 42.4036C331.928 35.4256 320.317 30.1403 307.876 26.9794C305.837 26.4613 301.673 25.5977 301.673 25.5977H294.208C294.208 25.5977 291.185 64.7712 280.42 64.7712C271.97 64.7712 264.679 45.0808 261.257 33.612C259.91 29.1039 259.184 25.5977 259.184 25.5977H251.72C251.72 25.5977 229.326 35.1838 218.596 42.4209C219.304 43.0599 239.607 76.81 231.279 85.1352C224.937 91.4742 203.788 81.1799 193.818 75.6355C190.725 73.9082 188.548 72.4746 188.548 72.4746H181.083C181.083 72.4746 174.414 99.2121 171.735 113.064C172.686 113.013 210.924 122.53 210.924 134.309C210.924 146.072 172.686 155.589 171.735 155.554C174.448 169.51 181.083 196.144 181.083 196.144H188.548C188.548 196.144 190.103 195.091 192.366 193.795C201.559 188.527 224.592 176.799 231.279 183.466C239.607 191.792 219.304 225.542 218.596 226.181C229.153 233.297 251.72 243.004 251.72 243.004H259.184C259.184 243.004 259.461 241.501 260.013 239.429C262.571 229.756 270.744 203.83 280.437 203.83C292.204 203.83 294.26 242.054 294.226 243.004C309.016 240.137 330.235 234.316 342.296 226.181C341.587 225.542 321.285 191.792 329.613 183.466C336.3 176.782 364.879 196.144 364.879 196.144H372.344C372.344 196.144 374.918 192.206 376.111 190.168C382.279 179.615 386.772 167.956 389.173 155.572C388.189 155.572 349.968 146.055 349.968 134.275ZM280.42 185.401C252.169 185.401 229.274 162.515 229.274 134.275C229.274 106.035 252.169 83.1489 280.42 83.1489C308.671 83.1489 331.565 106.035 331.565 134.275C331.565 162.515 308.671 185.401 280.42 185.401Z" fill="#9AEDEA"/>
<path d="M342.486 134.275C342.486 122.512 380.724 112.995 381.674 113.03C378.806 98.2448 372.983 84.4961 364.845 72.44C364.205 73.1482 330.442 93.4431 322.114 85.1179C313.785 76.7926 334.088 43.0426 334.797 42.4035C322.736 34.2683 308.999 28.4648 294.191 25.5803C294.243 26.5303 284.722 64.7539 272.938 64.7539C261.154 64.7539 251.65 26.5303 251.685 25.5803C236.894 28.4475 223.14 34.2683 211.079 42.4035C211.788 43.0426 232.091 76.7926 223.762 85.1179C215.434 93.4431 181.671 73.1482 181.031 72.44C172.893 84.4961 167.087 98.2275 164.202 113.03C165.152 112.978 203.39 122.495 203.39 134.275C203.39 146.037 165.152 155.554 164.202 155.52C167.07 170.305 172.893 184.054 181.031 196.11C181.671 195.401 215.434 175.106 223.762 183.432C232.091 191.757 211.788 225.507 211.079 226.146C223.14 234.281 236.877 240.085 251.685 242.969C251.633 242.019 261.154 203.796 272.938 203.796C284.722 203.796 294.226 242.019 294.191 242.969C308.982 240.102 322.736 234.281 334.797 226.146C334.088 225.507 313.785 191.757 322.114 183.432C330.442 175.106 364.205 195.401 364.845 196.11C372.983 184.054 378.789 170.322 381.674 155.52C380.724 155.572 342.486 146.055 342.486 134.275ZM272.955 185.401C244.704 185.401 221.81 162.515 221.81 134.275C221.81 106.035 244.704 83.1488 272.955 83.1488C301.206 83.1488 324.101 106.035 324.101 134.275C324.101 162.515 301.189 185.401 272.955 185.401Z" fill="#22CDC6"/>
<g opacity="0.2">
<path d="M294.208 25.5974C294.26 26.5474 284.739 64.7709 272.955 64.7709C271.746 64.7709 270.571 64.3737 269.413 63.6483C271.694 66.4291 274.182 68.2081 276.774 68.2081C288.489 68.2081 297.958 31.6773 297.923 30.7618C310.813 33.1627 322.891 37.7226 333.76 44.0269C334.347 43.0597 334.727 42.4724 334.814 42.4033C322.736 34.2854 308.999 28.4646 294.208 25.5974ZM302.036 92.2166C315.358 101.44 324.084 116.847 324.084 134.275C324.084 154.103 312.783 171.306 296.264 179.787C314.684 172.446 327.643 155.001 327.643 134.637C327.66 116.484 317.345 100.645 302.036 92.2166ZM253.102 31.2627C252.186 28.0155 251.685 25.8047 251.702 25.5974C236.911 28.4646 223.157 34.2854 211.097 42.4206C211.805 43.0597 232.108 76.8097 223.779 85.135C215.451 93.4602 181.688 73.1653 181.049 72.4571C172.91 84.5132 167.104 98.2446 164.219 113.047C164.409 113.03 166.068 113.41 168.608 114.101C171.493 100.058 177.264 87.0176 185.299 75.5661C185.938 76.2397 219.546 95.6365 227.823 87.674C236.116 79.7115 215.9 47.4641 215.209 46.8423C226.527 39.5189 239.33 34.1472 253.102 31.2627ZM215.209 222.45C215.917 221.845 236.116 189.58 227.823 181.618C222.069 176.091 204.064 183.777 193.42 189.2C204.133 183.915 218.682 178.353 223.762 183.432C232.09 191.757 211.788 225.507 211.079 226.146C223.14 234.281 236.877 240.085 251.685 242.969C251.668 242.762 252.099 240.862 252.894 237.995C239.209 235.093 226.475 229.739 215.209 222.45ZM207.572 134.655C207.572 125.759 183.779 118.211 173.359 115.465C184.936 119.006 203.425 126.105 203.425 134.292C203.425 146.054 165.186 155.571 164.236 155.537C167.104 170.322 172.927 184.071 181.066 196.127C181.204 195.988 182.759 194.987 185.213 193.588C177.178 182.102 171.424 169.026 168.59 154.967C169.523 154.984 207.572 145.899 207.572 134.655Z" fill="white"/>
</g>
<path d="M279.832 375.033C279.504 389.732 291.133 401.771 305.82 401.961C312.939 402.047 316.55 399.076 321.354 394.568C323.151 392.875 328.974 394.361 328.974 396.831V451.1H275.564C273.094 451.1 271.832 454.054 273.526 455.85C278.035 460.635 280.783 467.112 280.696 474.245C280.506 488.944 268.446 500.551 253.758 500.223C239.469 499.895 228.047 488.305 228.047 473.934C228.047 466.939 230.76 460.566 235.218 455.85C236.911 454.054 235.65 451.1 233.179 451.1H178.889V324.978C178.889 311.281 189.999 300.192 203.684 300.192H328.974V354.462C328.974 356.932 323.583 358.676 321.786 356.984C317.068 352.527 313.146 349.315 306.131 349.332C291.755 349.332 280.143 360.749 279.832 375.033Z" fill="#E2473B"/>
<path d="M480.821 451.083V577.205C480.821 590.902 469.711 601.991 456.026 601.991H330.736V547.721C330.736 545.251 333.691 543.991 335.488 545.683C340.205 550.139 346.581 552.869 353.579 552.851C367.938 552.834 379.549 541.417 379.877 527.133C380.206 512.434 368.577 500.395 353.89 500.205C346.771 500.119 340.291 502.848 335.505 507.373C333.708 509.066 330.753 507.805 330.753 505.335V451.066H384.163C386.633 451.066 387.895 448.112 386.201 446.316C381.692 441.531 378.944 435.054 379.031 427.921C379.221 413.222 391.281 401.615 405.969 401.943C420.258 402.271 431.662 413.861 431.68 428.232C431.68 435.227 428.967 441.6 424.509 446.316C422.816 448.112 424.077 451.066 426.548 451.066H480.821V451.083Z" fill="#1A66C1"/>
<path d="M276.688 375.033C276.359 389.732 287.988 401.771 302.675 401.961C309.794 402.047 316.274 399.318 321.06 394.793C322.857 393.1 325.812 394.361 325.812 396.831V451.1H272.402C269.932 451.1 268.67 454.054 270.363 455.85C274.873 460.635 277.621 467.112 277.534 474.245C277.344 488.944 265.284 500.551 250.596 500.223C236.307 499.895 224.885 488.305 224.885 473.934C224.885 466.939 227.598 460.566 232.056 455.85C233.749 454.054 232.488 451.1 230.017 451.1H175.727V324.978C175.727 311.281 186.837 300.192 200.522 300.192H325.812V354.462C325.812 356.932 322.857 358.193 321.06 356.5C316.343 352.044 309.967 349.315 302.969 349.332C288.627 349.332 277.016 360.749 276.688 375.033Z" fill="url(#paint1_linear_144_91)"/>
<path d="M376.733 527.15C376.422 541.434 364.81 552.851 350.434 552.869C343.436 552.869 337.06 550.157 332.343 545.701C330.546 544.008 327.591 545.269 327.591 547.739V602.008H201.421C187.718 602.008 176.625 590.902 176.625 577.223V451.1H230.034C232.505 451.1 233.767 454.054 232.073 455.85C227.615 460.566 224.885 466.939 224.903 473.934C224.92 488.288 236.341 499.895 250.614 500.223C265.318 500.551 277.379 488.944 277.552 474.245C277.638 467.129 274.908 460.652 270.381 455.85C268.687 454.054 269.932 451.1 272.42 451.1H327.591V505.37C327.591 507.84 330.546 509.101 332.343 507.408C337.129 502.9 343.609 500.154 350.728 500.24C365.45 500.413 377.061 512.451 376.733 527.15Z" fill="#22CDC6"/>
<path d="M477.693 451.083V577.205C477.693 590.902 466.583 601.991 452.898 601.991H327.609V547.721C327.609 545.251 330.563 543.991 332.36 545.683C337.077 550.139 343.453 552.869 350.451 552.851C364.81 552.834 376.422 541.417 376.75 527.133C377.078 512.434 365.449 500.395 350.762 500.205C343.643 500.119 337.164 502.848 332.378 507.373C330.581 509.066 327.626 507.805 327.626 505.335V451.066H381.001C383.471 451.066 384.733 448.112 383.039 446.316C378.53 441.531 375.782 435.054 375.869 427.921C376.059 413.222 388.119 401.615 402.807 401.943C417.096 402.271 428.5 413.861 428.518 428.232C428.518 435.227 425.805 441.6 421.347 446.316C419.654 448.112 420.915 451.066 423.386 451.066H477.693V451.083Z" fill="#9AEDEA"/>
<path d="M550.351 372.477C550.317 372.477 550.282 372.46 550.265 372.442C550.213 372.39 549.073 371.095 548.779 369.575C548.537 368.331 549.453 366.103 549.47 366.017C549.487 365.948 549.557 365.913 549.608 365.931C549.677 365.948 549.712 366.017 549.695 366.069C549.695 366.086 548.779 368.331 549.004 369.523C549.28 370.974 550.42 372.27 550.438 372.27C550.49 372.321 550.472 372.39 550.42 372.442C550.42 372.477 550.386 372.477 550.351 372.477Z" fill="#633016"/>
<path d="M582.49 570.486H566.853V592.059H582.49V570.486Z" fill="#150329"/>
<path d="M646.827 570.788L631.35 573.022L634.434 594.373L649.911 592.139L646.827 570.788Z" fill="#150329"/>
<path d="M578.81 386.346C578.81 386.346 569.151 447.939 565.488 485.628C561.911 522.366 559.388 574.753 559.388 574.753C559.388 574.753 567.095 577.102 574.87 577.102C582.663 577.102 591.855 575.15 591.855 575.15C591.855 575.15 600.685 482.536 603.916 459.615C607.147 436.695 614.111 387.245 614.111 387.245L578.81 386.346Z" fill="#8D58D1"/>
<path d="M630.025 385.794C630.025 385.794 634.552 396.053 636.02 408.058C639.372 435.417 641.843 480.826 645.213 498.305C650.068 523.454 657.429 572.801 657.429 572.801C657.429 572.801 651.329 576.29 640.979 577.032C631.303 577.723 623.113 575.271 623.113 575.271C623.113 575.271 599.32 440.702 599.147 415.847C598.974 391.01 599.441 387.642 599.441 387.642L630.025 385.794Z" fill="#8D58D1"/>
<path d="M520.269 357.433C520.269 357.433 513.012 354.393 510.247 349.712C507.482 345.031 506.515 341.249 505.271 342.941C502.886 346.223 504.7 349.781 506.186 351.785C506.774 352.579 506.238 353.685 505.253 353.736C503.508 353.823 501.262 353.201 498.843 352.027C494.039 349.695 488.113 343.874 486.678 345.498C486.419 345.791 486.074 347.087 486.799 347.847C486.212 347.76 484.536 348.572 485.504 350.887C484.605 351.249 484.242 352.683 485.417 353.996C483.447 355.74 487.784 359.212 490.791 361.526C495.318 364.981 504.942 368.522 508.467 368.349C511.992 368.176 523.621 374.17 523.621 374.17L528.165 359.557L520.269 357.433Z" fill="#FFCC99"/>
<path d="M499.448 356.155C499.499 356.172 499.569 356.155 499.603 356.103C499.638 356.051 499.62 355.982 499.551 355.947C499.499 355.913 494.005 352.925 492.294 351.785C489.115 349.678 486.972 347.829 486.955 347.812C486.903 347.778 486.834 347.778 486.782 347.829C486.748 347.881 486.748 347.95 486.799 348.002C486.817 348.019 488.959 349.868 492.156 351.992C493.884 353.115 499.378 356.12 499.448 356.155Z" fill="#633016"/>
<path d="M497.063 358.953C497.115 358.97 497.184 358.953 497.201 358.901C497.236 358.849 497.219 358.78 497.167 358.745C497.115 358.711 492.069 355.705 490.584 354.721C487.871 352.925 485.694 350.904 485.676 350.886C485.624 350.835 485.555 350.852 485.504 350.886C485.452 350.938 485.469 351.007 485.504 351.059C485.521 351.076 487.715 353.115 490.445 354.928C491.949 355.895 496.994 358.918 497.063 358.953Z" fill="#633016"/>
<path d="M495.404 361.63C495.456 361.647 495.525 361.63 495.543 361.578C495.577 361.526 495.56 361.457 495.508 361.423C495.473 361.388 491.206 358.711 489.91 357.744C487.525 355.947 485.642 353.961 485.624 353.944C485.573 353.892 485.503 353.892 485.452 353.944C485.4 353.995 485.4 354.065 485.452 354.116C485.469 354.134 487.37 356.137 489.771 357.951C491.067 358.918 495.352 361.613 495.387 361.63C495.387 361.63 495.387 361.63 495.404 361.63Z" fill="#633016"/>
<path d="M631.562 388.264C631.562 388.264 619.294 394.119 603.432 395.311C589.471 396.364 577.289 395.311 577.289 395.311L574.87 385.362L629.575 380.111L631.562 388.264Z" fill="#150329"/>
<path d="M526.714 358.953L518.817 355.757C518.817 355.757 518.973 358.953 517.591 363.685C516.554 367.278 514.584 370.801 514.584 370.801L522.152 372.909L526.714 358.953Z" fill="#084A9A"/>
<path d="M561.755 317.05C561.755 317.05 572.849 310.832 583.976 307.896C595.104 304.959 608.443 301.937 613.748 303.077C619.07 304.217 629.057 323.907 630.318 339.521C631.562 355.135 631.562 379.507 631.562 379.507C631.562 379.507 615.683 384.17 602.931 386.053C587.985 388.264 575.06 386.07 575.06 386.07C575.06 386.07 561.565 366.38 560.304 348.261C559.043 330.16 561.755 317.05 561.755 317.05Z" fill="#22CDC6"/>
<path d="M601.082 386.329C600.996 386.174 599.13 382.633 594.43 365.084C589.73 347.518 590.767 313.596 590.784 313.25L591.493 313.268C591.475 313.613 590.456 347.432 595.121 364.894C599.786 382.305 601.877 386.191 601.894 386.226L601.082 386.329Z" fill="#2A89D8"/>
<path d="M603.208 377.175L596.434 384.585L589.246 379.248C589.246 379.248 589.229 379.248 589.212 379.23C589.039 379.144 588.33 378.47 587.086 372.788C586.775 371.337 586.413 369.541 586.015 367.347C585.911 366.777 585.825 366.19 585.739 365.585C585.462 363.616 585.272 361.578 585.203 359.488C585.065 356.155 585.151 352.717 585.376 349.315C585.531 347.173 585.739 345.031 585.981 342.941C586.343 339.85 586.81 336.862 587.311 334.081C587.605 332.474 587.899 330.937 588.192 329.486C589.782 321.748 591.406 316.411 591.406 316.411C591.406 316.411 591.907 321.42 592.719 328.035C592.909 329.521 593.099 331.093 593.324 332.716C593.652 335.134 593.998 337.673 594.378 340.161C594.689 342.199 595.017 344.237 595.363 346.154C595.709 348.071 596.054 349.885 596.417 351.543C596.503 351.975 596.607 352.424 596.711 352.856C597.281 355.377 597.886 357.899 598.49 360.3C598.974 362.2 599.458 364.031 599.907 365.741C600.443 367.71 600.944 369.523 601.393 371.095C602.482 374.809 603.208 377.175 603.208 377.175Z" fill="#8D58D1"/>
<path d="M593.341 332.716L587.328 334.081C587.622 332.474 587.916 330.937 588.21 329.486L592.737 328.035C592.927 329.521 593.117 331.093 593.341 332.716Z" fill="#F77B64"/>
<path d="M595.38 346.154L585.358 349.332C585.514 347.19 585.721 345.049 585.963 342.959L594.378 340.161C594.706 342.199 595.035 344.22 595.38 346.154Z" fill="#F4523C"/>
<path d="M598.525 360.3L585.739 365.603C585.462 363.634 585.272 361.595 585.203 359.506L596.745 352.856C597.298 355.377 597.92 357.899 598.525 360.3Z" fill="#F4523C"/>
<path d="M601.428 371.095L589.212 379.23C589.039 379.144 588.33 378.47 587.086 372.788L599.959 365.741C600.478 367.71 600.979 369.523 601.428 371.095Z" fill="#F77B64"/>
<path d="M563.276 316.411C563.276 316.411 555.984 315.444 553.202 344.945C552.183 355.775 550.835 363.668 550.835 363.668L525.625 356.846C524.001 356.414 523.137 356.656 522.826 358.314C522.826 358.314 522.1 363.478 521.565 365.723C521.167 367.364 519.612 371.734 519.612 371.734C519.37 373.03 520.027 374.342 521.236 374.895C528.856 378.419 555.466 390.371 561.755 387.936C569.099 385.086 587.968 333.511 587.968 333.511L571.864 317.465L563.276 316.411Z" fill="#76B6FF"/>
<path d="M608.668 352.165L599.009 349.366C599.009 349.366 599.026 353.46 597.817 356.154C595.553 361.25 592.823 363.202 592.823 363.202L600.599 365.827L608.668 352.165Z" fill="#2A89D8"/>
<path d="M594.205 362.925C595.242 361.889 596.953 359.834 598.456 356.448C599.354 354.427 599.614 351.716 599.683 350.299L607.579 352.579L600.27 364.963L594.205 362.925Z" fill="#084A9A"/>
<path d="M638.595 379.645C633.981 381.078 628.297 381.251 621.731 379.196C602.015 373.03 598.024 366.846 598.024 366.846C598.024 366.846 607.182 354.496 606.594 351.318C605.99 348.14 623.13 354.669 623.13 354.669C623.13 354.669 618.154 345.152 617.359 332.612C617.152 329.452 616.823 326.014 616.461 322.629C615.441 313.578 614.076 304.942 613.817 303.353C613.8 303.267 613.782 303.18 613.782 303.094C613.782 303.094 626.897 302.593 631.597 305.357C636.297 308.12 650.846 355.913 652.038 363.668C652.781 368.85 647.822 376.778 638.595 379.645Z" fill="#2A89D8"/>
<path d="M638.595 379.645C636.124 379.904 633.584 379.956 631.217 379.956C628.245 379.956 625.135 379.455 621.955 378.453C605.748 373.375 600.305 368.28 599.009 366.829C601.117 363.944 607.787 354.548 607.372 351.284C607.476 351.249 607.666 351.215 608.011 351.215C611.847 351.215 622.716 355.343 622.837 355.377L624.754 356.12L623.804 354.289C623.752 354.203 618.897 344.755 618.119 332.543C617.929 329.521 616.91 326.015 616.443 322.681C616.443 322.664 616.443 322.629 616.443 322.612C615.286 314.304 610.793 302.904 610.793 302.818C610.793 302.818 625.065 301.609 631.58 305.34C636.314 308.051 650.828 355.896 652.021 363.651C652.781 368.85 647.822 376.778 638.595 379.645Z" fill="#22CDC6"/>
<path d="M596.417 281.676C596.417 281.676 598.007 265.112 596.417 263.35C593.255 259.81 583.406 259.654 576.08 261.433C571 262.66 568.84 265.13 569.721 269.258C570.602 273.403 574.352 278.861 574.352 278.861L586.706 285.217L596.417 281.676Z" fill="#150329"/>
<path d="M582.283 284.958L580.641 306.41C580.641 306.41 581.695 312.473 591.13 313.25C594.758 313.544 602.05 303.664 602.05 303.664C602.05 303.664 598.577 297.757 597.972 295.166C596.417 288.723 596.417 284.958 596.417 284.958H582.283Z" fill="#FFCC99"/>
<path opacity="0.25" d="M582.283 291.729V303.198C583.13 303.129 584.045 302.99 585.047 302.766C586.81 302.386 590.75 300.52 592.115 298.137C593.773 295.252 593.255 289.708 593.255 289.708L582.283 291.729Z" fill="black"/>
<path d="M574.075 282.782C574.075 292.783 579.069 300.9 585.238 300.9C588.382 300.9 591.233 298.793 593.255 295.391C595.207 292.126 596.4 287.687 596.4 282.782C596.4 272.781 591.406 267.168 585.238 267.168C579.069 267.168 574.075 272.781 574.075 282.782Z" fill="#FFCC99"/>
<path d="M594.015 281.676C594.015 284.06 593.86 285.995 595.674 285.995C597.488 285.995 600.599 284.06 600.599 281.676C600.599 279.293 599.13 277.358 597.298 277.358C595.467 277.358 594.015 279.293 594.015 281.676Z" fill="#FFCC99"/>
<path d="M574.127 271.883C574.283 269.724 574.974 267.53 576.494 265.976C577.6 264.836 579.034 264.111 580.486 263.471C582.611 262.539 584.857 261.744 587.173 261.762C587.847 261.762 588.538 261.831 589.16 262.107C589.834 262.401 590.387 262.901 590.94 263.385C592.443 264.732 593.998 266.149 594.827 267.997C595.363 269.189 595.57 270.501 595.76 271.797C596.002 273.438 596.866 275.856 596.227 277.376C596.192 277.462 593.998 278.637 594.43 281.884C594.62 283.283 595.346 284.475 595.657 287.376C595.985 290.261 594.845 294.13 592.115 298.154C589.384 302.179 581.505 301.609 579.985 300.9C578.464 300.192 576.667 294.372 576.667 294.372C576.667 294.372 578.793 292.23 582.646 292.126C588.365 291.988 591.734 293.093 591.734 293.093C594.188 292.385 593.652 284.855 593.462 282.074C593.29 279.483 593.255 278.757 592.979 276.46C592.892 275.752 592.84 274.785 592.685 274.094C592.339 272.488 590.179 271.762 588.538 271.71C583.216 271.52 577.548 274.595 574.369 278.861C574.006 276.719 573.972 274.042 574.127 271.883Z" fill="#150329"/>
<path d="M580.641 294.596C580.641 295.218 581.851 296.358 583.337 296.358C584.823 296.358 586.032 294.717 586.032 294.095C586.032 293.473 584.823 294.095 583.337 294.095C581.851 294.095 580.641 293.974 580.641 294.596Z" fill="white"/>
<path opacity="0.5" d="M582.041 290.813C582.628 290.813 583.216 290.623 583.631 290.157C583.734 290.036 583.734 289.846 583.613 289.743C583.492 289.639 583.302 289.639 583.199 289.76C582.611 290.399 581.523 290.313 580.78 289.881C580.434 289.691 580.227 289.466 580.123 289.224C579.933 288.758 580.158 288.223 580.399 287.67C580.469 287.514 580.538 287.342 580.59 287.186C580.78 286.668 580.866 286.133 580.935 285.684C581.108 284.423 581.142 283.127 581.039 281.849C581.021 281.694 580.883 281.573 580.728 281.59C580.572 281.607 580.451 281.745 580.469 281.901C580.572 283.127 580.52 284.388 580.365 285.614C580.313 286.029 580.227 286.53 580.054 286.996C580.002 287.152 579.933 287.29 579.864 287.445C579.587 288.067 579.294 288.758 579.57 289.449C579.726 289.812 580.019 290.123 580.469 290.382C580.952 290.641 581.505 290.813 582.041 290.813Z" fill="black"/>
<path d="M569.635 377.261C569.514 377.261 569.393 377.192 569.324 377.071C569.272 376.985 564.451 368.176 562.568 361.043C559.647 349.937 560.252 337.276 560.269 337.138C560.287 336.948 560.442 336.792 560.65 336.81C560.84 336.827 560.995 336.982 560.978 337.19C560.978 337.311 560.356 349.868 563.259 360.87C565.108 367.917 569.894 376.64 569.946 376.726C570.032 376.899 569.98 377.106 569.807 377.21C569.756 377.244 569.686 377.261 569.635 377.261Z" fill="#2A89D8"/>
<path d="M591.13 313.25C591.13 313.25 585.929 317.482 586.482 318.795C587.035 320.125 588.832 322.854 590.421 322.992C592.011 323.13 596.434 319.572 596.97 318.121C597.488 316.67 591.13 313.25 591.13 313.25Z" fill="#F77B64"/>
<path d="M574.87 310.746C574.87 310.746 578.05 314.632 579.501 315.841C581.004 317.102 586.672 320.677 586.672 320.677L591.752 313.147C591.752 313.147 587.242 311.506 585.255 310.521C580.831 308.328 580.641 306.41 580.641 306.41L574.87 310.746Z" fill="#8D58D1"/>
<path d="M596.693 319.434L591.13 313.25C591.13 313.25 596.192 309.416 597.523 307.982C601.773 303.422 601.03 301.816 601.03 301.816L608.65 303.785C608.65 303.785 605.575 309.174 602.689 312.663C601.151 314.511 596.693 319.434 596.693 319.434Z" fill="#8D58D1"/>
<path d="M608.668 395.363L597.644 396.278C597.246 396.313 596.918 396.019 596.866 395.639L595.95 387.279C595.916 386.882 596.192 386.536 596.573 386.485L607.527 385.034C607.925 384.982 608.288 385.276 608.339 385.673L609.307 394.551C609.359 394.983 609.065 395.328 608.668 395.363Z" fill="#F77B64"/>
<path d="M604.141 459.978C603.968 459.978 603.812 459.857 603.795 459.667C603.743 459.305 598.387 423.24 596.158 411.253C596.123 411.063 596.244 410.873 596.434 410.839C596.624 410.804 596.814 410.925 596.849 411.115C599.061 423.102 604.434 459.184 604.486 459.546C604.521 459.736 604.383 459.926 604.193 459.944C604.175 459.978 604.158 459.978 604.141 459.978Z" fill="#BF9AED"/>
<path d="M587.242 587.068C587.968 590.142 588.417 595.203 587.311 598.968C586.603 601.404 571.898 601.162 571.898 601.162L571.397 597.258C571.397 597.258 570.101 596.619 568.857 597.258C566.49 598.502 562.395 601.49 554.481 601.922C542.438 602.561 537.185 601.317 537.185 601.317C537.185 601.317 533.383 596.481 536.425 594.201C539.466 591.921 559.267 588.657 561.289 585.945C562.982 583.665 565.038 577.084 565.038 577.084C565.038 577.084 568.995 578.017 569.79 580.176C570.516 582.197 570.464 586.014 574.127 586.221C577.635 586.429 580.762 583.924 583.389 579.969C584.46 578.293 586.793 585.185 587.242 587.068Z" fill="#150329"/>
<path d="M653.196 595.738C653.196 600.108 648.116 601.766 642.275 601.766C636.452 601.766 630.681 599.814 630.681 595.445C630.681 591.075 634.69 582.611 640.513 582.611C646.353 582.611 653.196 591.368 653.196 595.738Z" fill="#150329"/>
<path d="M653.196 603.148H630.698V599.106C630.698 598.536 631.165 598.07 631.735 598.07H652.176C652.746 598.07 653.213 598.536 653.213 599.106V603.148H653.196Z" fill="#150329"/>
<path d="M535.232 597.241C534.818 597.241 534.472 597.586 534.472 598.035V602.094H569.064V597.258H535.232V597.241Z" fill="#150329"/>
<path d="M588.486 598.018C588.486 597.587 588.14 597.224 587.726 597.224H571.38V602.06H588.469V598.018H588.486Z" fill="#150329"/>
<path d="M591.769 365.395L517.608 467.44H513.184L474.41 436.073C472.406 434.623 473.115 431.496 475.551 431.03C481.927 429.821 487.888 426.28 492 420.615C500.433 408.99 498.013 392.893 486.644 384.239C474.946 375.327 458.358 377.641 449.563 389.421C445.313 395.121 443.706 401.978 444.552 408.507C444.863 410.96 438.332 412.963 436.328 411.512L395.48 378.747L427.394 334.841C428.846 332.837 427.204 330.091 424.734 330.402C418.306 331.231 411.567 329.693 405.917 325.583C394.15 317.033 391.541 300.572 400.094 288.81C408.664 277.03 425.045 274.422 436.846 282.972C442.514 287.083 446.073 293.024 447.265 299.415C447.732 301.85 450.859 302.559 452.311 300.555L479.784 256.649H484.208L586.292 330.782C597.367 338.813 599.821 354.324 591.769 365.395Z" fill="#E127CA"/>
<path d="M587.346 365.395L513.184 467.44L469.987 436.073C467.983 434.623 468.691 431.496 471.127 431.03C477.503 429.821 483.465 426.28 487.577 420.615C496.009 408.99 493.59 392.893 482.221 384.239C470.523 375.327 453.935 377.641 445.14 389.421C440.889 395.121 439.282 401.978 440.129 408.507C440.44 410.96 437.693 412.618 435.688 411.167L391.057 378.747L422.971 334.841C424.422 332.837 422.781 330.091 420.31 330.402C413.882 331.231 407.144 329.693 401.493 325.583C389.726 317.033 387.117 300.572 395.67 288.81C404.241 277.03 420.621 274.422 432.423 282.972C438.09 287.083 441.65 293.024 442.842 299.415C443.308 301.85 446.436 302.559 447.887 300.555L479.801 256.649L581.885 330.782C592.944 338.813 595.398 354.324 587.346 365.395Z" fill="#ED9AE3"/>
<path d="M600.322 350.645C600.322 350.645 593.065 347.605 590.3 342.924C587.536 338.243 586.568 334.461 585.324 336.153C582.939 339.435 584.754 342.993 586.24 344.997C586.827 345.791 586.292 346.897 585.307 346.948C583.561 347.035 581.315 346.413 578.896 345.238C574.093 342.907 568.166 337.086 566.732 338.71C566.473 339.003 566.127 340.299 566.853 341.059C566.265 340.972 564.589 341.784 565.557 344.098C564.658 344.461 564.295 345.895 565.47 347.207C563.501 348.952 567.838 352.424 570.844 354.738C575.371 358.193 584.996 361.733 588.521 361.561C592.045 361.388 603.674 367.382 603.674 367.382L608.219 352.769L600.322 350.645Z" fill="#FFCC99"/>
<path d="M579.518 349.367C579.57 349.384 579.639 349.367 579.674 349.315C579.708 349.263 579.691 349.194 579.622 349.159C579.57 349.125 574.075 346.137 572.365 344.997C569.185 342.889 567.043 341.041 567.026 341.024C566.974 340.99 566.905 340.99 566.853 341.041C566.818 341.093 566.818 341.162 566.87 341.214C566.887 341.231 569.03 343.079 572.226 345.204C573.937 346.327 579.449 349.315 579.518 349.367C579.518 349.349 579.518 349.349 579.518 349.367Z" fill="#633016"/>
<path d="M577.134 352.165C577.186 352.182 577.255 352.165 577.272 352.113C577.306 352.061 577.289 351.992 577.237 351.957C577.186 351.923 572.14 348.917 570.654 347.933C567.941 346.137 565.764 344.116 565.747 344.098C565.695 344.047 565.626 344.064 565.574 344.098C565.522 344.15 565.54 344.219 565.574 344.271C565.591 344.288 567.786 346.327 570.516 348.14C572.019 349.09 577.065 352.113 577.134 352.165C577.116 352.147 577.116 352.147 577.134 352.165Z" fill="#633016"/>
<path d="M575.458 354.842C575.509 354.859 575.579 354.842 575.596 354.79C575.63 354.738 575.613 354.669 575.561 354.634C575.527 354.6 571.259 351.923 569.963 350.955C567.578 349.159 565.695 347.173 565.678 347.156C565.626 347.104 565.557 347.104 565.505 347.156C565.453 347.207 565.453 347.276 565.505 347.328C565.522 347.346 567.423 349.349 569.825 351.163C571.121 352.13 575.406 354.824 575.44 354.842C575.458 354.842 575.458 354.842 575.458 354.842Z" fill="#633016"/>
<path d="M249.11 410.303C248.419 410.286 245.447 408.593 244.652 408.161L238.311 412.756C237.758 413.326 237.084 413.844 236.566 414.12C231.814 416.573 224.954 419.267 228.013 421.772C231.192 424.38 230.968 425.088 233.663 425.986C235.823 426.712 236.324 427.42 240.074 428.75C244.203 430.218 248.229 425.848 250.51 423.309L269.638 416.124L265.18 404.292C265.18 404.258 253.396 410.424 249.11 410.303Z" fill="#EB6C58"/>
<path d="M241.767 428.439C241.248 428.439 240.747 428.353 240.264 428.18C238.225 427.455 237.188 426.936 236.255 426.47C235.495 426.09 234.838 425.762 233.836 425.416C232.194 424.864 231.745 424.432 230.743 423.447C230.173 422.895 229.482 422.221 228.358 421.306C227.771 420.822 227.805 420.494 227.823 420.373C227.978 418.991 231.659 417.178 234.631 415.727C235.356 415.364 236.117 414.984 236.825 414.639C237.395 414.345 238.086 413.81 238.674 413.205L244.825 408.852C244.894 408.887 244.981 408.939 245.067 408.991C247.21 410.217 248.488 410.89 249.093 410.908C249.145 410.908 249.18 410.908 249.231 410.908C253.188 410.908 262.415 406.348 264.869 405.104L268.878 415.761L250.164 422.791L250.061 422.895C248.454 424.691 245.119 428.439 241.767 428.439Z" fill="#FF9E85"/>
<path d="M248.609 427.783C249.352 426.85 246.57 425.554 245.741 425.105C244.877 424.639 242.579 423.136 242.579 423.136C242.579 423.136 244.151 423.862 246 424.708C248.177 425.727 250.752 426.815 251.564 425.554C252.117 424.691 249.508 423.309 247.123 421.789C245.223 420.58 244.86 420.528 245.24 420.39C245.24 420.39 251.892 424.466 252.825 423.896C254.864 422.67 251.875 420.891 248.488 418.732C246.104 417.212 243.616 415.485 241.784 414.535C241.283 414.276 240.609 413.74 240.056 413.17C240.056 413.17 237.62 409.094 235.443 409.111C234.527 409.111 229.948 410.649 229.257 410.666C224.972 410.752 213.222 404.517 213.222 404.517L208.695 415.381L227.788 423.637C230.898 425.624 230.034 425.382 234.043 427.178C235.253 427.714 238.363 428.543 238.864 428.698C243.115 429.976 243.236 430.166 244.445 429.803C244.929 429.648 245.983 429.026 243.892 427.973C241.957 427.005 240.125 425.33 240.125 425.33C240.125 425.33 243.063 427.074 244.186 427.472C245.205 427.834 247.607 429.043 248.609 427.783Z" fill="#EB6C58"/>
<path d="M243.512 429.354C243.063 429.354 242.389 429.147 240.937 428.698C240.402 428.543 239.78 428.335 239.02 428.111C238.933 428.076 238.726 428.024 238.484 427.955C237.43 427.662 235.218 427.04 234.285 426.608C231.417 425.33 231.106 425.105 229.948 424.328C229.499 424.034 228.946 423.655 228.099 423.119L228.047 423.085L209.455 415.951L213.533 405.329C215.987 406.589 225.231 411.236 229.171 411.236H229.274C229.654 411.236 230.553 410.977 232.125 410.528C233.352 410.182 235.028 409.699 235.443 409.699C236.791 409.699 238.674 412.013 239.538 413.464L239.572 413.516L239.624 413.567C240.212 414.172 240.937 414.742 241.508 415.053C242.769 415.709 244.324 416.728 245.983 417.816C246.709 418.283 247.434 418.766 248.16 419.233L248.557 419.475C250.493 420.701 252.912 422.221 252.894 422.981C252.894 423.119 252.704 423.257 252.566 423.361C251.581 423.326 247.884 421.323 245.534 419.889L245.292 419.734L245.033 419.837C244.704 419.958 244.531 420.148 244.497 420.425C244.445 420.874 244.756 421.064 245.43 421.461C245.758 421.651 246.19 421.91 246.778 422.29C247.141 422.532 247.521 422.756 247.884 422.981C249.059 423.706 250.838 424.794 251.011 425.278C250.942 425.382 250.769 425.537 250.268 425.537C249.231 425.537 247.624 424.829 246.225 424.173C244.376 423.326 242.804 422.601 242.804 422.601C242.804 422.601 242.354 422.843 242.285 422.981C242.216 423.102 242.251 423.637 242.251 423.637C242.337 423.706 244.583 425.14 245.447 425.624C245.534 425.675 245.655 425.727 245.793 425.796C247.676 426.781 248.074 427.23 248.143 427.42C248.022 427.558 247.797 427.748 247.279 427.748C246.519 427.748 245.551 427.368 244.86 427.092C244.67 427.023 244.514 426.954 244.359 426.902C243.305 426.522 240.436 424.812 240.402 424.794C240.402 424.794 239.814 424.915 239.711 425.036C239.624 425.157 239.693 425.727 239.693 425.727C239.763 425.796 241.594 427.454 243.581 428.456C244.203 428.767 244.411 428.992 244.48 429.078C244.428 429.113 244.324 429.164 244.238 429.199C243.892 429.32 243.719 429.354 243.512 429.354Z" fill="#FF9E85"/>
<path d="M236.531 413.049C238.346 414.984 237.568 417.765 236.618 418.11C235.667 418.473 234.199 416.901 233.335 414.621C232.471 412.341 232.557 410.199 233.508 409.837C233.819 409.716 241.283 407.488 242.614 407.557C243.702 407.609 249.646 408.973 244.825 414.034C243.166 415.778 239.849 413.274 239.175 412.238C238.138 412.082 236.773 412.842 236.531 413.049Z" fill="#EB6C58"/>
<path d="M236.324 417.575C235.806 417.575 234.665 416.487 233.888 414.431C233.058 412.22 233.3 410.58 233.715 410.424C234.164 410.269 241.197 408.179 242.544 408.179H242.579C243.184 408.213 245.43 409.025 246.916 410.044C247.935 410.735 246.19 413.758 244.652 414.017C244.272 414.086 243.789 414.086 243.357 414.086C241.905 414.086 240.091 412.618 239.676 411.961L239.538 411.737L239.279 411.685C239.14 411.668 239.002 411.65 238.847 411.65C237.706 411.65 236.48 412.341 236.169 412.583L235.667 412.98L236.099 413.447C237.274 414.708 237.05 416.159 236.946 416.573C236.791 417.212 236.514 417.506 236.41 417.558C236.393 417.575 236.359 417.575 236.324 417.575Z" fill="#FF9E85"/>
<path d="M230.052 421.962C231.797 420.822 233.404 420.183 233.94 420.995C234.562 421.962 233.231 423.016 231.486 424.173C229.741 425.313 228.203 426.055 227.598 425.14C226.976 424.173 228.307 423.102 230.052 421.962Z" fill="#EB6C58"/>
<path d="M228.428 424.95C228.22 424.95 228.151 424.881 228.099 424.795C228.047 424.708 227.909 424.518 228.376 424C228.842 423.482 229.689 422.895 230.38 422.446C232.039 421.375 232.834 421.202 233.162 421.202C233.387 421.202 233.438 421.271 233.456 421.306C233.819 421.858 232.333 422.912 231.175 423.655C230.691 423.983 229.205 424.95 228.428 424.95Z" fill="#FF9E85"/>
<path d="M232.315 424.294C234.009 422.584 235.633 421.461 236.41 422.221C237.309 423.119 236.065 424.622 234.371 426.332C232.678 428.042 231.935 428.439 231.054 427.575C230.155 426.695 230.622 426.004 232.315 424.294Z" fill="#EB6C58"/>
<path d="M231.935 427.42C231.883 427.42 231.745 427.42 231.469 427.161C231.054 426.764 230.881 426.574 232.73 424.708C234.7 422.722 235.564 422.566 235.788 422.566C235.909 422.566 235.944 422.601 235.996 422.635C236.6 423.24 234.682 425.192 233.957 425.917C233.214 426.66 232.402 427.42 231.935 427.42Z" fill="#FF9E85"/>
<path d="M234.786 426.988C235.944 425.503 237.136 424.518 237.914 425.123C238.829 425.831 238.017 427.126 236.86 428.612C235.702 430.097 235.063 430.373 234.181 429.7C233.283 428.974 233.646 428.456 234.786 426.988Z" fill="#EB6C58"/>
<path d="M235.028 429.441C234.907 429.441 234.752 429.372 234.562 429.216C234.233 428.957 234.268 428.888 234.285 428.784C234.371 428.491 234.752 427.99 235.253 427.334C236.307 425.986 237.05 425.52 237.395 425.52C237.464 425.52 237.499 425.537 237.551 425.572C237.654 425.658 237.827 425.779 237.603 426.349C237.378 426.919 236.842 427.662 236.393 428.232C236.168 428.543 235.46 429.441 235.028 429.441Z" fill="#FF9E85"/>
<path d="M237.741 428.646C238.76 427.61 239.832 427.023 240.523 427.714C241.335 428.525 240.54 429.216 239.521 430.253C238.501 431.289 238 431.963 237.205 431.185C236.376 430.374 236.721 429.683 237.741 428.646Z" fill="#EB6C58"/>
<path d="M237.862 430.926C237.845 430.926 237.758 430.892 237.62 430.754C237.274 430.425 237.326 430.253 237.361 430.149C237.447 429.804 237.862 429.372 238.173 429.061C239.123 428.111 239.642 428.007 239.832 428.007C239.953 428.007 240.039 428.042 240.125 428.128C240.194 428.197 240.281 428.301 240.281 428.387C240.281 428.646 239.763 429.182 239.296 429.648L239.106 429.838C239.002 429.942 238.916 430.028 238.812 430.132C238.449 430.495 238.017 430.926 237.862 430.926Z" fill="#FF9E85"/>
<path d="M261.258 422.566C267.737 420.131 280.23 414.379 280.23 414.379L298.476 406.503C298.476 406.503 313.872 400.855 319.66 388.454C325.449 376.069 346.149 333.321 329.043 333.165C311.937 332.992 307.617 345.705 304.559 355.429C301.431 365.361 303.902 377.468 292.532 383.358C289.75 384.792 263.366 400.838 252.255 404.759C251.529 405.018 253.119 410.009 254.951 414.017C256.99 418.456 260.653 422.791 261.258 422.566Z" fill="#8D58D1"/>
<path d="M321.872 329.503C321.872 329.503 302.502 329.331 305.215 369.541C307.928 409.75 309.189 437.887 309.189 437.887L316.654 440.029L334.226 441.635L325.777 337.777L321.872 329.503Z" fill="#F77B64"/>
<path d="M338.304 441.635H311.487C311.487 441.635 307.168 369.212 307.928 360.905C308.688 352.597 317.155 331.455 318.278 330.333C319.418 329.193 329.993 326.861 329.993 326.861L339.808 419.734L338.304 441.635Z" fill="#150329"/>
<path fill-rule="evenodd" clip-rule="evenodd" d="M377.597 621.163C377.545 622.545 376.888 625.775 375.8 625.74L364.81 624.549C363.722 624.514 357.052 617.605 357.104 616.223C357.104 616.223 363.03 612.717 364.119 610.783C365.346 608.623 359.436 598.934 359.436 598.934C359.488 597.552 375.73 593.942 375.696 595.324C375.696 595.324 376.18 609.677 376.093 612.51C375.99 614.634 377.597 621.163 377.597 621.163Z" fill="#FFA47F"/>
<path fill-rule="evenodd" clip-rule="evenodd" d="M379.445 629.108C379.411 630.093 378.668 630.887 377.769 630.853C377.769 630.853 364.084 630.853 355.255 632.269C349.726 633.15 333.172 629.385 333.172 629.385C332.274 629.35 331.583 628.521 331.617 627.537L331.704 625.136C331.738 624.134 332.481 623.357 333.38 623.391C333.38 623.391 350.088 626.103 355.756 626.293C361.233 626.466 377.977 624.859 377.977 624.859C378.875 624.894 379.566 625.723 379.532 626.708L379.445 629.108Z" fill="#150329"/>
<path fill-rule="evenodd" clip-rule="evenodd" d="M364.413 619.35C361.389 617.588 361.579 611.076 353.406 615.964C345.233 620.835 320.386 623.927 339.151 627.122C354.875 629.799 352.127 629.264 362.115 627.882C372.085 626.5 382.435 630.87 380.603 620.144C378.547 608.088 374.106 617.225 372.499 618.52C370.91 619.781 367.298 621.025 364.413 619.35Z" fill="#F77B64"/>
<path fill-rule="evenodd" clip-rule="evenodd" d="M315.081 619.764C315.03 621.146 314.373 624.393 313.284 624.341L302.295 623.149C301.206 623.115 294.537 616.206 294.589 614.824C294.589 614.824 300.515 611.318 301.604 609.383C302.831 607.224 300.965 595.583 300.965 595.583C301.016 594.201 317.259 590.591 317.224 591.973C317.224 591.973 313.665 608.278 313.561 611.111C313.492 613.235 315.081 619.764 315.081 619.764Z" fill="#FFA47F"/>
<path fill-rule="evenodd" clip-rule="evenodd" d="M316.93 627.709C316.896 628.694 316.153 629.488 315.254 629.454C315.254 629.454 301.569 629.454 292.74 630.87C287.21 631.751 270.657 627.986 270.657 627.986C269.759 627.951 269.068 627.122 269.102 626.138L269.189 623.737C269.223 622.735 269.966 621.958 270.865 621.992C270.865 621.992 287.573 624.704 293.241 624.894C298.718 625.067 315.462 623.46 315.462 623.46C316.36 623.495 317.051 624.324 317.017 625.309L316.93 627.709Z" fill="#150329"/>
<path fill-rule="evenodd" clip-rule="evenodd" d="M301.898 617.95C298.874 616.189 299.064 609.677 290.891 614.565C282.718 619.436 257.871 622.528 276.636 625.723C292.36 628.4 289.612 627.865 299.599 626.483C309.569 625.101 319.919 629.471 318.088 618.745C316.032 606.689 311.591 615.826 309.984 617.121C308.394 618.382 304.783 619.626 301.898 617.95Z" fill="#F77B64"/>
<path d="M321.665 336.274C321.665 336.274 322.114 329.331 321.699 323.734C321.457 320.522 320.939 317.758 319.885 317.033C319.729 316.929 319.557 316.86 319.384 316.843C312.922 316.446 313.353 307.498 310.969 295.46C308.705 284.06 315.928 274.405 324.464 274.405C333 274.405 337.959 277.738 337.959 292.368C337.959 293.18 336.645 299.07 336.645 299.07C336.645 299.07 334.537 312.594 335.159 317.499C336.127 324.943 338.114 333.683 338.114 333.683L321.665 336.274Z" fill="#FFA677"/>
<path d="M323.513 308.068C323.6 308.673 321.786 311.609 319.66 311.903C317.535 312.196 315.893 309.744 315.807 309.139C315.721 308.535 317.535 308.897 319.66 308.604C321.803 308.31 323.444 307.464 323.513 308.068Z" fill="white"/>
<path opacity="0.5" d="M318.71 304.493C318.9 304.908 316.982 304.683 316.308 304.079C315.444 303.319 315.341 302.041 315.444 300.97C315.634 298.932 317.397 294.579 317.5 295.27C317.552 295.702 316.827 298.793 316.55 300.555C316.412 301.453 316.256 302.541 316.706 303.371C317.103 304.113 318.399 303.785 318.71 304.493Z" fill="#150329"/>
<path d="M327.764 291.159C326.434 290.054 324.809 289.535 323.099 289.984C322.269 290.209 321.492 290.641 320.835 291.211C320.524 291.487 319.315 292.437 319.937 292.904C320.23 293.128 320.559 292.886 320.818 292.748C321.181 292.558 321.526 292.351 321.907 292.161C322.615 291.798 323.358 291.556 324.136 291.435C324.999 291.297 325.881 291.539 326.71 291.764C326.969 291.833 327.315 292.005 327.591 291.936C327.937 291.867 328.041 291.384 327.764 291.159Z" fill="#4A474E"/>
<path d="M310.554 290.9C310.658 290.9 310.762 290.883 310.865 290.883C311.66 290.848 312.438 290.934 313.198 291.159C314.045 291.401 314.736 291.988 315.392 292.541C315.6 292.713 315.842 293.024 316.118 293.076C316.481 293.145 316.775 292.765 316.619 292.437C315.876 290.865 314.615 289.725 312.887 289.414C312.144 289.276 311.384 289.311 310.658 289.483L310.554 290.9Z" fill="#4A474E"/>
<path d="M314.615 295.408C314.615 296.652 314.096 297.653 313.44 297.653C312.801 297.653 312.265 296.652 312.265 295.408C312.265 294.164 312.783 293.163 313.44 293.163C314.096 293.163 314.615 294.182 314.615 295.408Z" fill="black"/>
<path d="M322.84 295.408C322.84 296.652 323.358 297.653 324.015 297.653C324.654 297.653 325.19 296.652 325.19 295.408C325.19 294.164 324.671 293.163 324.015 293.163C323.358 293.163 322.84 294.182 322.84 295.408Z" fill="black"/>
<path d="M310.658 293.318C310.658 293.318 304.455 286.72 304.23 282.972C303.867 276.788 306.718 271.572 309.656 268.826C313.163 265.561 315.168 266.857 319.781 268.325C324.015 264.542 327.92 265.078 331.064 265.734C334.399 266.425 343.091 270.916 342.261 275.562C341.103 281.97 348.516 283.628 347.203 291.401C346.46 295.822 344.732 296.807 345.233 299.933C345.734 303.06 344.335 307.844 341.605 308.345C338.08 308.984 335.073 315.876 335.073 315.876L333.051 305.339C333.051 305.339 336.836 300.417 335.851 296.79C334.866 293.145 331.98 296.22 331.03 295.805C329.993 295.356 330.736 292.143 330.581 290.917C330.391 289.466 329.423 287.808 327.626 285.839C326.157 284.233 324.395 282.834 322.546 282.557C321.993 282.471 323.548 284.526 322.546 286.582C322.252 287.169 320.351 283.611 319.488 282.886C316.999 280.761 313.544 283.715 311.988 285.839C310.001 288.516 310.658 293.318 310.658 293.318Z" fill="#4A474E"/>
<path opacity="0.5" d="M329.941 310.037C329.941 310.037 328.231 317.879 321.699 323.734C321.457 320.522 320.939 317.758 319.885 317.033C321.889 316.635 324.775 315.616 326.969 313.026C330.719 308.656 329.941 310.037 329.941 310.037Z" fill="#150329"/>
<path opacity="0.5" d="M332.585 297.671C333.449 296.79 334.987 296.617 334.624 298.258C334.313 299.536 333.829 300.797 333.483 302.058C333.242 300.918 333.501 299.761 333.812 298.672C334.226 297.36 333.95 297.204 332.585 297.671Z" fill="#150329"/>
<g opacity="0.2">
<path d="M308.671 287.29C306.874 282.92 307.461 276.115 311.626 273.247C312.835 272.418 314.442 271.866 315.928 272.246C318.192 272.85 319.66 275.337 319.919 277.548C318.537 276.115 316.723 274.215 314.684 274.785C310.243 276.667 309.69 283.265 308.671 287.29Z" fill="#4A474E"/>
<path d="M332.533 288.793C331.496 284.751 330.961 278.17 326.537 276.288C324.498 275.718 322.667 277.618 321.302 279.051C321.561 276.84 323.03 274.353 325.293 273.749C326.762 273.351 328.369 273.904 329.578 274.75C333.725 277.618 334.33 284.423 332.533 288.793Z" fill="#4A474E"/>
<path d="M307.202 279.448C306.718 275.786 307.997 271.192 311.194 269.05C312.714 268.031 314.839 267.409 316.498 268.446C318.053 269.413 318.986 271.348 319.332 273.109C318.606 271.745 317.656 270.259 316.291 269.448C314.891 268.618 313.25 269.24 312.006 270.087C309.016 272.09 307.876 276.115 307.202 279.448Z" fill="#4A474E"/>
<path d="M334.209 276.201C332.74 273.127 330.65 269.499 327.28 268.273C325.863 267.755 324.118 267.565 322.961 268.688C321.82 269.793 321.267 271.469 320.887 272.971C320.801 271.192 321.233 269.085 322.511 267.772C323.876 266.373 326.088 266.46 327.816 267.081C331.445 268.377 333.794 272.522 334.209 276.201Z" fill="#4A474E"/>
</g>
<path d="M317.017 608.174L330.27 531.969L362.495 436.833L316.17 433.31L301.466 528.238L298.666 606.844L317.017 608.174Z" fill="#150329"/>
<path d="M361.026 608.986L336.905 521.174L327.747 436.333H368.024L370.547 522.901L377.597 607.225L361.026 608.986Z" fill="#150329"/>
<path d="M284.031 467.682H355.687C357.173 467.682 361.976 469.409 361.976 470.894L358.382 520.88C358.382 522.366 357.173 523.575 355.687 523.575L286.26 525.872C284.774 525.872 281.336 522.366 281.336 520.88V470.359C281.336 468.873 282.545 467.682 284.031 467.682Z" fill="#85453C"/>
<path d="M286.675 469.979H358.331C359.817 469.979 361.026 471.188 361.026 472.673V523.177C361.026 524.663 359.817 525.872 358.331 525.872H286.675C285.189 525.872 283.979 524.663 283.979 523.177V472.656C283.979 471.188 285.189 469.979 286.675 469.979Z" fill="#965549"/>
<path d="M284.29 467.682H357.242C359.264 467.682 361.976 469.858 361.976 470.894L360.819 496.785C360.819 497.822 359.177 498.668 357.156 498.668H285.5C283.478 498.668 281.318 497.822 281.318 496.785V470.86C281.336 468.493 282.286 467.682 284.29 467.682Z" fill="#73352D"/>
<path d="M286.675 469.012H358.331C360.352 469.012 361.994 469.858 361.994 470.877V496.768C361.994 497.805 360.352 498.651 358.331 498.651H286.675C284.653 498.651 283.012 497.805 283.012 496.768V470.877C283.012 469.858 284.653 469.012 286.675 469.012Z" fill="#85453C"/>
<path d="M317.155 498.651H327.609C328.023 498.651 328.352 498.979 328.352 499.394C328.352 499.808 328.023 500.136 327.609 500.136H317.155C316.74 500.136 316.412 499.808 316.412 499.394C316.412 498.996 316.74 498.651 317.155 498.651Z" fill="#CED1CC" stroke="#1E0E00" stroke-width="0.9955" stroke-miterlimit="10"/>
<path opacity="0.5" d="M320.144 488.754H323.997C325.483 488.754 326.693 489.963 326.693 491.448V507.304C326.693 508.79 322.511 514.334 322.511 514.334C322.511 514.334 317.449 508.807 317.449 507.304V491.448C317.449 489.963 318.658 488.754 320.144 488.754Z" fill="black"/>
<path d="M320.576 488.754H324.429C325.915 488.754 327.125 489.963 327.125 491.448V507.304C327.125 508.79 322.511 514.334 322.511 514.334C322.511 514.334 317.881 508.807 317.881 507.304V491.448C317.881 489.963 319.09 488.754 320.576 488.754Z" fill="#73352D"/>
<path opacity="0.5" d="M315.997 496.664V502.382C315.997 503.867 317.259 505.076 318.831 505.076H325.708C327.263 505.076 328.542 503.867 328.542 502.382V496.664C328.542 495.179 327.28 493.97 325.708 493.97H318.831C317.259 493.97 315.997 495.179 315.997 496.664ZM317.207 496.664C317.207 495.818 317.932 495.127 318.831 495.127H325.708C326.606 495.127 327.332 495.818 327.332 496.664V502.382C327.332 503.228 326.606 503.919 325.708 503.919H318.831C317.932 503.919 317.207 503.228 317.207 502.382V496.664Z" fill="black"/>
<path d="M316.222 496.664V502.382C316.222 503.867 317.483 505.076 319.056 505.076H325.933C327.488 505.076 328.766 503.867 328.766 502.382V496.664C328.766 495.179 327.505 493.97 325.933 493.97H319.056C317.483 493.97 316.222 495.179 316.222 496.664ZM317.431 496.664C317.431 495.818 318.157 495.127 319.056 495.127H325.933C326.831 495.127 327.557 495.818 327.557 496.664V502.382C327.557 503.228 326.831 503.919 325.933 503.919H319.056C318.157 503.919 317.431 503.228 317.431 502.382V496.664Z" fill="#CED1CC"/>
<path d="M322.01 452.724C329.146 452.724 334.935 459.166 334.935 467.941L332.827 468.442L332.326 467.941C332.326 464.296 331.185 460.894 329.129 458.355C327.194 455.971 324.671 455.315 322.01 455.315C319.349 455.315 316.827 455.971 314.891 458.355C312.835 460.894 311.695 464.296 311.695 467.941L309.587 468.442L309.086 467.941C309.086 459.184 314.874 452.724 322.01 452.724Z" fill="#85453C"/>
<path d="M322.494 453.225C329.63 453.225 335.419 459.667 335.419 468.442H332.827C332.827 464.797 331.686 461.395 329.63 458.856C327.695 456.472 325.172 455.816 322.511 455.816C319.85 455.816 317.328 456.472 315.392 458.856C313.336 461.395 312.196 464.797 312.196 468.442H309.604C309.587 459.667 315.358 453.225 322.494 453.225Z" fill="#965549"/>
<path d="M334.33 330.056C334.33 330.056 328.732 334.34 324.948 333.683C321.907 333.148 321.872 329.521 321.872 329.521C321.872 329.521 314.684 345.411 313.699 351.232C312.714 357.053 313.716 391.114 314.407 404.31C314.857 412.894 315.669 435.728 315.669 435.728C315.669 435.728 318.796 438.802 327.436 439.891C334.779 440.823 341.57 436.989 341.57 436.989L334.33 330.056Z" fill="#E3FCFB"/>
<path d="M319.799 421.254C319.868 433.586 319.453 435.486 320.559 443.069C321.509 449.632 341.363 448.458 347.877 448.147C353.648 447.888 372.154 447.318 370.789 441.635C368.784 433.31 368.421 429.735 365.933 416.625C363.756 405.122 361.475 392.703 360.594 386.519C358.711 373.306 357.052 339.452 354.408 337.19C352.663 335.704 346.253 330.816 341.535 327.863C339.082 326.343 337.095 325.324 336.455 325.583C336.11 325.721 335.298 326.654 334.192 328.122C329.181 334.702 318.226 351.992 317.915 355.377C317.794 356.742 317.95 362.925 318.209 371.061C318.745 387.849 319.764 412.946 319.799 421.254Z" fill="#F77B64"/>
<path d="M333.397 438.612C333.397 438.612 331.548 448.25 331.185 452.016C330.805 455.798 330.65 462.638 326.002 462.379C324.844 462.949 323.496 462.69 322.511 462.379C320.524 462.828 320.023 462.517 318.814 462.051C317.414 462.465 315.824 461.205 315.548 460.583C314.926 459.097 317.483 457.819 315.997 456.386C315.064 455.487 314.027 455.366 314.39 453.225C314.649 451.705 320.559 447.3 321.233 445.867C325.224 437.403 327.764 431.444 327.764 431.444L333.397 438.612Z" fill="#FF9E85"/>
<path opacity="0.2" d="M334.14 442.24C338.391 436.782 345.25 431.047 345.25 431.047L356.724 414.829C356.724 414.829 366.918 401.995 365.415 388.402C363.912 374.809 355.445 329.503 347.307 337.362C337.665 346.672 335.332 357.191 337.302 368.055C339.168 378.298 344.058 386.865 342.123 393.86C341.276 396.917 329.319 426.349 321.889 435.469C321.405 436.073 321.457 437.542 325.103 439.994C329.146 442.775 333.743 442.758 334.14 442.24Z" fill="black"/>
<path d="M335.28 447.905C339.531 442.447 347.22 431.047 347.22 431.047L358.693 414.828C358.693 414.828 368.888 401.995 367.385 388.402C365.881 374.809 361.303 327.552 346.615 336.309C331.928 345.066 334.849 358.175 337.302 368.072C339.808 378.177 348.222 387.227 341.57 398.178C339.946 400.855 325.76 428.283 318.313 437.403C317.829 438.008 321.786 441.445 325.432 443.898C329.509 446.627 334.883 448.423 335.28 447.905Z" fill="#8D58D1"/>
<path opacity="0.2" d="M318.209 371.51L330.356 349.246L328.317 342.112H335.004L341.553 327.863L336.801 326.567L334.537 329.106C329.527 335.687 318.572 352.976 318.261 356.362C318.122 357.726 318.209 371.51 318.209 371.51Z" fill="black"/>
<path d="M318.209 371.078L330.01 348.261L327.971 341.128H334.658L341.535 327.863C339.082 326.343 337.095 325.324 336.455 325.583C336.11 325.721 335.298 326.654 334.192 328.122C329.181 334.702 318.226 351.992 317.915 355.377C317.794 356.742 317.95 362.925 318.209 371.078Z" fill="#150329"/>
<path d="M161.541 605.514C160.245 607.155 161.61 617.726 161.092 619.868C160.383 622.908 157.135 626.189 157.653 628.988C158.206 631.976 160.141 632.287 161.23 632.666C162.387 633.064 164.737 633.029 165.878 632.58C167.917 631.786 170.457 630.68 172.167 630.473C178.059 629.765 193.006 635.223 194.734 633.53C195.978 632.304 192.055 629.799 190.241 628.918C188.047 627.848 180.703 623.339 178.232 621.992C176.815 621.215 171.2 619.401 170.509 617.933C168.919 614.548 173.567 605.791 170.612 603.494C168.262 601.68 163.372 603.2 161.541 605.514Z" fill="#FFA47F"/>
<path d="M196.427 634.998L176.314 634.238C176.314 634.238 173.964 633.34 173.377 633.081C171.96 632.459 168.331 632.027 168.331 632.027L167.537 634.169L157.688 634.1C157.688 634.1 157.929 632.217 157.618 631.475C157.618 631.44 157.601 631.388 157.584 631.371C157.117 630.577 156.599 628.694 156.634 627.778C156.668 626.967 157.377 625.481 157.739 624.756C157.999 624.255 158.983 622.908 158.983 622.908C158.983 622.908 161.247 624.445 162.111 624.669C164.824 625.378 165.774 624.825 166.984 624.704C167.83 624.618 169.437 624.134 170.249 623.858C171.286 623.478 173.308 622.476 174.206 621.854C174.794 621.44 176.314 619.885 176.314 619.885C176.314 619.885 183.865 624.652 186.543 625.93C188.79 627.001 195.027 629.091 195.632 629.989C195.839 630.317 196.012 630.87 196.133 631.475C196.289 632.235 196.392 633.081 196.444 633.599C196.462 633.945 196.427 634.998 196.427 634.998Z" fill="#4B5E77"/>
<path d="M196.427 634.998H174.431C174.431 634.998 173.843 633.858 173.187 633.444C171.874 632.615 168.314 632.684 168.314 632.684L168.28 635.033L157.601 634.947C157.601 634.947 157.929 632.2 157.618 631.475C157.618 631.475 177.593 632.148 184.228 632.148C187.286 632.148 196.358 631.475 196.358 631.475C196.513 632.235 196.392 633.081 196.444 633.599C196.461 633.945 196.427 634.998 196.427 634.998Z" fill="#150329"/>
<path d="M221.758 421.806L189.792 400.026L176.815 361.837L181.256 332.163C181.256 332.163 186.25 347.294 187.528 352.355C189.498 360.144 193.697 389.317 193.697 389.317L225.265 409.63L221.758 421.806Z" fill="#A1B2C9"/>
<path d="M180.617 332.457L151.882 323.302L122.041 331.386C122.041 331.386 126.948 371.769 127.812 385.224C128.503 395.915 126.378 423.965 126.378 423.965C126.378 423.965 144.849 428.94 150.603 429.32C156.72 429.717 176.383 427.126 176.383 427.126C176.383 427.126 175.381 392.15 176.09 380.197C176.798 368.193 180.617 332.457 180.617 332.457Z" fill="#E4E6ED"/>
<path d="M123.942 603.338C122.715 605.031 124.564 615.532 124.149 617.709C123.579 620.783 120.486 624.203 121.125 626.966C121.816 629.92 123.769 630.162 124.875 630.473C126.05 630.818 128.4 630.68 129.506 630.179C131.51 629.281 131.89 630.784 133.583 630.507C139.441 629.54 139.562 627.588 137.851 623.287C137.247 621.785 134.205 616.759 133.463 615.325C131.717 612.009 135.951 603.062 132.91 600.903C130.491 599.193 125.67 600.937 123.942 603.338Z" fill="#FFA47F"/>
<path d="M123.026 619.107C123.026 619.107 135.657 618.434 136.314 619.332C137.644 621.197 138.56 623.322 139.044 625.567C139.51 627.744 139.89 630.455 138.75 632.476C138.128 633.582 135 632.58 129.056 633.081C121.817 633.685 119.467 633.875 119.363 631.302C119.259 628.987 119.622 626.638 120.365 624.445C120.728 623.356 121.212 622.355 121.782 621.37C121.903 621.094 122.75 619.125 123.026 619.107Z" fill="#4B5E77"/>
<path d="M174.224 614.099C175.174 614.081 176.038 559.622 176.124 556.098C176.798 529.534 177.437 502.969 178.042 476.404C178.163 471.257 176.643 426.107 177.057 426.073C177.057 426.073 156.495 427.351 149.653 426.919C143.657 426.556 125.963 423.24 125.791 423.205C121.454 422.394 119.121 493.849 119.035 497.355C118.585 519.343 118.706 541.348 119.397 563.335C119.726 574.044 119.95 584.822 120.832 595.496C121.281 600.937 123.233 608.053 122.369 613.511H135.605C137.713 613.511 141.1 554.578 141.532 549.431C142.793 533.938 144.072 518.445 145.333 502.951C146.474 489.03 146.076 474.02 148.927 460.358C147.977 464.901 151.484 496.06 152.366 506.13C155.51 541.849 157.169 577.723 158.863 613.529L174.224 614.099Z" fill="#150329"/>
<path d="M177.472 446.195C177.472 446.195 172.496 444.606 169.455 443.051C164.582 440.564 160.469 433.724 160.469 433.724L164.858 432.722C164.858 432.722 165.532 435.918 171.545 439.614C174.206 441.255 177.386 442.136 177.386 442.136L177.472 446.195Z" fill="#01729C"/>
<path d="M128.02 424.864L126.827 430.788L128.434 431.099" fill="#404052"/>
<path d="M173.888 433.933L175.523 433.791L174.999 427.785L173.364 427.928L173.888 433.933Z" fill="#004061"/>
<path d="M169.316 296.841C169.99 286.012 167.105 278.377 156.945 278.377C144.815 278.377 143.052 284.682 142.914 295.028C142.551 294.734 142.137 294.579 141.722 294.63C140.443 294.751 139.545 296.599 140.201 298.828C140.823 300.952 141.48 302.075 142.517 302.576C142.707 302.662 143.121 302.783 143.381 302.558C143.553 303.595 143.847 304.579 144.193 305.547L143.692 323.302C143.692 324.65 141.238 326.187 141.238 326.187C141.238 326.187 148.703 335.928 151.709 335.928C154.56 335.928 161.143 326.101 161.143 326.101C161.143 326.101 159.45 325.6 159.45 323.32V318.535C159.675 318.553 159.899 318.57 160.124 318.57C166.621 318.57 167.45 310.175 169.316 304.769C169.973 302.835 170.111 299.847 169.316 296.841Z" fill="#FFA677"/>
<path d="M122.577 439.355C122.577 439.39 122.577 439.424 122.594 439.459L122.629 439.631L123.112 441.842C123.475 441.687 123.873 441.531 124.287 441.341C124.305 441.341 124.305 441.341 124.322 441.324C124.339 441.324 124.339 441.324 124.357 441.307C124.564 441.22 124.771 441.134 124.979 441.048C125.013 441.03 125.03 441.031 125.065 441.013L124.961 439.891C124.927 439.718 123.804 438.82 123.665 438.733C123.51 438.63 123.337 438.595 123.147 438.63C122.784 438.716 122.56 439.027 122.577 439.355Z" fill="#FD987C"/>
<path d="M122.404 439.165C122.404 439.165 122.456 439.234 122.559 439.355C122.715 439.545 122.974 439.839 123.302 440.219L123.32 440.236C123.596 440.564 123.942 440.944 124.287 441.341C124.305 441.341 124.305 441.341 124.322 441.324C124.529 441.238 124.737 441.151 124.944 441.065C124.979 441.048 124.996 441.048 125.03 441.03C125.134 440.996 125.238 440.944 125.341 440.892C125.549 440.806 125.773 440.719 125.981 440.616C126.015 440.599 126.033 440.599 126.067 440.581C126.084 440.581 126.084 440.564 126.102 440.564C126.154 440.547 126.188 440.529 126.24 440.512L124.633 438.232C124.581 438.18 123.855 438.336 123.804 438.301C123.51 438.094 123.095 438.129 122.819 438.388C122.49 438.716 122.11 438.837 122.404 439.165Z" fill="#FD987C"/>
<path d="M135.087 435.797C135.346 435.745 135.467 436.16 135.605 436.781C135.743 437.403 135.64 437.956 135.398 438.008C135.139 438.059 134.828 437.593 134.707 436.971C134.551 436.35 134.828 435.849 135.087 435.797Z" fill="#FCB392"/>
<path d="M113.868 426.435C113.989 426.971 114.732 427.575 116.097 429.199C118.032 431.513 118.274 432.809 118.62 433.431C120.019 436.039 120.313 436.522 121.402 438.215C121.73 438.733 122.197 439.217 122.646 439.631C122.888 439.856 123.13 440.046 123.337 440.201C123.596 440.409 123.804 440.529 123.873 440.564C124.322 440.737 124.564 440.961 124.961 441.065C124.996 441.048 125.013 441.048 125.048 441.03C125.151 440.996 125.255 440.944 125.359 440.892C125.411 440.685 125.393 440.357 125.704 440.339C125.739 440.339 125.773 440.339 125.825 440.339C125.86 440.339 125.894 440.357 125.929 440.357C125.929 440.357 125.998 440.426 126.119 440.564C126.171 440.547 126.205 440.529 126.257 440.512C126.845 440.27 127.398 440.029 127.916 439.804C127.933 439.804 127.933 439.787 127.951 439.787C128.452 439.579 128.884 439.389 129.229 439.234C129.661 439.044 130.059 438.854 130.439 438.647C130.56 438.578 130.698 438.509 130.802 438.44C130.75 438.353 130.715 438.284 130.681 438.18C130.041 436.816 128.814 435.21 129.471 434.588C130.335 433.776 130.646 434.294 131.493 434.622C131.631 434.674 131.804 434.709 131.959 434.761C132.236 434.847 132.512 434.933 132.616 435.106C132.633 435.227 132.65 435.331 132.668 435.451C132.72 435.693 132.771 435.918 132.875 436.177C132.944 436.332 133.013 436.488 133.117 436.66C133.134 436.695 133.151 436.712 133.169 436.747C133.739 437.714 134.465 438.301 134.828 438.232C135.087 438.18 135.277 438.094 135.415 437.956C135.553 437.818 135.64 437.645 135.657 437.438V437.42C135.691 437.196 135.657 436.937 135.588 436.643C135.588 436.626 135.588 436.609 135.571 436.591C135.519 436.367 135.432 436.125 135.329 435.883C135.173 435.469 134.983 435.054 134.81 434.64C134.689 434.346 134.568 434.052 134.482 433.793C134.482 433.776 134.465 433.741 134.465 433.724C134.43 433.621 134.396 433.534 134.378 433.431C134.378 433.413 134.361 433.396 134.361 433.361L134.344 433.344C134.292 433.292 134.223 433.223 134.171 433.171C134.154 433.154 134.119 433.137 134.102 433.102C133.048 432.135 132.288 431.911 131.389 431.41C131.234 431.323 131.078 431.22 130.905 431.116C130.75 431.012 130.594 430.909 130.439 430.788C128.935 429.631 129.713 430.149 128.089 429.043C127.208 428.439 125.134 428.145 124.201 427.696C123.665 427.454 122.024 424.553 120.918 422.894C120.486 422.273 120.14 421.824 119.968 421.772C119.069 421.547 118.274 421.513 117.756 421.806C115.302 423.188 113.16 423.447 113.868 426.435Z" fill="#FF9E85"/>
<path opacity="0.3" d="M133.774 433.621C133.86 433.482 133.964 433.361 134.05 433.241C134.067 433.223 134.067 433.206 134.085 433.189C134.102 433.206 134.136 433.223 134.154 433.258C134.119 433.31 133.601 433.88 133.618 433.88C133.601 433.845 133.756 433.638 133.774 433.621Z" fill="#1C1C1B"/>
<path opacity="0.3" d="M133.964 433.69C134.085 433.586 134.205 433.5 134.326 433.396L134.344 433.413C134.344 433.431 134.361 433.448 134.361 433.482C134.188 433.586 133.722 433.88 133.739 433.88C133.722 433.862 133.946 433.707 133.964 433.69Z" fill="#1C1C1B"/>
<path opacity="0.3" d="M134.188 433.914C134.275 433.862 134.361 433.81 134.465 433.776C134.465 433.793 134.482 433.828 134.482 433.845C134.257 433.931 133.946 434.052 133.929 434.07C133.929 434.035 134.154 433.931 134.188 433.914Z" fill="#1C1C1B"/>
<path opacity="0.5" d="M127.501 439.528C127.536 439.545 127.553 439.562 127.57 439.579C127.588 439.597 127.605 439.614 127.64 439.631C127.691 439.666 127.743 439.718 127.812 439.769C127.847 439.787 127.864 439.821 127.899 439.856C127.916 439.856 127.916 439.838 127.933 439.838C127.899 439.804 127.864 439.787 127.83 439.752C127.76 439.7 127.709 439.666 127.657 439.631C127.639 439.614 127.605 439.597 127.588 439.597C127.57 439.579 127.553 439.579 127.536 439.562C127.519 439.528 127.501 439.528 127.501 439.528Z" fill="#1C1C1B"/>
<path opacity="0.5" d="M125.048 439.752C125.272 439.942 125.48 440.149 125.704 440.357C125.808 440.443 125.894 440.547 125.998 440.633C126.033 440.616 126.05 440.616 126.084 440.599C126.067 440.581 126.05 440.564 126.033 440.547C125.963 440.478 125.894 440.409 125.825 440.357C125.566 440.132 125.324 439.908 125.048 439.752Z" fill="#1C1C1B"/>
<path opacity="0.5" d="M123.32 440.219L123.337 440.236C123.475 440.426 123.631 440.616 123.786 440.788C123.942 440.978 124.097 441.168 124.27 441.358C124.287 441.358 124.287 441.358 124.305 441.341C124.322 441.341 124.322 441.341 124.339 441.324C124.218 441.186 124.097 441.03 123.959 440.892C123.752 440.685 123.544 440.443 123.32 440.219Z" fill="#1C1C1B"/>
<path d="M114.957 429.665L107.924 410.286C107.924 410.286 101.393 392.91 101.514 386.709C101.617 380.871 108.253 365.274 108.253 365.274L122.024 337.207L125.531 355.93L118.585 372.598L112.745 386.606L117.739 406.054L122.75 425.555L114.957 429.665Z" fill="#22CDC6"/>
<path d="M197.308 387.383C197.274 387.348 197.239 387.314 197.239 387.262C196.928 385.846 192.004 363.512 190.12 357.001C188.168 350.23 181.826 333.165 181.308 331.766C181.291 331.714 181.239 331.662 181.17 331.645L162.128 326.014C162.111 326.014 162.094 326.014 162.076 326.014L139.545 325.721C139.527 325.721 139.51 325.721 139.493 325.721L120.451 331.058C120.382 331.075 120.331 331.127 120.313 331.179C119.743 332.785 112.434 353.65 109.548 360.283C106.836 366.518 101.151 377.468 100.823 384.256C100.529 390.025 104.157 402.548 105.92 408.04C107.371 412.548 110.672 425.675 111.138 427.541C111.173 427.662 111.294 427.731 111.397 427.679C111.397 427.679 121.834 423.948 121.799 424.104C121.039 429.458 119.985 435.02 118.533 440.201C115.406 451.359 114.404 459.184 114.266 460.306C114.248 460.393 114.3 460.479 114.369 460.514C118.741 462.724 125.601 464.244 131.061 463.968C131.061 463.968 131.061 463.968 131.078 463.968L146.923 464.193C147.026 464.193 147.113 464.106 147.13 464.003L148.668 440.754C148.685 440.512 149.048 440.495 149.065 440.754L150.949 464.072C150.949 464.175 151.035 464.262 151.156 464.262L169.886 464.521C170.923 464.607 179.234 464.106 182.466 462.534C182.552 462.5 182.587 462.414 182.569 462.31C182.224 460.358 178.509 439.58 178.129 427.644C177.455 406.02 177.869 404.396 178.129 398.869C178.232 396.589 178.215 391.511 178.336 385.155C178.336 384.913 183.347 402.168 187.338 404.24C200.747 411.236 217.369 420.77 219.512 421.996C219.633 422.065 219.771 421.996 219.805 421.875L223.261 408.179C223.278 408.109 223.261 408.023 223.192 407.971L197.308 387.383ZM116.892 385.794C116.892 385.759 116.892 385.725 116.909 385.69L122.473 370.283C122.542 370.076 122.853 370.128 122.871 370.352C123.268 382.806 123.302 394.499 123.493 398.299C123.631 401.27 123.527 408.472 122.68 417.022C122.646 417.264 116.892 385.794 116.892 385.794Z" fill="#BF9AED"/>
<path d="M162.353 326.118C162.353 326.118 155.787 328.087 150.379 328.087C145.005 328.087 138.698 326.118 138.698 326.118L141.221 322.923C141.221 322.923 145.178 322.439 150.655 322.439C156.824 322.439 159.502 322.439 159.502 322.439L162.353 326.118Z" fill="#22CDC6"/>
<path d="M173.256 277.013C172.547 275.027 171.269 273.247 169.696 271.831C166.327 268.843 161.8 267.72 157.428 267.392C152.919 267.047 148.409 269.033 145.212 272.142C143.121 274.18 141.48 276.702 140.53 279.465C138.594 285.131 139.199 291.867 139.683 297.74C140.184 304.009 141.29 312.956 144.331 314.753C147.994 316.912 156.513 319.157 159.208 314.373C159.83 313.25 160.124 311.989 160.539 310.78C161.264 308.656 162.422 306.6 162.422 304.355C162.422 303.422 162.215 302.489 162.163 301.539C162.111 300.607 162.232 299.605 162.802 298.845C163.165 298.361 163.77 298.016 164.375 297.981C164.893 297.964 165.757 298.534 165.688 297.636C165.48 295.339 165.843 292.782 167.675 291.176C168.193 290.727 168.867 290.295 169.541 290.105C170.699 289.794 172.306 290.433 173.1 289.155C173.878 287.894 173.671 285.494 173.809 284.06C173.999 282.056 174.085 280.001 173.601 278.032C173.498 277.704 173.377 277.358 173.256 277.013Z" fill="#4A474E"/>
<path d="M138.646 632.494H119.622V636.017H138.646V632.494Z" fill="#150329"/>
<path opacity="0.2" d="M123.182 370.283C122.991 370.283 122.819 370.128 122.801 369.938L120.365 338.295C120.348 338.088 120.503 337.915 120.711 337.898C120.918 337.88 121.091 338.036 121.108 338.243L123.544 369.886C123.562 370.093 123.406 370.266 123.199 370.283C123.199 370.283 123.199 370.283 123.182 370.283Z" fill="black"/>
<path opacity="0.2" d="M178.059 385.293H178.042C177.835 385.276 177.679 385.103 177.697 384.896L180.254 343.338C180.271 343.131 180.444 342.976 180.651 342.993C180.859 343.01 181.014 343.183 180.997 343.39L178.44 384.947C178.422 385.137 178.267 385.293 178.059 385.293Z" fill="black"/>
<g opacity="0.2">
<path d="M122.093 425.52C122.283 425.52 122.439 425.382 122.473 425.192L123.441 416.711C123.458 416.504 123.32 416.314 123.112 416.297C122.905 416.279 122.715 416.418 122.698 416.625L121.73 425.105C121.713 425.313 121.851 425.503 122.058 425.52C122.076 425.52 122.076 425.52 122.093 425.52Z" fill="black"/>
</g>
</g>
<defs>
<linearGradient id="paint0_linear_144_91" x1="-1106.2" y1="608.736" x2="15368.3" y2="608.736" gradientUnits="userSpaceOnUse">
<stop stop-color="#1DD3C6"/>
<stop offset="0.3611" stop-color="#835ED2"/>
<stop offset="0.6869" stop-color="#F51BC9"/>
<stop offset="1" stop-color="#ED7660"/>
</linearGradient>
<linearGradient id="paint1_linear_144_91" x1="-476.669" y1="400.774" x2="3285.78" y2="400.774" gradientUnits="userSpaceOnUse">
<stop stop-color="#1DD3C6"/>
<stop offset="0.3611" stop-color="#835ED2"/>
<stop offset="0.6869" stop-color="#F51BC9"/>
<stop offset="1" stop-color="#ED7660"/>
</linearGradient>
<clipPath id="clip0_144_91">
<rect width="706" height="636" fill="white"/>
</clipPath>
</defs>
</svg>
