<svg width="640" height="639" viewBox="0 0 640 639" fill="none" xmlns="http://www.w3.org/2000/svg">
<path opacity="0.15" d="M631.402 241.838C602.778 97.0213 458.715 13.0223 337.405 1.88524C236.889 -7.36653 113.342 15.9898 57.0379 108.787C22.5424 165.659 65.1113 190.691 41.2406 316.585C20.5853 425.511 -15.5528 464.543 7.33931 520.054C26.0724 565.44 69.8644 586.911 97.8592 600.631C208.161 654.711 447.566 658.69 568.213 560.028C596.418 536.951 663.766 405.646 631.402 241.838Z" fill="#8D58D1"/>
<path d="M146.23 205.668C146.16 205.668 146.055 205.668 145.985 205.633C145.356 205.494 144.971 204.865 145.111 204.272L165.732 109.939C169.296 93.5649 178.488 78.6225 191.559 67.7997C204.631 57.0118 221.022 50.7974 237.763 50.3435H237.798C238.427 50.3435 238.951 50.8323 238.951 51.4607C238.986 52.0891 238.462 52.6477 237.833 52.6477C204.491 53.5904 175.098 77.8893 168.003 110.428L147.383 204.761C147.243 205.284 146.754 205.668 146.23 205.668Z" fill="#8D58D1"/>
<path d="M309.48 199.489C309.445 199.489 309.41 199.489 309.41 199.489C308.781 199.454 308.292 198.895 308.327 198.267L313.185 131.445C314.687 110.847 307.767 91.191 293.683 76.074C285.784 67.5903 276.417 61.3061 265.828 57.2912C265.233 57.0817 264.919 56.3834 265.164 55.7899C265.373 55.1964 266.072 54.8822 266.666 55.1266C277.606 59.2462 287.287 65.7399 295.395 74.468C309.899 90.0738 317.064 110.358 315.491 131.585L310.633 198.407C310.598 199.035 310.109 199.489 309.48 199.489Z" fill="#99B9FF"/>
<path d="M116.557 596.093L2.48145 551.265C1.57276 550.916 1.08346 550.009 1.25821 549.066L76.8196 182.277L111.035 178.681C111.595 178.262 116.767 596.198 116.557 596.093Z" fill="#22CDC6"/>
<path d="M116.557 597.245C116.418 597.245 116.278 597.21 116.138 597.175L2.0619 552.348C0.663908 551.824 -0.174886 550.323 0.139662 548.856L75.701 182.068C75.8059 181.579 76.2253 181.195 76.7146 181.16L110.93 177.564C111.245 177.529 111.56 177.634 111.839 177.843C112.328 178.262 112.328 178.262 112.643 196.731C112.818 207.658 113.062 223.578 113.377 244.037C114.041 289.702 114.775 347.203 115.299 387.422C115.928 437.87 116.592 490.099 117.082 530.772C117.85 596.267 117.85 596.267 117.606 596.686C117.326 597.035 116.942 597.245 116.557 597.245ZM77.798 183.359L2.37645 549.31C2.30655 549.694 2.51625 550.078 2.86574 550.218L115.369 594.417C115.194 566.976 110.791 203.225 109.952 179.973L77.798 183.359Z" fill="black"/>
<path d="M409.646 183.359L112.678 179.275L118.514 593.055L519.143 590.227L409.646 183.359Z" fill="white"/>
<path d="M116.208 595.848C115.823 595.499 115.614 595.01 115.614 594.487L109.812 180.706C109.812 180.182 110.022 179.659 110.371 179.31C110.756 178.926 111.28 178.716 111.769 178.751L405.417 183.429C408.143 183.464 410.485 185.315 411.184 187.933L516.627 589.704L117.571 596.407H117.536C117.047 596.407 116.557 596.197 116.208 595.848Z" fill="white"/>
<path d="M117.606 597.559C116.732 597.559 115.963 597.245 115.404 596.686C114.81 596.128 114.46 595.325 114.46 594.487L108.659 180.741C108.659 179.903 108.973 179.1 109.567 178.507C110.162 177.913 110.965 177.599 111.804 177.599L250.695 179.833C251.324 179.833 251.848 180.357 251.848 181.02C251.848 181.649 251.324 182.137 250.66 182.172L111.734 179.938C111.525 179.938 111.315 180.008 111.175 180.182C111.035 180.322 110.93 180.532 110.93 180.741L116.732 594.522C116.732 594.731 116.837 594.941 116.977 595.08C117.117 595.22 117.326 595.29 117.536 595.29L250.52 592.951C251.149 592.916 251.673 593.439 251.708 594.103C251.708 594.731 251.219 595.255 250.555 595.29L117.606 597.559Z" fill="black"/>
<path d="M344.01 209.613C344.01 202.282 349.987 196.312 357.326 196.312C364.666 196.312 370.642 202.282 370.642 209.613C370.642 216.945 364.666 222.915 357.326 222.915C349.987 222.915 344.01 216.945 344.01 209.613Z" fill="#22CDC6"/>
<path d="M184.395 209.613C184.395 202.282 190.371 196.312 197.71 196.312C205.05 196.312 211.026 202.282 211.026 209.613C211.026 216.945 205.05 222.915 197.71 222.915C190.371 222.915 184.395 216.945 184.395 209.613Z" fill="#22CDC6"/>
<path d="M334.015 218.062C333.421 218.062 332.896 217.608 332.862 217.015L324.369 114.058C315.981 74.9916 294.207 52.5779 264.605 52.5779C244.369 52.5779 225.636 60.887 211.865 76.004C198.095 91.1211 191.28 110.777 192.748 131.375L198.48 209.439C198.515 210.067 198.06 210.626 197.396 210.661C196.767 210.731 196.208 210.242 196.173 209.579L190.476 131.584C188.973 110.358 195.963 90.0737 210.188 74.4679C224.412 58.8621 243.74 50.2737 264.64 50.2737C295.465 50.2737 318.078 73.3856 326.675 113.64C326.675 113.674 326.675 113.744 326.71 113.779L335.168 216.84C335.203 217.469 334.749 218.027 334.12 218.097C334.085 218.062 334.05 218.062 334.015 218.062Z" fill="#22CDC6"/>
<path d="M19.5366 543.654C19.1521 543.654 18.7677 543.445 18.523 543.096C18.2085 542.537 18.3832 541.839 18.9424 541.525L70.668 511.395C70.8778 511.256 71.0525 511.046 71.0525 510.767L88.073 213.209C88.108 212.581 88.6672 212.057 89.2963 212.127C89.9254 212.162 90.4147 212.721 90.3797 213.349L73.3592 510.942C73.2893 511.989 72.6951 512.897 71.8214 513.42L20.0957 543.55C19.921 543.62 19.7113 543.654 19.5366 543.654Z" fill="black"/>
<path d="M262.368 614.073L285.016 609.639C280.612 603.983 279.459 597.594 280.507 585.968L266.422 585.2L262.368 614.073Z" fill="white"/>
<path d="M261.005 615.504L265.409 583.943L281.765 584.851L281.66 586.038C280.612 597.559 281.73 603.529 285.924 608.906L287.077 610.372L261.005 615.504ZM267.401 586.387L263.731 612.641L283.023 608.871C279.493 603.599 278.445 597.35 279.249 587.085L267.401 586.387Z" fill="black"/>
<path d="M261.599 602.098C260.516 605.519 258.069 615.12 257.021 620.95C256.357 624.581 258.524 628.177 262.053 629.26C272.014 632.402 296.095 633.275 316.086 634.985C317.449 635.09 320 634.531 321.258 631.284C325.557 620.078 304.133 615.783 283.548 603.18C283.548 603.18 282.254 604.158 280.367 605.03C277.222 606.497 272.189 606.043 269.288 604.123L264.605 601.05C263.486 600.317 261.984 600.841 261.599 602.098Z" fill="#8D58D1"/>
<path d="M316.4 636.137C316.261 636.137 316.086 636.137 315.946 636.102C310.843 635.649 305.356 635.265 300.079 634.915C284.177 633.798 269.183 632.716 261.634 630.342C257.545 629.05 255.029 624.93 255.798 620.706C256.881 614.911 259.292 605.275 260.446 601.714C260.76 600.771 261.459 600.038 262.403 599.689C263.347 599.375 264.36 599.479 265.199 600.038L269.882 603.11C272.503 604.856 277.082 605.205 279.843 603.913C281.59 603.11 282.814 602.203 282.814 602.203L283.443 601.749L284.107 602.168C290.468 606.043 296.933 609.15 302.63 611.908C315.492 618.088 325.627 622.975 322.272 631.669C321.049 635.02 318.427 636.137 316.4 636.137ZM262.683 602.447C261.564 605.903 259.153 615.574 258.139 621.16C257.58 624.197 259.397 627.235 262.403 628.177C269.673 630.447 285.26 631.564 300.289 632.646C305.566 633.03 311.053 633.414 316.191 633.833C316.645 633.868 319.022 633.903 320.175 630.866C322.621 624.442 315.142 620.497 301.687 614.003C296.13 611.315 289.839 608.312 283.583 604.542C282.988 604.926 282.045 605.519 280.856 606.043C277.396 607.649 271.944 607.195 268.659 605.065L263.976 601.993C263.766 601.853 263.486 601.819 263.207 601.888C263.067 601.958 262.787 602.098 262.683 602.447Z" fill="black"/>
<path d="M256.287 623.569C256.252 623.674 256.252 623.743 256.252 623.778C255.588 627.409 258.524 628.98 261.809 630.691C271.735 635.823 313.639 635.125 313.639 635.125C313.639 635.125 319.196 635.509 320.839 632.262C321.084 631.773 321.363 631.494 321.468 630.866C321.573 630.202 321.643 627.863 321.643 627.863C300.708 630.097 287.112 629.085 268.344 624.616C266.003 624.058 259.048 621.788 257.056 620.636C257.021 620.671 256.776 621.509 256.287 623.569Z" fill="white"/>
<path d="M308.047 636.312C296.199 636.312 269.218 635.858 261.25 631.703C257.964 629.993 254.26 628.073 255.098 623.569C255.098 623.534 255.133 623.429 255.168 623.324C255.658 621.265 255.902 620.392 255.902 620.357C256.007 620.008 256.252 619.728 256.566 619.589C256.881 619.449 257.265 619.484 257.58 619.659C259.467 620.741 266.317 622.975 268.589 623.534C287.846 628.107 301.197 628.91 321.503 626.746C321.852 626.711 322.167 626.816 322.412 627.06C322.656 627.304 322.796 627.619 322.761 627.968C322.761 628.212 322.656 630.377 322.551 631.075C322.447 631.738 322.202 632.192 321.992 632.541C321.922 632.646 321.887 632.716 321.817 632.856C319.895 636.591 314.233 636.382 313.534 636.347C313.115 636.277 311.088 636.312 308.047 636.312ZM257.79 622.312C257.685 622.731 257.58 623.22 257.405 623.848L257.37 623.988C256.881 626.676 258.908 627.898 262.333 629.644C271.909 634.601 313.185 633.938 313.604 633.938C313.639 633.938 313.674 633.938 313.709 633.938C315.037 634.043 318.742 633.798 319.79 631.703C319.86 631.564 319.965 631.424 320.035 631.284C320.21 631.005 320.28 630.9 320.28 630.691C320.315 630.447 320.35 629.818 320.385 629.155C300.533 631.18 287.147 630.272 268.03 625.768C266.003 625.28 260.69 623.569 257.79 622.312Z" fill="black"/>
<path d="M285.26 613.863C284.911 613.863 284.526 613.689 284.316 613.375C283.967 612.851 284.072 612.118 284.596 611.769L290.852 607.405C291.376 607.056 292.11 607.16 292.46 607.684C292.809 608.208 292.704 608.941 292.18 609.29L285.924 613.654C285.714 613.794 285.505 613.863 285.26 613.863Z" fill="black"/>
<path d="M293.229 617.494C292.844 617.494 292.495 617.32 292.285 617.005C291.936 616.482 292.04 615.749 292.6 615.399L298.087 611.629C298.611 611.28 299.345 611.385 299.694 611.943C300.044 612.467 299.939 613.2 299.38 613.549L293.893 617.32C293.683 617.424 293.438 617.494 293.229 617.494Z" fill="black"/>
<path d="M341.25 610.232L357.152 615.26L365.47 606.567C356.418 601.923 359.144 592.392 359.424 586.317L343.382 585.654L341.25 610.232Z" fill="white"/>
<path d="M357.467 616.586L339.992 611.07L342.263 584.432L360.577 585.2L360.542 586.352C360.507 587.33 360.402 588.412 360.298 589.529C359.738 595.36 359.074 601.993 365.994 605.554L367.357 606.252L357.467 616.586ZM342.473 609.429L356.803 613.968L363.583 606.846C356.698 602.412 357.432 594.906 357.991 589.32C358.061 588.657 358.131 588.028 358.166 587.435L344.395 586.841L342.473 609.429Z" fill="black"/>
<path d="M338.943 605.205C338.314 608.975 337.265 616.028 337.056 622.347C336.916 626.327 339.782 629.748 343.696 630.342C354.74 632.052 379.799 634.252 401.223 632.82C402.691 632.716 405.313 631.703 406.116 628.072C408.912 615.539 386.649 612.083 362.884 602.063L358.585 606.043C356.313 608.137 352.993 608.696 350.197 607.404L341.949 603.634C340.656 603.005 339.153 603.808 338.943 605.205Z" fill="#8D58D1"/>
<path d="M386.265 634.426C369.21 634.426 352.364 632.855 343.487 631.459C338.978 630.761 335.693 626.816 335.867 622.277C336.112 615.853 337.161 608.696 337.79 604.995C337.964 603.948 338.594 603.11 339.502 602.621C340.411 602.133 341.494 602.098 342.438 602.552L350.686 606.322C353.098 607.439 355.894 606.985 357.816 605.17L362.639 600.701L363.338 600.98C369.245 603.459 375.221 605.624 380.463 607.474C396.715 613.305 409.577 617.878 407.235 628.282C406.361 632.227 403.495 633.798 401.293 633.938C396.4 634.322 391.333 634.426 386.265 634.426ZM341.04 604.542C340.865 604.542 340.726 604.576 340.586 604.646C340.306 604.786 340.131 605.065 340.061 605.379C339.467 609.01 338.419 616.063 338.174 622.382C338.069 625.733 340.481 628.666 343.836 629.19C355.23 630.935 379.869 633.065 401.119 631.668C401.608 631.634 404.194 631.284 404.963 627.793C406.815 619.379 395.422 615.295 379.66 609.639C374.592 607.823 368.86 605.763 363.093 603.389L359.354 606.846C356.732 609.29 352.923 609.883 349.673 608.382L341.425 604.611C341.355 604.576 341.215 604.542 341.04 604.542Z" fill="black"/>
<path d="M337.091 621.404C337.091 621.404 337.056 622.032 337.056 622.347C336.916 626.327 339.782 629.748 343.696 630.342C354.74 632.052 379.799 634.252 401.223 632.82C402.691 632.716 405.313 631.703 406.116 628.072C406.361 626.955 406.291 624.93 406.291 624.93L404.788 624.965C383.154 625.489 361.486 624.441 340.026 621.788L337.091 621.404Z" fill="white"/>
<path d="M386.265 634.426C369.21 634.426 352.364 632.855 343.487 631.459C338.978 630.761 335.693 626.815 335.867 622.277C335.867 621.963 335.902 621.299 335.902 621.299C335.902 620.985 336.077 620.671 336.322 620.461C336.566 620.252 336.881 620.147 337.196 620.182L340.096 620.531C361.451 623.15 383.189 624.232 404.719 623.708L406.221 623.673C406.85 623.673 407.375 624.162 407.41 624.791C407.41 625 407.48 627.025 407.235 628.247C406.361 632.192 403.495 633.763 401.293 633.903C396.4 634.322 391.333 634.426 386.265 634.426ZM338.174 622.696C338.209 625.943 340.586 628.701 343.836 629.19C355.23 630.935 379.869 633.065 401.119 631.668C401.608 631.633 404.194 631.284 404.963 627.793C405.068 627.339 405.103 626.676 405.103 626.082H404.753C383.12 626.606 361.276 625.559 339.817 622.905L338.174 622.696Z" fill="black"/>
<path d="M368.196 617.25C367.882 617.25 367.602 617.145 367.357 616.901C366.903 616.447 366.903 615.714 367.357 615.26L375.221 607.509C375.675 607.055 376.409 607.055 376.864 607.509C377.318 607.963 377.318 608.696 376.864 609.15L369 616.901C368.79 617.145 368.511 617.25 368.196 617.25Z" fill="black"/>
<path d="M377.178 619.833C376.898 619.833 376.654 619.728 376.409 619.554C375.92 619.135 375.885 618.402 376.269 617.913L383.294 609.743C383.714 609.255 384.448 609.22 384.937 609.604C385.426 610.023 385.461 610.756 385.077 611.245L378.052 619.414C377.842 619.693 377.493 619.833 377.178 619.833Z" fill="black"/>
<path d="M315.806 423.242C318.218 430.329 327.444 478.054 330.031 496.732C332.372 513.735 337.3 576.437 337.999 588.656C338.069 589.704 338.943 590.542 339.991 590.542H363.023C364.037 590.542 364.911 589.774 365.015 588.761C366.274 576.123 377.073 505.216 375.885 470.967C374.592 433.576 357.816 389.098 354.565 376.844C351.35 364.589 347.331 335.612 347.331 335.612L269.707 347.657C269.707 347.657 259.922 410.464 255.728 448.414C253.875 465.137 253.631 519.39 256.846 548.403C258.943 567.185 260.9 579.195 261.669 585.724C262.018 588.761 264.605 591.031 267.645 591.031H284.701C285.784 591.031 286.693 590.158 286.693 589.075C286.798 581.255 290.153 556.467 295.151 530.946C300.953 501.306 307.418 454.873 310.669 436.16C311.752 429.98 312.661 422.893 313.43 416.155C313.395 416.12 313.395 416.19 315.806 423.242Z" fill="black"/>
<path d="M313.919 422.509C313.884 422.509 313.814 422.509 313.779 422.509C313.15 422.439 312.695 421.88 312.765 421.217C313.29 416.469 313.709 412.14 314.024 408.893C314.618 402.539 317.903 396.743 323.041 392.938C323.565 392.554 324.264 392.659 324.648 393.182C325.033 393.706 324.928 394.404 324.404 394.788C319.79 398.21 316.855 403.412 316.33 409.102C316.016 412.349 315.596 416.713 315.072 421.496C315.002 422.055 314.478 422.509 313.919 422.509Z" fill="#CADDFF"/>
<path d="M266.946 384.873C266.317 384.873 265.793 384.385 265.793 383.756C265.793 383.128 266.282 382.604 266.911 382.569C276.732 382.325 281.346 372.549 282.848 368.36C283.058 367.766 283.722 367.452 284.316 367.662C284.91 367.871 285.225 368.534 285.015 369.128C283.373 373.806 278.235 384.629 266.946 384.873C266.981 384.873 266.981 384.873 266.946 384.873Z" fill="#CADDFF"/>
<path d="M351.979 383.267C351.944 383.267 351.874 383.267 351.839 383.267C339.083 381.836 339.467 367.243 339.467 367.103C339.502 366.475 339.991 365.951 340.655 365.986C341.284 366.021 341.809 366.544 341.774 367.173C341.774 367.696 341.494 379.776 352.119 380.963C352.748 381.033 353.202 381.592 353.132 382.255C353.063 382.848 352.573 383.267 351.979 383.267Z" fill="#CADDFF"/>
<path d="M302.315 191.25L304.097 154.906L330.379 168.592L329.82 191.564C329.576 196.696 325.591 209.334 325.591 209.334C320.139 213.244 312.171 202.596 306.684 198.721L305.425 197.813C303.363 196.347 302.175 193.833 302.315 191.25Z" fill="white"/>
<path d="M323.005 211.359C319.021 211.359 314.687 207.344 310.773 203.713C309.095 202.142 307.488 200.676 306.09 199.663L304.831 198.756C302.385 197.01 301.022 194.182 301.197 191.18L302.979 154.836C303.014 154.452 303.224 154.103 303.573 153.893C303.923 153.684 304.342 153.684 304.692 153.859L330.974 167.544C331.358 167.754 331.603 168.173 331.603 168.592L331.044 191.564C330.799 196.801 326.92 209.125 326.78 209.648C326.71 209.893 326.57 210.102 326.36 210.242C325.242 211.045 324.159 211.359 323.005 211.359ZM305.181 156.756L303.468 191.319C303.329 193.519 304.342 195.614 306.159 196.871L307.418 197.778C308.921 198.861 310.598 200.397 312.346 202.003C316.609 205.948 321.433 210.416 324.683 208.566C325.347 206.402 328.527 195.928 328.737 191.494L329.261 169.255L305.181 156.756Z" fill="black"/>
<path d="M343.032 113.674C335.972 113.186 344.779 120.482 318.742 112.627C308.396 109.485 313.499 121.599 310.808 120.797C300.882 117.829 301.232 117.899 296.339 119.121C293.123 119.924 290.956 125.789 291.516 130.223C292.25 136.053 297.073 137.589 301.197 149.913C304.098 158.572 303.294 163.808 306.789 165.1C310.284 166.427 312.94 161.749 316.889 162.901C321.992 164.367 320.873 173.165 325.801 176.866C328.912 179.205 336.216 180.357 347.96 174.841C349.882 173.933 350.86 171.803 350.336 169.778C349.637 167.16 348.763 163.878 347.645 160.806C342.333 146.178 337.16 142.826 339.082 139.056C342.053 133.295 353.027 136.751 354.915 132.003C356.872 127.151 352.678 114.338 343.032 113.674Z" fill="black"/>
<path d="M318.112 138.497L320.104 142.268C321.048 144.048 321.852 145.864 322.516 147.749C323.774 151.275 326.221 157.28 327.514 160.631C331.743 171.489 345.303 159.759 345.303 159.759L346.282 156.791L348.099 156.093C348.449 155.953 348.763 155.744 349.008 155.464C349.602 154.731 349.602 153.754 349.113 153.021C346.457 149.041 340.934 140.103 339.012 132.143C338.977 132.143 327.514 129.071 318.112 138.497Z" fill="white"/>
<path d="M319.231 138.672C319.685 139.37 320.139 140.033 320.524 140.697C320.734 141.046 320.908 141.36 321.118 141.709C321.363 142.128 321.572 142.582 321.782 143.001C322.201 143.874 322.621 144.746 322.97 145.654C323.355 146.562 323.669 147.47 323.984 148.342C325.312 151.869 326.71 155.36 328.108 158.886L328.632 160.213C328.807 160.597 328.947 160.981 329.156 161.33C329.541 162.028 330.03 162.656 330.624 163.11C331.778 164.018 333.42 164.193 335.063 163.878C336.741 163.564 338.383 162.831 339.956 161.958C341.529 161.085 343.066 160.003 344.429 158.886L344.08 159.41C344.395 158.432 344.709 157.42 345.059 156.442V156.407C345.163 156.093 345.408 155.849 345.723 155.709C346.282 155.499 346.876 155.36 347.47 155.185C347.959 155.08 348.204 154.976 348.414 154.627C348.589 154.312 348.554 153.893 348.379 153.579C348.344 153.544 348.344 153.509 348.309 153.474L348.204 153.3L347.959 152.916L347.47 152.148C346.142 150.123 344.884 148.028 343.661 145.899C341.249 141.639 339.082 137.24 337.824 132.387L338.628 133.225C337.859 133.051 336.915 132.911 336.042 132.876C335.133 132.806 334.224 132.806 333.35 132.841C331.533 132.946 329.751 133.26 328.038 133.784C326.326 134.308 324.683 135.041 323.145 135.983C322.376 136.472 321.642 136.961 320.908 137.52C320.559 137.799 320.209 138.078 319.86 138.392L319.685 138.567C319.65 138.602 319.615 138.602 319.58 138.637C319.51 138.637 319.405 138.637 319.231 138.672ZM316.959 138.323C317.134 138.008 317.378 137.694 317.623 137.415C317.763 137.275 317.868 137.136 318.007 136.996L318.217 136.786L318.357 136.647C318.741 136.333 319.091 135.983 319.475 135.669C320.244 135.041 321.083 134.482 321.922 133.924C323.634 132.876 325.452 132.038 327.374 131.48C329.296 130.886 331.288 130.572 333.246 130.502C334.224 130.467 335.238 130.467 336.251 130.537C337.265 130.642 338.208 130.747 339.292 130.991C339.711 131.096 340.026 131.445 340.096 131.829C340.62 134.098 341.389 136.333 342.298 138.532C343.171 140.731 344.22 142.896 345.303 145.026C346.422 147.155 347.61 149.215 348.903 151.24L349.392 152.008L349.637 152.392L349.777 152.602C349.847 152.706 349.882 152.776 349.917 152.881C350.301 153.649 350.301 154.557 349.987 155.325C349.847 155.709 349.602 156.093 349.288 156.407C349.008 156.721 348.589 156.966 348.274 157.105C347.75 157.385 347.191 157.699 346.631 157.908L347.295 157.21C346.981 158.188 346.666 159.2 346.352 160.178C346.282 160.387 346.177 160.562 346.002 160.701C344.464 161.993 342.892 163.11 341.144 164.088C339.432 165.065 337.579 165.903 335.517 166.322C334.504 166.532 333.385 166.602 332.267 166.427C331.149 166.252 330.03 165.833 329.121 165.135C328.178 164.437 327.479 163.529 326.955 162.622C326.675 162.168 326.465 161.679 326.291 161.19L325.766 159.863C324.368 156.337 322.97 152.846 321.642 149.25C321.328 148.342 321.013 147.47 320.664 146.632C320.314 145.794 319.965 144.921 319.545 144.118C319.336 143.699 319.161 143.28 318.916 142.896C318.672 142.407 318.427 141.919 318.182 141.395C317.798 140.313 317.378 139.3 316.959 138.323Z" fill="black"/>
<path d="M320.804 151.589C320.804 151.589 316.05 142.547 312.381 145.549C308.711 148.587 314.198 158.432 320.804 151.589Z" fill="white"/>
<path d="M338.768 153.893C338.593 153.893 338.383 153.893 338.208 153.858C337.37 153.789 336.531 153.125 335.867 152.078C334.678 150.158 334.049 146.562 335.762 142.337C336.076 141.569 336.74 140.906 337.649 140.557C338.698 140.138 339.921 140.173 341.074 140.662C342.612 141.36 343.451 143.001 343.556 145.724C343.73 149.145 343.136 151.45 341.738 152.741C340.934 153.509 339.921 153.893 338.768 153.893ZM339.187 142.582C338.872 142.582 338.663 142.652 338.523 142.721C338.208 142.861 337.999 143.071 337.929 143.21C336.391 147.085 337.3 149.704 337.614 150.402C337.999 151.24 338.383 151.519 338.488 151.554C339.187 151.624 339.746 151.45 340.131 151.065C340.725 150.507 341.389 149.145 341.214 145.829C341.144 144.083 340.76 143.036 340.096 142.756C339.746 142.617 339.467 142.582 339.187 142.582Z" fill="black"/>
<path d="M316.505 145.095C315.911 145.095 315.421 144.677 315.351 144.083C315.281 143.455 315.736 142.861 316.365 142.791L338.453 140.243C339.082 140.173 339.676 140.627 339.746 141.255C339.816 141.884 339.362 142.477 338.733 142.547L316.644 145.095C316.61 145.095 316.575 145.095 316.505 145.095Z" fill="black"/>
<path d="M348.414 151.729C347.96 151.729 347.54 151.484 347.366 151.031C347.121 150.507 347.331 149.878 347.82 149.564C348.414 148.866 349.602 145.061 348.065 142.407C347.82 141.953 347.54 141.849 347.331 141.814C346.317 141.604 344.709 142.547 344.08 143.036C343.556 143.42 342.857 143.315 342.473 142.826C342.088 142.302 342.193 141.604 342.682 141.22C342.962 141.011 345.513 139.125 347.785 139.579C348.764 139.789 349.567 140.382 350.092 141.29C351.874 144.432 350.895 148.098 350.581 149.11C350.127 150.472 349.567 151.345 348.903 151.624C348.729 151.694 348.554 151.729 348.414 151.729Z" fill="black"/>
<path d="M353.552 231.678C353.552 231.678 360.856 261.109 367.776 269.453C374.731 277.762 388.606 287.468 404.928 288.864C404.928 288.864 414.155 288.271 408.353 304.959C407.409 307.682 404.998 309.602 402.132 309.882C389.62 311.173 354.635 312.046 341.04 284.675C324.369 251.054 353.552 231.678 353.552 231.678Z" fill="#8D58D1"/>
<path d="M391.962 311.522C375.465 311.522 351.036 307.438 339.991 285.164C323.076 251.054 352.573 230.875 352.888 230.7C353.202 230.491 353.587 230.456 353.936 230.596C354.286 230.735 354.565 231.015 354.635 231.399C354.705 231.678 361.94 260.69 368.615 268.685C375.186 276.575 388.641 286.281 404.893 287.677C405.452 287.677 408.039 287.747 409.786 290.051C412.023 292.984 411.883 298.116 409.402 305.308C408.318 308.45 405.487 310.685 402.202 310.999C399.476 311.278 395.946 311.522 391.962 311.522ZM352.853 233.633C350.546 235.449 345.688 239.778 342.019 246.236C335.343 257.862 335.378 270.64 342.088 284.186C355.16 310.545 388.362 310.126 402.027 308.729C404.404 308.485 406.466 306.844 407.27 304.575C410.031 296.615 409.227 293.054 408.039 291.483C406.885 289.912 405.103 289.982 404.998 289.982C404.963 289.982 404.893 289.982 404.823 289.982C387.838 288.55 373.788 278.391 366.903 270.186C360.752 262.82 354.531 240.057 352.853 233.633Z" fill="black"/>
<path d="M300.218 187.933C300.218 187.933 295.989 190.342 288.3 196.836C280.612 203.364 268.938 203.713 262.158 219.843C250.345 247.947 253.805 308.311 264.814 338.859C267.016 345.004 265.758 359.283 265.758 359.283L327.339 358.794L335.622 335.123L340.201 358.305L356.452 358.096C356.452 358.096 346.562 306.46 353.552 271.548C356.452 257.094 362.918 233.145 346.597 211.708C342.892 206.821 335.483 198.267 332.197 193.065L328.213 197.045C327.409 197.22 326.57 203.434 325.627 203.609C315.841 205.319 313.045 200.851 306.195 193.624L300.218 187.933Z" fill="#8D58D1"/>
<path d="M265.758 360.435C265.443 360.435 265.129 360.295 264.919 360.051C264.709 359.806 264.605 359.492 264.605 359.178C264.605 359.038 265.828 345.073 263.696 339.243C252.617 308.485 248.982 248.192 261.075 219.389C265.933 207.868 273.237 204.063 279.738 200.711C282.569 199.245 285.26 197.848 287.532 195.928C295.221 189.434 299.45 186.99 299.624 186.886C300.079 186.641 300.638 186.711 300.987 187.06L306.999 192.751C307.768 193.554 308.467 194.287 309.096 194.985C314.443 200.781 317.204 203.748 325.068 202.491C325.312 201.933 325.662 200.606 325.906 199.803C326.466 197.708 326.78 196.521 327.514 196.068L331.359 192.227C331.603 191.983 331.953 191.843 332.302 191.878C332.652 191.913 332.966 192.122 333.141 192.402C335.273 195.753 339.222 200.641 342.717 204.97C344.5 207.205 346.212 209.299 347.471 210.975C363.023 231.434 358.34 253.882 355.264 268.755C355.055 269.802 354.845 270.78 354.67 271.723C347.785 306.006 357.466 357.328 357.571 357.816C357.641 358.165 357.536 358.515 357.326 358.759C357.117 359.038 356.802 359.178 356.453 359.178L340.201 359.387C339.642 359.387 339.187 359.003 339.083 358.445L335.343 339.418L328.458 359.073C328.283 359.527 327.864 359.841 327.374 359.841L265.758 360.435ZM300.079 189.399C298.576 190.342 294.766 192.891 289.069 197.743C286.588 199.838 283.792 201.304 280.821 202.806C274.391 206.122 267.75 209.544 263.242 220.297C251.673 247.808 255.028 308.276 265.898 338.475C267.785 343.747 267.261 354.43 267.016 358.131L326.536 357.642L334.539 334.739C334.714 334.251 335.203 333.936 335.727 333.971C336.252 334.006 336.671 334.39 336.776 334.914L341.145 357.153L355.055 356.978C353.552 348.565 346.073 302.934 352.398 271.339C352.573 270.396 352.783 269.383 353.028 268.336C356.033 253.882 360.577 232.027 345.688 212.407C344.43 210.766 342.752 208.671 340.97 206.471C337.824 202.596 334.329 198.267 332.023 194.881L329.017 197.883C328.982 197.918 328.947 197.953 328.877 197.988C328.668 198.407 328.353 199.629 328.143 200.432C327.444 202.98 327.06 204.551 325.837 204.761C316.47 206.402 312.87 202.491 307.418 196.626C306.789 195.928 306.09 195.195 305.391 194.427L300.079 189.399Z" fill="black"/>
<path d="M407.165 294.416C405.767 296.475 401.433 301.957 406.606 305.343C407.934 306.216 416.042 307.298 418.174 308.346C421.319 309.882 423.661 313.094 428.554 314.909C437.571 318.296 443.198 316.026 447.986 311.104C452.774 306.181 439.388 289.702 429.847 290.54C420.236 291.343 409.227 291.378 407.165 294.416Z" fill="white"/>
<path d="M436.383 317.632C433.831 317.632 431.105 317.074 428.1 315.957C425.059 314.805 422.962 313.164 421.11 311.697C419.886 310.72 418.803 309.882 417.65 309.323C416.706 308.869 414.12 308.346 411.848 307.857C408.738 307.194 406.78 306.775 405.942 306.251C404.334 305.204 403.355 303.877 403.041 302.306C402.412 299.129 404.683 295.917 405.872 294.171L406.186 293.752C408.143 290.855 415.483 290.366 423.976 289.772C425.863 289.633 427.785 289.528 429.637 289.353C437.012 288.725 445.749 297.104 448.755 303.423C450.502 307.054 450.468 310.056 448.72 311.872C445.015 315.747 441.031 317.632 436.383 317.632ZM408.143 295.044L407.829 295.498C406.815 296.964 404.928 299.653 405.382 301.887C405.557 302.865 406.186 303.667 407.27 304.366C407.759 304.68 410.555 305.273 412.372 305.657C415.028 306.216 417.51 306.74 418.698 307.298C420.096 307.962 421.319 308.939 422.578 309.952C424.395 311.383 426.247 312.849 428.938 313.862C436.558 316.69 441.975 315.642 447.112 310.336C448.126 309.288 447.986 307.159 446.728 304.47C443.722 298.151 435.719 291.239 429.917 291.693C428.03 291.867 426.108 291.972 424.22 292.112C417.615 292.53 409.471 293.089 408.143 295.044Z" fill="black"/>
<path d="M414.889 297.139C414.19 295.847 414.574 294.346 415.553 293.229C417.86 290.54 422.683 285.513 426.073 285.827C430.057 286.176 435.16 290.61 433.622 298.221C432.643 303.074 428.275 300.7 427.681 298.78C427.051 296.72 426.143 294.451 425.094 295.393C423.941 296.406 417.51 301.957 414.889 297.139Z" fill="white"/>
<path d="M430.966 302.236C428.974 302.236 427.016 300.63 426.562 299.094C426.108 297.593 425.758 296.859 425.548 296.51C423.836 297.977 420.236 300.665 417.126 300.141C415.728 299.897 414.609 299.059 413.875 297.662C413.002 296.057 413.316 294.032 414.679 292.461C417.894 288.725 422.508 284.326 426.178 284.64C428.659 284.85 431.175 286.316 432.853 288.585C434.251 290.471 435.719 293.682 434.74 298.431C434.076 301.712 432.014 302.166 431.14 302.201C431.105 302.236 431.036 302.236 430.966 302.236ZM425.583 293.997C425.758 293.997 425.898 294.032 426.073 294.067C427.156 294.381 427.96 295.638 428.799 298.431C428.974 299.024 430.057 299.967 431.071 299.932C431.77 299.897 432.259 299.234 432.503 297.977C433.307 294.067 432.154 291.483 431.036 289.982C429.742 288.271 427.82 287.119 426.003 286.944C423.976 286.77 420.411 289.388 416.462 293.962C415.902 294.625 415.448 295.638 415.937 296.545C416.357 297.313 416.881 297.732 417.58 297.837C419.467 298.151 422.333 296.301 424.395 294.485C424.71 294.171 425.129 293.997 425.583 293.997Z" fill="black"/>
<path d="M335.762 258.805C325.487 233.005 314.443 208.846 301.616 188.596C310.913 195.195 318.811 204.482 330.17 196.766C333.281 215.2 337.894 237.369 335.762 258.805Z" fill="white"/>
<path d="M335.762 259.957C335.308 259.957 334.854 259.678 334.679 259.224C322.761 229.304 311.962 207.065 300.638 189.19C300.358 188.736 300.428 188.108 300.813 187.724C301.197 187.34 301.826 187.305 302.28 187.619C303.783 188.701 305.286 189.853 306.684 190.936C314.198 196.766 320.664 201.758 329.506 195.753C329.821 195.544 330.24 195.509 330.625 195.649C330.974 195.788 331.254 196.137 331.324 196.521C331.708 198.756 332.093 201.025 332.477 203.329C335.413 220.436 338.768 239.848 336.881 258.875C336.811 259.399 336.426 259.817 335.902 259.922C335.867 259.957 335.832 259.957 335.762 259.957ZM305.845 193.24C315.491 209.299 324.858 228.815 334.993 253.778C335.902 236.636 332.896 219.284 330.24 203.818C329.926 202.073 329.646 200.397 329.367 198.721C320.07 203.958 312.835 198.651 305.845 193.24Z" fill="black"/>
<path d="M302.001 185C309.445 190.516 320.35 195.334 327.934 196.207C325.592 203.12 327.375 203.923 321.922 209.893C308.222 201.898 305.531 194.217 299.904 187.095C298.821 185.734 300.603 183.953 302.001 185Z" fill="white"/>
<path d="M321.922 211.045C321.713 211.045 321.538 211.01 321.328 210.87C310.599 204.621 306.544 198.616 302.595 192.821C301.407 191.075 300.288 189.434 298.995 187.758C298.157 186.676 298.226 185.28 299.17 184.302C300.114 183.325 301.582 183.185 302.665 184.023C310.109 189.574 320.769 194.182 328.039 195.02C328.388 195.055 328.703 195.265 328.877 195.544C329.052 195.823 329.122 196.207 328.982 196.521C328.248 198.651 327.934 200.152 327.654 201.479C327.06 204.377 326.641 206.297 322.726 210.591C322.551 210.94 322.237 211.045 321.922 211.045ZM301.092 185.838C301.022 185.838 300.918 185.873 300.848 185.978C300.638 186.187 300.778 186.327 300.813 186.397C302.176 188.108 303.364 189.853 304.517 191.564C308.222 197.01 312.032 202.631 321.678 208.427C324.579 205.075 324.893 203.609 325.417 201.095C325.627 200.048 325.907 198.791 326.396 197.185C318.882 195.928 308.572 191.354 301.302 185.943C301.267 185.873 301.197 185.838 301.092 185.838Z" fill="black"/>
<path d="M327.339 198.197C330.66 194.217 331.533 189.783 330.485 185.07C336.356 188.666 339.257 194.601 340.48 201.898C336.461 197.988 331.498 197.988 327.339 198.197Z" fill="white"/>
<path d="M340.481 203.085C340.201 203.085 339.887 202.98 339.677 202.771C336.042 199.245 331.603 199.175 327.409 199.384C326.955 199.419 326.536 199.175 326.326 198.756C326.116 198.337 326.186 197.848 326.466 197.499C329.437 193.938 330.38 189.993 329.367 185.384C329.262 184.931 329.437 184.477 329.821 184.197C330.205 183.918 330.695 183.918 331.114 184.163C336.776 187.654 340.236 193.414 341.634 201.793C341.704 202.282 341.459 202.771 341.04 203.015C340.865 203.015 340.655 203.085 340.481 203.085ZM329.786 196.975C332.722 196.975 335.832 197.359 338.698 199.105C337.44 194.113 335.203 190.307 332.023 187.619C332.267 191.005 331.464 194.147 329.681 196.975C329.716 196.975 329.751 196.975 329.786 196.975Z" fill="black"/>
<path d="M260.62 469.361L185.199 468.698C180.655 468.663 177.335 464.508 178.279 460.144L190.197 405.262C191.21 400.654 195.334 397.372 200.122 397.407L264.814 397.965L260.62 469.361Z" fill="#E127CA"/>
<path d="M260.62 470.513L185.199 469.85C182.682 469.815 180.341 468.698 178.768 466.743C177.23 464.822 176.636 462.309 177.16 459.9L189.078 405.018C190.197 399.92 194.775 396.255 200.052 396.255C200.087 396.255 200.122 396.255 200.157 396.255L264.849 396.813C265.164 396.813 265.478 396.953 265.688 397.162C265.898 397.407 266.003 397.686 266.003 398.035L261.809 469.396C261.739 470.024 261.249 470.513 260.62 470.513ZM200.052 398.559C195.893 398.559 192.224 401.457 191.35 405.506L179.432 460.389C179.048 462.099 179.467 463.915 180.585 465.276C181.704 466.708 183.416 467.511 185.234 467.511L259.537 468.174L263.591 399.117L200.122 398.559C200.087 398.594 200.087 398.559 200.052 398.559Z" fill="black"/>
<path d="M270.302 469.431L255.658 469.291C251.114 469.256 247.794 465.102 248.738 460.738L261.879 400.304C262.193 398.943 263.417 397.965 264.85 397.965L268.624 398C270.197 398 271.49 399.222 271.595 400.758L276.208 463.251C276.383 466.638 273.692 469.466 270.302 469.431Z" fill="#8D58D1"/>
<path d="M270.336 470.618C270.301 470.618 270.301 470.618 270.266 470.618L255.623 470.478C253.106 470.443 250.765 469.326 249.192 467.371C247.654 465.451 247.06 462.937 247.584 460.528L260.725 400.095C261.145 398.21 262.822 396.848 264.779 396.848H264.814L268.589 396.883C270.721 396.918 272.538 398.594 272.678 400.688L277.291 463.182C277.431 465.102 276.767 466.987 275.439 468.383C274.146 469.815 272.259 470.618 270.336 470.618ZM264.779 399.152C263.906 399.152 263.172 399.746 262.997 400.584L249.856 461.017C249.471 462.728 249.891 464.543 251.009 465.905C252.128 467.336 253.84 468.139 255.657 468.139L270.301 468.279C271.63 468.244 272.853 467.755 273.761 466.812C274.635 465.87 275.09 464.648 274.985 463.356L270.371 400.863C270.301 399.92 269.498 399.187 268.554 399.187L264.779 399.152C264.814 399.152 264.814 399.152 264.779 399.152Z" fill="black"/>
<path d="M250.765 427.885H250.73L191.665 427.362C191.035 427.362 190.511 426.838 190.511 426.21C190.511 425.581 191.035 425.057 191.665 425.057L250.73 425.581C250.73 425.581 250.73 425.581 250.765 425.581C251.988 425.581 253.036 424.778 253.316 423.626L258.698 401.946C258.838 401.317 259.467 400.933 260.096 401.108C260.725 401.247 261.11 401.876 260.935 402.504L255.553 424.185C254.994 426.349 253.036 427.885 250.765 427.885Z" fill="black"/>
<path d="M227.942 426.524L226.23 433.087C225.95 434.204 224.937 434.972 223.783 434.972L212.075 434.868C210.817 434.868 209.873 433.646 210.258 432.424L212.04 426.349L227.942 426.524Z" fill="white"/>
<path d="M223.783 436.16L212.04 436.055C211.062 436.055 210.153 435.601 209.594 434.798C209.035 434.03 208.86 433.052 209.104 432.145L210.887 426.07C211.027 425.581 211.481 425.232 212.005 425.232L227.942 425.372C228.292 425.372 228.641 425.546 228.851 425.825C229.061 426.105 229.131 426.489 229.061 426.803L227.348 433.367C226.964 435.007 225.496 436.16 223.783 436.16ZM212.879 427.536L211.341 432.773C211.236 433.087 211.376 433.297 211.446 433.401C211.586 433.611 211.831 433.716 212.075 433.716L223.783 433.82C224.412 433.82 224.937 433.401 225.077 432.808L226.405 427.641L212.879 427.536Z" fill="black"/>
<path d="M245.033 464.857C244.998 464.857 244.998 464.857 245.033 464.857L182.298 464.299C181.669 464.299 181.145 463.775 181.145 463.147C181.145 462.518 181.669 461.995 182.298 461.995L245.033 462.553C245.662 462.553 246.186 463.077 246.186 463.705C246.151 464.334 245.662 464.857 245.033 464.857Z" fill="black"/>
<path d="M215.081 395.068L210.188 395.033C208.86 395.033 207.776 396.08 207.776 397.372L217.457 397.442C217.457 396.15 216.374 395.068 215.081 395.068Z" fill="black"/>
<path d="M254.295 395.417L249.402 395.382C248.074 395.382 246.99 396.429 246.99 397.721L256.671 397.791C256.706 396.499 255.623 395.417 254.295 395.417Z" fill="black"/>
<path d="M253.036 395.277L253.875 390.669C254.469 387.387 252.232 384.699 248.912 384.664L219.554 384.42C216.234 384.385 213.054 387.038 212.459 390.32L211.621 394.928L214.312 395.591L214.906 391.821C215.36 389.272 217.457 386.759 220.043 386.794L247.584 387.038C250.17 387.073 251.883 389.133 251.428 391.716L250.799 395.312L253.036 395.277Z" fill="black"/>
<path d="M247.41 382.709L220.428 382.464C219.345 382.464 218.296 383.372 218.122 384.559L217.702 387.073C217.493 388.225 218.227 389.168 219.31 389.202L246.291 389.447C247.375 389.447 248.423 388.539 248.598 387.352L249.017 384.838C249.192 383.686 248.493 382.744 247.41 382.709Z" fill="#8D58D1"/>
<path d="M255.553 464.962C255.133 464.962 254.749 464.753 254.539 464.369C254.225 463.81 254.434 463.112 254.994 462.797L264.57 457.526L265.059 402.294C265.059 401.666 265.583 401.142 266.212 401.142C266.842 401.142 267.366 401.666 267.366 402.294L266.877 458.224C266.877 458.643 266.632 459.027 266.282 459.236L256.112 464.822C255.937 464.892 255.762 464.962 255.553 464.962Z" fill="#E127CA"/>
<path d="M228.117 362.634C228.117 362.634 227.488 366.823 224.552 370.629C221.581 374.434 217.772 382.709 219.135 388.539C220.113 392.833 232.485 394.893 234.513 393.985C237.204 392.798 234.408 381.172 238.147 382.01C244.997 383.512 243.879 377.995 242.516 373.492C241.153 368.988 238.811 361.098 238.811 361.098L228.117 362.634Z" fill="white"/>
<path d="M232.835 395.347C229.899 395.347 225.111 394.404 221.896 392.763C219.659 391.646 218.331 390.32 217.981 388.783C216.549 382.569 220.428 374.015 223.608 369.896C226.369 366.37 226.964 362.494 226.964 362.459L227.103 361.587L239.615 359.806L239.895 360.749C239.895 360.749 242.237 368.639 243.6 373.143C244.648 376.634 245.382 380.16 243.565 382.115C242.411 383.337 240.489 383.686 237.868 383.128C237.798 383.093 237.728 383.128 237.728 383.128C237.169 383.477 237.064 386.584 237.029 388.05C236.924 391.332 236.819 394.195 234.932 395.033C234.513 395.277 233.744 395.347 232.835 395.347ZM229.095 363.681C228.746 365.183 227.802 368.36 225.461 371.362C222.63 374.993 218.995 382.918 220.253 388.33C220.428 389.098 221.337 389.935 222.805 390.704C226.929 392.833 233.115 393.392 234.023 393.008C234.583 392.659 234.687 389.551 234.722 388.05C234.827 385.048 234.897 382.464 236.33 381.347C236.715 381.033 237.414 380.719 238.357 380.928C239.58 381.207 241.188 381.347 241.852 380.614C243.04 379.322 241.817 375.377 241.363 373.876C240.279 370.315 238.602 364.659 237.938 362.425L229.095 363.681Z" fill="black"/>
<path d="M278.444 262.925C259.816 280.869 246.85 294.904 245.556 364.345L223.014 364.589C223.014 364.589 216.059 313.268 225.181 287.782C233.324 264.984 253.42 212.372 274.18 205.354C277.501 204.237 285.854 206.89 288.789 208.81L278.444 262.925Z" fill="#8D58D1"/>
<path d="M222.979 365.741C222.385 365.741 221.896 365.322 221.826 364.729C221.546 362.634 214.941 312.814 224.028 287.398C236.33 252.975 254.923 210.626 273.761 204.272C277.606 202.98 286.308 205.843 289.384 207.833C289.908 208.182 290.083 208.88 289.733 209.439C289.384 209.963 288.685 210.137 288.125 209.788C285.26 207.903 277.291 205.529 274.53 206.471C260.305 211.289 243.599 239.533 226.229 288.201C218.016 311.139 223.119 356.14 223.993 363.437L244.403 363.193C245.766 296.126 257.929 281.044 277.641 262.087C278.095 261.633 278.829 261.668 279.283 262.122C279.737 262.575 279.703 263.309 279.248 263.763C261.808 280.555 248.003 293.857 246.71 364.38C246.71 365.008 246.186 365.497 245.557 365.497L222.979 365.741C223.014 365.741 223.014 365.741 222.979 365.741Z" fill="black"/>
<path d="M559.895 324.859C559.895 340.325 526.868 342.839 505.374 342.839C483.879 342.839 481.817 335.717 481.817 320.25C481.817 304.784 499.257 292.216 520.786 292.216C542.315 292.181 559.895 309.358 559.895 324.859Z" fill="#E127CA"/>
<path d="M511.874 578.811L516.173 609.115H502.158L493.036 576.193L511.874 578.811Z" fill="white"/>
<path d="M516.173 610.267H502.158C501.634 610.267 501.18 609.918 501.04 609.429L491.918 576.507C491.813 576.123 491.918 575.739 492.163 575.425C492.407 575.145 492.792 574.971 493.176 575.041L512.049 577.659C512.573 577.729 512.958 578.148 513.028 578.637L517.291 608.94C517.326 609.29 517.222 609.604 517.012 609.848C516.802 610.127 516.488 610.267 516.173 610.267ZM503.032 607.963H514.845L510.861 579.858L494.609 577.589L503.032 607.963Z" fill="black"/>
<path d="M454.172 633.798H518.13C521.45 633.798 524.002 630.446 523.547 626.711C522.464 618.227 520.507 604.437 518.829 598.851C516.313 590.472 508.239 603.843 508.239 603.843L499.292 595.325C499.292 595.325 461.337 613.339 451.656 628.107C450.083 630.446 451.551 633.798 454.172 633.798Z" fill="#E127CA"/>
<path d="M518.13 634.985H454.172C452.634 634.985 451.236 634.112 450.467 632.681C449.559 631.005 449.664 629.015 450.677 627.444C460.428 612.606 497.23 595.01 498.768 594.277C499.187 594.068 499.712 594.138 500.061 594.487L507.96 602.063C509.672 599.514 513.412 594.591 516.627 595.01C518.13 595.22 519.249 596.407 519.878 598.571C521.52 604.053 523.373 616.866 524.631 626.641C524.91 628.91 524.281 631.18 522.813 632.82C521.59 634.182 519.913 634.985 518.13 634.985ZM499.048 596.686C493.805 599.235 461.267 615.504 452.599 628.701C452.04 629.539 452.005 630.656 452.495 631.564C452.669 631.878 453.194 632.646 454.172 632.646H518.13C519.249 632.646 520.332 632.157 521.136 631.214C522.149 630.062 522.604 628.491 522.394 626.85C521.381 618.925 519.388 604.786 517.711 599.165C517.501 598.467 517.047 597.315 516.383 597.245C514.6 597.035 511.07 601.399 509.218 604.437C509.043 604.751 508.729 604.926 508.379 604.995C508.03 605.03 507.68 604.926 507.436 604.681L499.048 596.686Z" fill="black"/>
<path d="M517.781 629.434H458.052C457.423 629.434 456.898 628.91 456.898 628.282C456.898 627.653 457.423 627.13 458.052 627.13H517.781C518.41 627.13 518.934 627.653 518.934 628.282C518.934 628.945 518.41 629.434 517.781 629.434Z" fill="black"/>
<path d="M589.708 556.467C591.036 559.854 605.959 594.522 605.959 594.522L594.74 608.591L586.982 599.514L571.639 559.854L589.708 556.467Z" fill="white"/>
<path d="M594.74 609.709C594.391 609.709 594.076 609.569 593.866 609.29L586.108 600.212C586.038 600.108 585.968 600.003 585.898 599.863L570.555 560.203C570.415 559.889 570.45 559.54 570.625 559.225C570.8 558.911 571.079 558.702 571.429 558.667L589.498 555.28C590.057 555.176 590.581 555.49 590.791 556.013C592.084 559.33 606.868 593.684 607.043 594.033C607.217 594.417 607.147 594.871 606.868 595.22L595.649 609.29C595.404 609.534 595.09 609.709 594.74 609.709ZM587.96 598.886L594.705 606.741L604.631 594.312C602.674 589.739 591.42 563.624 589.009 557.759L573.211 560.727L587.96 598.886Z" fill="black"/>
<path d="M614.452 592.043C616.444 593.963 617.108 596.896 616.129 599.479C612.844 608.312 604.002 627.863 588.239 633.624C575.692 638.197 567.095 638.232 562.307 637.534C560.035 637.22 558.847 634.636 560.07 632.681C565.312 624.232 577.684 603.32 578.838 592.532C580.271 578.811 596.592 595.185 596.592 595.185L605.4 583.245L614.452 592.043Z" fill="#E127CA"/>
<path d="M567.165 639C565.208 639 563.53 638.86 562.132 638.651C560.699 638.441 559.441 637.534 558.847 636.207C558.218 634.88 558.322 633.309 559.091 632.053C564.299 623.639 576.566 602.936 577.685 592.392C578.034 589.006 579.292 586.911 581.424 586.178C586.212 584.502 593.692 590.856 596.453 593.405L604.456 582.547C604.666 582.268 604.945 582.093 605.295 582.093C605.644 582.058 605.959 582.198 606.204 582.407L615.256 591.17C617.562 593.405 618.331 596.826 617.213 599.828C614.067 608.312 604.98 628.701 588.624 634.671C579.467 638.057 572.337 639 567.165 639ZM583.207 588.238C582.857 588.238 582.508 588.272 582.193 588.412C580.97 588.831 580.236 590.297 579.991 592.706C578.838 603.704 566.361 624.791 561.048 633.344C560.664 633.938 560.629 634.671 560.944 635.299C561.223 635.928 561.782 636.347 562.481 636.451C567.339 637.15 575.692 637.045 587.855 632.611C603.303 626.99 612.005 607.335 615.046 599.165C615.85 597.001 615.291 594.557 613.648 592.951L605.54 585.095L597.536 595.953C597.326 596.232 597.012 596.407 596.697 596.407C596.348 596.407 596.033 596.302 595.789 596.058C592.573 592.811 586.667 588.238 583.207 588.238Z" fill="black"/>
<path d="M569.262 632.506C568.703 632.506 568.213 632.087 568.108 631.529C568.003 630.9 568.458 630.307 569.087 630.202C602.254 625.105 610.153 597.07 610.258 596.791C610.432 596.163 611.062 595.813 611.691 595.988C612.32 596.163 612.669 596.791 612.495 597.419C612.425 597.734 604.072 627.2 569.471 632.506C569.367 632.506 569.297 632.506 569.262 632.506Z" fill="black"/>
<path d="M585.304 613.724C585.129 613.724 584.954 613.689 584.78 613.584L573.631 607.963C573.071 607.684 572.827 606.985 573.106 606.427C573.386 605.868 574.085 605.624 574.644 605.903L585.793 611.524C586.352 611.803 586.597 612.502 586.317 613.06C586.108 613.514 585.723 613.724 585.304 613.724Z" fill="black"/>
<path d="M493.036 616.656C492.652 616.656 492.303 616.481 492.058 616.132L484.404 604.297C484.054 603.773 484.194 603.04 484.753 602.691C485.278 602.342 486.012 602.482 486.361 603.04L494.015 614.875C494.365 615.399 494.225 616.132 493.666 616.481C493.456 616.586 493.246 616.656 493.036 616.656Z" fill="black"/>
<path d="M524.736 310.754C524.736 310.754 555.456 335.612 562.586 361.273C568.528 382.604 579.712 506.962 579.712 506.962C579.712 506.962 597.571 556.607 598.445 571.026C598.445 571.026 584.29 581.115 573.386 579.579L548.571 519.495C548.571 519.495 543.084 512.233 540.428 503.819C537.772 495.406 515.194 416.085 515.194 416.085C515.194 416.085 513.377 533.355 516.942 583.28C516.942 583.28 500.76 585.759 491.114 583.664C491.114 583.664 487.409 542.956 483.006 532.971C478.602 523.021 477.658 507.415 479.091 492.438C480.489 477.496 465.705 392.659 469.55 317.807L524.736 310.754Z" fill="black"/>
<path d="M548.327 353.243C537.527 353.173 529.559 350.45 524.666 345.108C519.179 339.138 519.668 332.19 519.703 331.911C519.738 331.283 520.332 330.794 520.961 330.864C521.59 330.899 522.079 331.457 522.01 332.121C522.01 332.19 521.59 338.44 526.413 343.607C530.852 348.425 538.261 350.903 548.362 350.938C548.991 350.938 549.515 351.462 549.515 352.091C549.48 352.719 548.991 353.243 548.327 353.243Z" fill="white"/>
<path d="M571.638 536.253C571.603 536.253 571.568 536.253 571.533 536.253C571.079 536.218 560.21 535.031 551.402 523.475C551.018 522.951 551.123 522.253 551.612 521.869C552.136 521.485 552.835 521.59 553.22 522.079C561.398 532.762 571.638 533.949 571.743 533.949C572.372 534.019 572.827 534.577 572.792 535.206C572.722 535.799 572.197 536.253 571.638 536.253Z" fill="white"/>
<path d="M520.821 445.586C520.297 445.586 519.843 445.237 519.703 444.713L505.688 391.088L492.477 384.21C491.918 383.931 491.708 383.232 491.988 382.639C492.267 382.08 492.966 381.871 493.56 382.15L507.226 389.272C507.505 389.412 507.715 389.691 507.82 390.005L521.974 444.119C522.149 444.748 521.765 445.376 521.136 445.516C521.031 445.551 520.926 445.586 520.821 445.586Z" fill="white"/>
<path d="M559.755 327.268C559.755 327.268 547.103 306.39 520.786 320.216C497.335 332.54 469.62 325.383 463.853 323.637C463.189 323.428 462.735 322.869 462.7 322.171C462.175 313.582 459.38 257.164 471.612 225.219C473.639 219.878 479.825 214.431 485.382 213.175C497.23 210.521 505.863 206.716 518.934 205.843C528.93 205.18 548.466 206.925 554.583 208.252C560.734 209.579 564.508 212.232 562.901 216.282L552.695 241.279C547.558 254.127 548.152 268.58 554.443 280.904C554.478 281.009 554.548 281.114 554.583 281.219C559.79 291.413 560.664 315.049 559.755 327.268Z" fill="#8D58D1"/>
<path d="M482.411 303.493C480.07 302.934 471.822 301.014 470.389 300.42C467.558 299.198 466.3 297.907 465.356 294.939C463.574 289.423 463.539 286.037 463.958 284.012C464.307 282.336 465.775 281.114 467.453 281.009C475.387 280.52 512.119 278.495 516.453 274.131C521.415 269.139 521.415 261.633 528.126 240.162C534.836 218.691 544.273 212.686 544.273 212.686C544.273 212.686 564.229 199.663 571.289 228.012C571.289 228.012 576.496 245.573 562.726 273.782C553.639 292.46 528.266 314.211 482.411 303.493Z" fill="#8D58D1"/>
<path d="M500.935 304.435C490.275 304.435 478.916 302.969 467.278 300.001C466.649 299.827 466.299 299.198 466.439 298.605C466.614 297.976 467.208 297.627 467.837 297.767C513.237 309.288 543.643 295.952 555.911 281.044C556.33 280.555 557.029 280.485 557.553 280.869C558.043 281.288 558.113 281.987 557.728 282.51C550.424 291.413 538.611 298.256 524.491 301.747C517.151 303.562 509.253 304.435 500.935 304.435Z" fill="#E127CA"/>
<path d="M468.117 282.929C467.523 282.929 466.999 282.475 466.964 281.847C466.929 281.219 467.383 280.66 468.047 280.625C482.447 279.613 512.958 275.039 515.859 273.154C523.338 268.231 525.714 263.797 532.634 241.593C539.24 220.506 548.397 214.047 549.236 213.524C549.62 213.244 552.556 211.08 556.191 210.032C556.785 209.858 557.449 210.207 557.623 210.835C557.798 211.464 557.449 212.092 556.82 212.267C553.395 213.244 550.599 215.374 550.599 215.409C550.564 215.444 550.529 215.444 550.529 215.479C550.424 215.549 541.337 221.588 534.871 242.326C528.231 263.553 525.644 269.523 517.152 275.109C513.202 277.692 479.825 282.161 468.257 282.964C468.152 282.929 468.152 282.929 468.117 282.929Z" fill="#E127CA"/>
<path d="M447.566 260.201C447.287 260.201 447.007 260.097 446.798 259.922C446.308 259.503 446.273 258.77 446.693 258.281L456.374 247.388C456.793 246.9 457.527 246.865 458.016 247.284C458.506 247.703 458.541 248.436 458.121 248.925L448.44 259.817C448.196 260.062 447.881 260.201 447.566 260.201Z" fill="black"/>
<path d="M422.962 260.201C422.647 260.201 422.333 260.062 422.088 259.817L412.407 248.925C411.988 248.436 412.023 247.703 412.512 247.284C413.001 246.865 413.735 246.9 414.155 247.388L423.836 258.281C424.255 258.77 424.22 259.503 423.731 259.922C423.521 260.097 423.241 260.201 422.962 260.201Z" fill="black"/>
<path d="M434.635 257.827C434.006 257.827 433.482 257.304 433.482 256.675V238.765C433.482 238.137 434.006 237.613 434.635 237.613C435.264 237.613 435.789 238.137 435.789 238.765V256.675C435.789 257.304 435.264 257.827 434.635 257.827Z" fill="black"/>
<path d="M462.98 284.64C461.652 284.535 452.39 284.046 451.062 284.116C437.292 284.675 431.525 290.086 426.387 297.173C421.25 304.261 428.38 312.011 434.636 310.44C440.892 308.904 451.342 304.959 466.51 295.812C468.222 294.764 471.123 294.311 470.948 292.286C470.669 288.76 470.04 285.164 462.98 284.64Z" fill="white"/>
<path d="M433.028 311.767C430.022 311.767 426.946 310.126 425.094 307.403C422.822 304.016 422.927 299.931 425.444 296.475C431.21 288.515 437.466 283.488 451.027 282.964C452.46 282.929 461.791 283.383 463.084 283.488C470.808 284.081 471.822 288.306 472.136 292.181C472.311 294.485 470.179 295.393 468.607 296.091C468.082 296.335 467.558 296.545 467.139 296.789C451.376 306.32 440.926 310.091 434.95 311.557C434.286 311.697 433.657 311.767 433.028 311.767ZM451.341 285.233C451.236 285.233 451.167 285.233 451.097 285.233C438.445 285.757 432.783 290.226 427.296 297.802C424.535 301.607 426.177 304.854 426.981 306.076C428.694 308.625 431.7 309.916 434.321 309.288C440.157 307.857 450.363 304.156 465.88 294.764C466.405 294.45 467.034 294.171 467.628 293.927C469.166 293.263 469.83 292.879 469.795 292.321C469.55 289.318 469.306 286.246 462.875 285.722C461.477 285.652 453.229 285.233 451.341 285.233Z" fill="black"/>
<path d="M451.516 299.373C453.787 299.408 455.36 301.782 454.417 303.877C454.312 304.086 454.207 304.295 454.102 304.505C451.935 308.485 444.561 315.188 439.633 316.026C434.705 316.864 431.769 306.704 434.181 303.702C437.466 299.512 447.357 299.268 451.516 299.373Z" fill="white"/>
<path d="M439.074 317.248C437.187 317.248 435.369 316.026 434.041 313.792C432.119 310.545 431.35 305.413 433.272 303.004C436.767 298.57 446.239 298.116 451.551 298.221C453.019 298.256 454.382 299.024 455.186 300.281C455.955 301.502 456.094 303.039 455.5 304.365C455.395 304.61 455.291 304.819 455.151 305.098C452.879 309.218 445.295 316.305 439.878 317.213C439.563 317.213 439.318 317.248 439.074 317.248ZM450.153 300.525C442.639 300.525 437.047 301.956 435.09 304.435C434.076 305.692 434.286 309.637 436.033 312.605C436.627 313.582 437.816 315.188 439.423 314.909C444.002 314.141 451.062 307.647 453.054 303.981C453.159 303.772 453.263 303.597 453.333 303.423C453.613 302.794 453.543 302.096 453.193 301.502C452.809 300.909 452.18 300.525 451.481 300.525C451.027 300.525 450.572 300.525 450.153 300.525Z" fill="black"/>
<path d="M515.369 190.761C518.27 193.589 521.94 194.147 523.687 194.427C527.357 194.985 543.154 195.858 553.744 183.988C564.124 172.362 565.207 153.474 559.266 149.599C555.002 146.841 548.257 152.532 541.826 148.238C538.995 146.317 539.659 144.781 536.619 142.756C531.516 139.37 524.98 140.662 519.983 141.744C510.826 143.699 511.14 146.248 503.102 148.238C491.638 151.1 485.138 147.47 482.901 151.135C481.118 154.068 483.39 159.41 486.501 162.517C492.896 168.941 500.83 163.529 505.723 169.429C508.764 173.095 508.344 178.157 512.888 187.27C513.272 188.038 513.971 189.399 515.369 190.761Z" fill="black"/>
<path d="M506.422 199.664C506.771 198.477 507.121 197.185 507.47 195.823C504.884 196.871 502.193 197.045 500.585 196.172C498.593 195.09 498.244 192.96 497.44 190.412C497.09 189.33 496.811 188.108 495.692 187.025C495.098 186.467 494.434 186.083 493.805 185.803C493.036 185.489 492.617 184.616 492.826 183.813L493.036 183.325C494.644 179.519 495.517 175.399 495.552 171.28L495.657 163.11C500.131 161.33 501.773 161.644 502.368 162.342C502.577 162.587 502.927 162.761 502.892 164.018C502.822 170.093 508.274 169.464 512.853 168.347C517.431 167.23 515.823 175.714 515.823 175.714C515.823 175.714 518.654 172.048 521.835 175.225C524.106 177.494 519.703 181.23 517.012 183.185L518.829 200.746C519.318 205.389 523.652 205.319 528.021 206.925L539.799 209.858C539.799 209.858 508.973 223.544 489.96 213.873L500.131 210.382C503.661 208.531 505.513 202.771 506.422 199.664Z" fill="white"/>
<path d="M506.632 218.551C500.62 218.551 494.644 217.573 489.471 214.92C489.052 214.711 488.807 214.257 488.842 213.803C488.877 213.349 489.192 212.93 489.611 212.791L499.712 209.334C502.927 207.519 504.744 201.339 505.338 199.314C505.513 198.721 505.688 198.127 505.828 197.534C503.591 198.058 501.494 197.953 500.026 197.15C497.894 195.998 497.3 193.938 496.671 191.738C496.566 191.389 496.461 191.075 496.356 190.691L496.252 190.377C495.972 189.434 495.692 188.561 494.888 187.758C494.469 187.339 493.98 187.025 493.386 186.781C492.058 186.257 491.359 184.826 491.708 183.429C491.708 183.359 491.743 183.325 491.778 183.29L491.988 182.801C493.56 179.1 494.364 175.19 494.434 171.175L494.539 163.006C494.539 162.552 494.819 162.133 495.273 161.958C499.607 160.247 502.088 160.108 503.276 161.504C503.801 162.063 504.115 162.656 504.08 163.948C504.045 165.484 504.43 166.497 505.164 167.09C506.771 168.382 510.196 167.719 512.608 167.125C514.251 166.741 515.264 167.3 515.858 167.823C517.117 169.01 517.361 171.245 517.291 173.06C517.781 172.851 518.305 172.711 518.899 172.676C520.262 172.606 521.52 173.13 522.708 174.317C523.407 175.015 523.722 175.923 523.652 176.866C523.477 178.786 521.695 181.055 518.27 183.604L520.017 200.536C520.297 203.225 522.114 203.853 525.539 204.83C526.483 205.11 527.427 205.354 528.44 205.738L540.183 208.671C540.673 208.776 541.022 209.195 541.057 209.683C541.092 210.172 540.812 210.626 540.358 210.835C539.345 211.359 522.918 218.551 506.632 218.551ZM493.176 214.047C507.82 219.563 528.196 213.105 536.094 210.137L527.776 208.077C527.741 208.077 527.706 208.042 527.671 208.042C526.728 207.693 525.819 207.449 524.91 207.17C521.59 206.227 518.165 205.249 517.746 200.885L515.858 183.29C515.823 182.871 515.998 182.487 516.348 182.242C519.353 180.078 521.206 178.018 521.311 176.796C521.345 176.517 521.241 176.272 521.031 176.063C520.367 175.399 519.703 175.085 519.039 175.12C517.781 175.19 516.767 176.447 516.767 176.447C516.452 176.866 515.858 177.005 515.369 176.796C514.88 176.586 514.6 176.063 514.705 175.539C515.054 173.689 515.159 170.512 514.251 169.639C514.146 169.534 513.901 169.325 513.167 169.499C510.022 170.267 506.107 170.896 503.731 169.01C502.403 167.963 501.739 166.287 501.774 164.018C501.774 163.459 501.704 163.285 501.704 163.285C501.669 163.25 501.669 163.25 501.634 163.215C501.599 163.18 501.564 163.11 501.494 163.075C501.494 163.075 500.76 162.412 496.811 163.878L496.741 171.28C496.706 175.609 495.797 179.798 494.12 183.778L493.945 184.162C493.91 184.407 494.05 184.651 494.259 184.721C495.133 185.07 495.902 185.559 496.531 186.187C497.754 187.374 498.174 188.701 498.488 189.783L498.593 190.063C498.698 190.412 498.803 190.796 498.908 191.145C499.537 193.275 499.956 194.496 501.179 195.16C502.438 195.858 504.814 195.683 507.086 194.741C507.505 194.566 507.96 194.636 508.274 194.95C508.589 195.23 508.729 195.683 508.624 196.102C508.309 197.359 507.96 198.651 507.575 199.978C506.422 203.958 504.465 209.439 500.76 211.429C500.69 211.464 500.655 211.499 500.585 211.499L493.176 214.047Z" fill="black"/>
<path d="M506.667 196.975C506.177 196.975 505.723 196.661 505.583 196.207C505.373 195.614 505.688 194.95 506.282 194.741C510.616 193.24 512.538 186.816 512.538 186.746C512.713 186.118 513.377 185.768 513.971 185.978C514.6 186.152 514.95 186.816 514.74 187.409C514.635 187.723 512.433 195.055 507.016 196.94C506.911 196.94 506.806 196.975 506.667 196.975Z" fill="black"/>
<path d="M521.905 86.827C521.625 86.827 521.381 86.7222 521.171 86.5477C508.309 75.7598 494.364 65.9843 479.686 57.5355C479.126 57.2213 478.952 56.5231 479.266 55.9645C479.581 55.4059 480.28 55.2313 480.839 55.5455C495.623 64.0641 509.707 73.9094 522.674 84.8021C523.163 85.221 523.233 85.9542 522.814 86.4429C522.569 86.6873 522.254 86.827 521.905 86.827Z" fill="black"/>
<path d="M558.287 123.52C557.658 123.52 557.134 122.996 557.134 122.367V116.397C557.134 115.769 557.658 115.245 558.287 115.245C558.916 115.245 559.44 115.769 559.44 116.397V122.367C559.44 122.996 558.916 123.52 558.287 123.52Z" fill="black"/>
<path d="M558.287 137.45C557.658 137.45 557.134 136.926 557.134 136.297V130.327C557.134 129.699 557.658 129.175 558.287 129.175C558.916 129.175 559.44 129.699 559.44 130.327V136.297C559.44 136.926 558.916 137.45 558.287 137.45Z" fill="black"/>
<path d="M554.303 127.5H548.327C547.698 127.5 547.173 126.976 547.173 126.347C547.173 125.719 547.698 125.195 548.327 125.195H554.303C554.932 125.195 555.456 125.719 555.456 126.347C555.456 126.976 554.932 127.5 554.303 127.5Z" fill="black"/>
<path d="M568.248 127.5H562.272C561.642 127.5 561.118 126.976 561.118 126.347C561.118 125.719 561.642 125.195 562.272 125.195H568.248C568.877 125.195 569.401 125.719 569.401 126.347C569.401 126.976 568.877 127.5 568.248 127.5Z" fill="black"/>
<path d="M617.667 339.452C617.632 339.452 617.562 339.452 617.527 339.452C616.898 339.382 616.444 338.824 616.514 338.16C621.651 293.403 609.873 251.473 602.848 226.441L601.905 223.055C601.73 222.426 602.08 221.798 602.709 221.623C603.303 221.449 603.967 221.798 604.142 222.426L605.085 225.813C612.18 251.019 624.028 293.228 618.82 338.44C618.751 339.033 618.226 339.452 617.667 339.452Z" fill="black"/>
<path d="M626.125 383.372C626.055 383.372 625.985 383.372 625.95 383.372C625.321 383.267 624.902 382.674 625.006 382.045C636.365 312.151 621.826 246.586 621.651 245.922C621.511 245.294 621.896 244.665 622.525 244.526C623.154 244.386 623.783 244.77 623.923 245.399C624.063 246.062 638.707 312.046 627.278 382.394C627.173 382.953 626.684 383.372 626.125 383.372Z" fill="black"/>
<path d="M77.6583 134.343C77.4836 134.343 77.3088 134.308 77.1341 134.238C76.5749 133.959 76.3302 133.26 76.6098 132.702C89.3665 106.832 108.973 84.3482 133.298 67.7299C133.823 67.3808 134.557 67.5205 134.906 68.0441C135.256 68.5678 135.116 69.301 134.591 69.6501C110.581 86.0589 91.2538 108.193 78.6719 133.714C78.4971 134.098 78.0777 134.343 77.6583 134.343Z" fill="black"/>
<path d="M56.7934 141.255C56.6536 141.255 56.4789 141.22 56.3391 141.15C55.7449 140.906 55.5003 140.208 55.7449 139.614C76.0507 93.5649 106.142 61.4107 145.181 43.9895C145.776 43.7451 146.44 43.9895 146.719 44.583C146.964 45.1765 146.719 45.8398 146.125 46.1191C107.61 63.2611 77.938 95.0313 57.8769 140.557C57.6672 141.011 57.2478 141.255 56.7934 141.255Z" fill="black"/>
<path d="M378.366 52.6477C381.686 33.9696 399.545 21.4011 418.279 24.6131C437.012 27.825 449.489 45.5605 446.203 64.2385C442.883 82.9166 425.024 95.4851 406.291 92.2731C387.558 89.0961 375.046 71.3257 378.366 52.6477Z" fill="#22CDC6"/>
<path d="M398.567 74.0488C398.008 74.0488 397.518 73.6648 397.414 73.1062L392.241 44.3384L388.292 44.1639C387.663 44.129 387.173 43.6053 387.208 42.942C387.243 42.3135 387.768 41.8248 388.432 41.8597L393.325 42.1041C393.849 42.139 394.303 42.523 394.408 43.0467L399.581 71.7446L428.589 71.0813L436.453 51.6002C436.697 51.0067 437.361 50.7274 437.955 50.9718C438.549 51.2162 438.829 51.8795 438.584 52.473L430.441 72.6523C430.266 73.0713 429.847 73.3506 429.393 73.3855L398.567 74.0488C398.602 74.0488 398.602 74.0488 398.567 74.0488Z" fill="white"/>
<path d="M395.316 53.6599C394.687 53.6599 394.163 53.1362 394.163 52.5078C394.163 51.8794 394.652 51.3557 395.316 51.3557L437.466 50.9019C438.095 50.9019 438.619 51.4255 438.619 52.054C438.619 52.6824 438.13 53.2061 437.466 53.2061L395.316 53.6599Z" fill="white"/>
<path d="M396.505 61.0615C395.876 61.0615 395.352 60.5378 395.352 59.9094C395.352 59.281 395.841 58.7573 396.505 58.7224L433.342 58.2685C434.006 58.2336 434.495 58.7573 434.53 59.4206C434.53 60.049 434.041 60.5727 433.377 60.6076L396.505 61.0615C396.54 61.0615 396.54 61.0615 396.505 61.0615Z" fill="white"/>
<path d="M397.728 67.5552C397.099 67.5552 396.575 67.0315 396.575 66.4031C396.575 65.7747 397.064 65.251 397.728 65.2161L431.035 64.7622C431.664 64.7622 432.189 65.2859 432.189 65.9143C432.189 66.5427 431.699 67.0664 431.035 67.1013L397.728 67.5552Z" fill="white"/>
<path d="M405.033 81.9041C406.693 81.9041 408.038 80.6536 408.038 79.1111C408.038 77.5686 406.693 76.3181 405.033 76.3181C403.373 76.3181 402.027 77.5686 402.027 79.1111C402.027 80.6536 403.373 81.9041 405.033 81.9041Z" fill="white"/>
<path d="M424.29 81.9041C425.95 81.9041 427.296 80.6536 427.296 79.1111C427.296 77.5686 425.95 76.3181 424.29 76.3181C422.63 76.3181 421.284 77.5686 421.284 79.1111C421.284 80.6536 422.63 81.9041 424.29 81.9041Z" fill="white"/>
<path d="M407.898 72.1984C407.339 72.1984 406.85 71.7794 406.745 71.1859L404.194 52.6475C404.124 52.0191 404.543 51.4256 405.172 51.3557C405.801 51.2859 406.395 51.7048 406.465 52.3333L409.017 70.8717C409.087 71.5001 408.667 72.0936 408.038 72.1635C408.003 72.1984 407.933 72.1984 407.898 72.1984Z" fill="white"/>
<path d="M418.698 73.141C418.663 73.141 418.663 73.141 418.628 73.141C417.999 73.1061 417.51 72.5475 417.545 71.9191L418.593 52.6824C418.628 52.054 419.187 51.5652 419.816 51.6001C420.446 51.6351 420.935 52.1937 420.9 52.8221L419.851 72.0588C419.851 72.6523 419.327 73.141 418.698 73.141Z" fill="white"/>
<path d="M321.223 71.0465C339.965 71.0465 355.159 55.869 355.159 37.1467C355.159 18.4243 339.965 3.24683 321.223 3.24683C302.48 3.24683 287.287 18.4243 287.287 37.1467C287.287 55.869 302.48 71.0465 321.223 71.0465Z" fill="white"/>
<path d="M321.188 72.1986C302.874 72.1986 287.392 57.9544 286.168 39.4159C285.539 30.0594 288.615 21.052 294.801 13.9998C300.987 6.94747 309.55 2.72308 318.881 2.12957C338.174 0.837818 354.95 15.5359 356.208 34.8075C356.837 44.164 353.761 53.1714 347.575 60.2237C341.389 67.2759 332.826 71.5003 323.495 72.0938C322.761 72.1637 321.957 72.1986 321.188 72.1986ZM321.258 4.39887C320.524 4.39887 319.825 4.43379 319.091 4.4687C310.354 5.02729 302.35 8.97239 296.583 15.5708C290.817 22.1343 287.951 30.5831 288.51 39.3112C289.663 56.5928 304.098 69.9293 321.223 69.9293C321.957 69.9293 322.656 69.8944 323.39 69.8595C341.424 68.6724 355.159 53.0666 353.971 35.017C352.818 17.7005 338.348 4.39887 321.258 4.39887Z" fill="black"/>
<path d="M306.369 54.3932C305.146 54.3932 303.958 53.9393 303.049 53.1363C302.035 52.2635 301.406 51.0067 301.336 49.68L299.938 28.5232C299.764 25.7302 301.861 23.3212 304.657 23.1467L336.007 21.0868C337.37 20.9821 338.663 21.436 339.676 22.3437C340.69 23.2165 341.319 24.4733 341.389 25.8L342.787 46.9569C342.962 49.7498 340.865 52.1588 338.069 52.3334L306.719 54.3932C306.579 54.3932 306.474 54.3932 306.369 54.3932ZM336.356 23.391C336.286 23.391 336.216 23.391 336.181 23.391L304.831 25.4509C303.329 25.5556 302.175 26.8474 302.28 28.3835L303.678 49.5404C303.713 50.2735 304.062 50.9369 304.622 51.4256C305.181 51.9144 305.88 52.1588 306.614 52.089L337.964 50.0291C338.698 49.9942 339.362 49.6451 339.851 49.0865C340.34 48.5279 340.585 47.8297 340.515 47.0965L339.117 25.9396C339.082 25.2065 338.733 24.5432 338.173 24.0544C337.649 23.6354 337.02 23.391 336.356 23.391Z" fill="black"/>
<path d="M321.607 40.1839C321.398 40.1839 321.223 40.149 321.048 40.0443L307.907 32.6079C307.348 32.2937 307.138 31.5955 307.453 31.0369C307.767 30.4783 308.466 30.2688 309.026 30.583L322.132 37.9844C322.691 38.2986 322.901 38.9969 322.586 39.5555C322.376 39.9744 321.992 40.1839 321.607 40.1839Z" fill="black"/>
<path d="M321.677 40.149C321.328 40.149 320.978 39.9744 320.769 39.6951C320.384 39.1715 320.489 38.4732 321.013 38.0892L333.036 29.0469C333.56 28.6629 334.259 28.7676 334.644 29.2913C335.028 29.815 334.923 30.5132 334.399 30.8972L322.376 39.9395C322.167 40.0792 321.922 40.149 321.677 40.149Z" fill="black"/>
<path d="M218.995 99.3603C205.05 87.0711 203.617 65.7746 215.85 51.7399C228.082 37.7051 249.296 36.3087 263.241 48.5629C277.186 60.852 278.619 82.1485 266.387 96.1833C254.189 110.218 232.94 111.649 218.995 99.3603Z" fill="#22CDC6"/>
<path d="M261.354 82.7422L254.504 78.2036C253.595 77.645 251.778 77.5752 249.891 78.9717C248.108 80.2983 245.208 82.3931 238.287 76.039C231.332 69.685 232.87 66.4382 234.303 64.7274C234.513 64.4831 236.051 62.0043 234.653 60.0492L230.668 55.0567C227.383 51.2164 224.273 55.0917 224.098 55.336C218.995 61.4806 222.665 72.8969 232.8 82.1138C242.901 91.3655 254.609 93.984 260.236 88.3282C260.376 88.1187 263.731 84.4529 261.354 82.7422Z" fill="white"/>
<path d="M252.232 92.4477C246.151 92.4477 238.742 89.131 231.961 82.9516C221.302 73.211 217.597 61.271 223.154 54.5679C223.748 53.8696 225.321 52.2287 227.488 52.1938C228.921 52.1589 230.284 52.8921 231.472 54.2886L235.491 59.3159C237.309 61.8645 235.631 64.8321 235.142 65.4605C234.338 66.438 232.241 68.9866 239.021 75.201C245.277 80.9266 247.619 79.2159 249.157 78.0638C251.603 76.2484 253.875 76.4928 255.063 77.2609L261.983 81.8344C262.752 82.393 263.207 83.1959 263.276 84.1037C263.486 86.5475 260.97 89.131 260.935 89.131C258.768 91.3654 255.727 92.4477 252.232 92.4477ZM227.558 54.5329C226.265 54.5329 225.181 55.7898 224.972 56.0342C220.288 61.69 223.993 72.5128 233.534 81.2409C243.11 89.9689 254.189 92.6572 259.362 87.4902C259.851 87.0014 261.145 85.3256 261.04 84.2782C261.005 84.0338 260.935 83.8593 260.69 83.6847L253.84 79.181C253.351 78.8668 252.058 78.797 250.555 79.9142C247.759 82.0089 244.229 83.0563 237.484 76.9117C231.822 71.7447 230.494 67.5203 233.394 63.9942C233.394 63.9942 234.653 62.074 233.674 60.7124L229.725 55.7549C229.026 54.9519 228.292 54.5329 227.558 54.5329Z" fill="black"/>
</svg>
