<svg width="924" height="550" viewBox="0 0 924 550" fill="none" xmlns="http://www.w3.org/2000/svg">
<path opacity="0.46" d="M403.851 548.862V476.011H427.917V531.259H434.015V443.447L463.164 414.299V497.76H473.774V426.617H506.419V445.602H520.485V384.744H547.804V549.593L403.851 548.862Z" fill="#8D58D1"/>
<g opacity="0.57">
<path d="M634.64 339.578H574.636V549.187H634.64V339.578Z" fill="url(#paint0_radial_152_4926)"/>
<path d="M636.917 339.578H619.07V549.187H636.917V339.578Z" fill="url(#paint1_radial_152_4926)"/>
<path d="M609.191 355.392H574.636V360.799H609.191V355.392Z" fill="url(#paint2_radial_152_4926)"/>
<path d="M609.191 367.588H574.636V372.995H609.191V367.588Z" fill="url(#paint3_radial_152_4926)"/>
<path d="M609.191 379.052H574.636V384.459H609.191V379.052Z" fill="url(#paint4_radial_152_4926)"/>
<path d="M609.191 391.249H574.636V396.655H609.191V391.249Z" fill="url(#paint5_radial_152_4926)"/>
<path d="M609.191 402.713H574.636V408.12H609.191V402.713Z" fill="url(#paint6_radial_152_4926)"/>
<path d="M609.191 414.868H574.636V420.275H609.191V414.868Z" fill="url(#paint7_radial_152_4926)"/>
<path d="M609.191 426.373H574.636V431.78H609.191V426.373Z" fill="url(#paint8_radial_152_4926)"/>
<path d="M609.191 438.528H574.636V443.935H609.191V438.528Z" fill="url(#paint9_radial_152_4926)"/>
<path d="M609.191 449.993H574.636V455.4H609.191V449.993Z" fill="url(#paint10_radial_152_4926)"/>
<path d="M609.191 462.189H574.636V467.596H609.191V462.189Z" fill="url(#paint11_radial_152_4926)"/>
<path d="M609.191 473.653H574.636V479.06H609.191V473.653Z" fill="url(#paint12_radial_152_4926)"/>
<path d="M609.191 485.849H574.636V491.256H609.191V485.849Z" fill="url(#paint13_radial_152_4926)"/>
<path d="M609.191 497.313H574.636V502.72H609.191V497.313Z" fill="url(#paint14_radial_152_4926)"/>
<path d="M609.191 509.509H574.636V514.916H609.191V509.509Z" fill="url(#paint15_radial_152_4926)"/>
<path d="M609.191 520.974H574.636V526.381H609.191V520.974Z" fill="url(#paint16_radial_152_4926)"/>
<path d="M609.191 533.17H574.636V538.577H609.191V533.17Z" fill="url(#paint17_radial_152_4926)"/>
<path d="M581.425 339.578L598.784 323.154H636.876V339.578H581.425Z" fill="url(#paint18_radial_152_4926)"/>
<path d="M572.075 440.073H524.104V549.594H572.075V440.073Z" fill="url(#paint19_radial_152_4926)"/>
<path d="M573.904 440.073H559.635V549.594H573.904V440.073Z" fill="url(#paint20_radial_152_4926)"/>
<path d="M535.364 449.911H529.754V455.522H535.364V449.911Z" fill="url(#paint21_radial_152_4926)"/>
<path d="M545.04 449.911H539.43V455.522H545.04V449.911Z" fill="url(#paint22_radial_152_4926)"/>
<path d="M555.162 449.911H549.552V455.522H555.162V449.911Z" fill="url(#paint23_radial_152_4926)"/>
<path d="M535.364 459.79H529.754V465.4H535.364V459.79Z" fill="url(#paint24_radial_152_4926)"/>
<path d="M545.04 459.79H539.43V465.4H545.04V459.79Z" fill="url(#paint25_radial_152_4926)"/>
<path d="M555.162 459.79H549.552V465.4H555.162V459.79Z" fill="url(#paint26_radial_152_4926)"/>
<path d="M535.364 469.71H529.754V475.32H535.364V469.71Z" fill="url(#paint27_radial_152_4926)"/>
<path d="M545.04 469.71H539.43V475.32H545.04V469.71Z" fill="url(#paint28_radial_152_4926)"/>
<path d="M555.162 469.71H549.552V475.32H555.162V469.71Z" fill="url(#paint29_radial_152_4926)"/>
<path d="M535.364 479.588H529.754V485.199H535.364V479.588Z" fill="url(#paint30_radial_152_4926)"/>
<path d="M545.04 479.588H539.43V485.199H545.04V479.588Z" fill="url(#paint31_radial_152_4926)"/>
<path d="M555.162 479.588H549.552V485.199H555.162V479.588Z" fill="url(#paint32_radial_152_4926)"/>
<path d="M535.364 489.792H529.754V495.403H535.364V489.792Z" fill="url(#paint33_radial_152_4926)"/>
<path d="M545.04 489.792H539.43V495.403H545.04V489.792Z" fill="url(#paint34_radial_152_4926)"/>
<path d="M555.162 489.792H549.552V495.403H555.162V489.792Z" fill="url(#paint35_radial_152_4926)"/>
<path d="M535.364 499.712H529.754V505.322H535.364V499.712Z" fill="url(#paint36_radial_152_4926)"/>
<path d="M545.04 499.712H539.43V505.322H545.04V499.712Z" fill="url(#paint37_radial_152_4926)"/>
<path d="M555.162 499.712H549.552V505.322H555.162V499.712Z" fill="url(#paint38_radial_152_4926)"/>
<path d="M535.364 509.631H529.754V515.242H535.364V509.631Z" fill="url(#paint39_radial_152_4926)"/>
<path d="M545.04 509.631H539.43V515.242H545.04V509.631Z" fill="url(#paint40_radial_152_4926)"/>
<path d="M555.162 509.631H549.552V515.242H555.162V509.631Z" fill="url(#paint41_radial_152_4926)"/>
<path d="M535.364 519.51H529.754V525.12H535.364V519.51Z" fill="url(#paint42_radial_152_4926)"/>
<path d="M545.04 519.51H539.43V525.12H545.04V519.51Z" fill="url(#paint43_radial_152_4926)"/>
<path d="M555.162 519.51H549.552V525.12H555.162V519.51Z" fill="url(#paint44_radial_152_4926)"/>
<path d="M544.999 529.714H529.754V542.357H544.999V529.714Z" fill="url(#paint45_radial_152_4926)"/>
<path d="M555.163 529.714H549.553V542.357H555.163V529.714Z" fill="url(#paint46_radial_152_4926)"/>
</g>
<path opacity="0.3" d="M798.88 549.268H672.407C657.447 549.268 645.21 537.032 645.21 522.071V223.919C645.21 208.959 657.447 196.722 672.407 196.722H798.88C813.84 196.722 826.077 208.959 826.077 223.919V522.071C826.036 537.032 813.8 549.268 798.88 549.268Z" fill="#8D58D1"/>
<path opacity="0.3" d="M794.001 542.113H677.245C663.382 542.113 652.08 530.771 652.08 516.949V228.188C652.08 214.325 663.422 203.023 677.245 203.023H794.001C807.864 203.023 819.166 214.365 819.166 228.188V516.949C819.166 530.812 807.864 542.113 794.001 542.113Z" fill="#BF9AED"/>
<path d="M645.454 244.124H643.096V283.761H645.454V244.124Z" fill="#625BC1"/>
<path d="M645.454 294.209H643.096V321.975H645.454V294.209Z" fill="#625BC1"/>
<path d="M828.191 294.29H825.833V322.056H828.191V294.29Z" fill="#625BC1"/>
<path d="M719.443 66.6308C718.63 66.6308 717.858 66.7121 717.085 66.8341C715.174 52.89 703.222 42.1575 688.79 42.1575C676.31 42.1575 665.699 50.1255 661.797 61.2646C661.268 61.2239 660.74 61.1833 660.211 61.1833C650.536 61.1833 642.486 68.1757 640.819 77.3633C637.242 78.5829 634.681 81.9978 634.681 86.0225C634.681 87.5673 635.047 88.9902 635.738 90.2505H642.933H651.958H667.976H708.711H709.646H730.257C732.452 87.7299 733.753 84.4777 733.753 80.8595C733.712 73.0541 727.33 66.6308 719.443 66.6308Z" fill="#2B2263"/>
<path d="M267.052 242.254C265.752 242.254 264.491 242.376 263.272 242.579C260.263 220.423 241.238 203.348 218.268 203.348C198.429 203.348 181.558 216.032 175.379 233.757C174.525 233.676 173.672 233.635 172.818 233.635C157.41 233.635 144.604 244.734 142.003 259.369C136.311 261.32 132.205 266.727 132.205 273.11C132.205 275.549 132.815 277.825 133.872 279.858H145.295H159.646H185.136H249.937H251.442H284.168C287.623 275.874 289.737 270.67 289.737 264.938C289.737 252.417 279.574 242.254 267.052 242.254Z" fill="#2B2263"/>
<path d="M365.962 99.5196C365.637 99.5196 365.352 99.5603 365.027 99.6009C364.295 94.194 359.661 90.0474 354.05 90.0474C349.213 90.0474 345.107 93.137 343.602 97.4463C343.399 97.4463 343.196 97.4056 342.993 97.4056C339.253 97.4056 336.122 100.129 335.472 103.666C334.09 104.154 333.073 105.455 333.073 107C333.073 107.61 333.236 108.138 333.48 108.626H336.244H339.74H345.96H361.775H362.14H370.149C371.003 107.65 371.491 106.39 371.491 105.008C371.491 101.999 369.011 99.5196 365.962 99.5196Z" fill="#2B2263"/>
<path d="M28.0102 300.51C12.5619 300.51 0 313.031 0 328.52H28.0102V300.51Z" fill="url(#paint47_linear_152_4926)"/>
<path d="M29.6367 324.577L48.6625 304.006C43.6621 299.372 36.995 296.567 29.6367 296.567V324.577Z" fill="url(#paint48_linear_152_4926)"/>
<path d="M46.9955 307.99L27.9697 328.561H55.9799C56.0206 320.39 52.5244 313.072 46.9955 307.99Z" fill="url(#paint49_linear_152_4926)"/>
<path d="M56.0204 337.667H0V339.7H56.0204V337.667Z" fill="url(#paint50_radial_152_4926)"/>
<path d="M56.0204 341.57H0V343.603H56.0204V341.57Z" fill="url(#paint51_radial_152_4926)"/>
<path d="M28.0102 345.473H0V347.505H28.0102V345.473Z" fill="url(#paint52_radial_152_4926)"/>
<path d="M801.644 0C787.456 0 775.992 11.5049 775.992 25.6523C775.992 39.8403 787.497 51.3046 801.644 51.3046V25.6523V0Z" fill="url(#paint53_linear_152_4926)"/>
<path d="M827.338 25.6523C827.338 11.4643 815.833 0 801.686 0V25.6523H827.338Z" fill="url(#paint54_linear_152_4926)"/>
<path d="M801.645 25.6523L820.508 43.0927C824.736 38.4988 827.337 32.4008 827.337 25.6523H801.645Z" fill="url(#paint55_linear_152_4926)"/>
<path d="M820.508 43.0927L801.645 25.6523V51.3046C809.125 51.3453 815.833 48.1743 820.508 43.0927Z" fill="url(#paint56_linear_152_4926)"/>
<path d="M891.529 17.4404H840.184V19.3105H891.529V17.4404Z" fill="url(#paint57_radial_152_4926)"/>
<path d="M891.529 13.8628H840.184V15.7329H891.529V13.8628Z" fill="url(#paint58_radial_152_4926)"/>
<path d="M865.836 21.0583H840.184V22.9284H865.836V21.0583Z" fill="url(#paint59_radial_152_4926)"/>
<path d="M891.529 28.4573H840.184V30.3273H891.529V28.4573Z" fill="url(#paint60_radial_152_4926)"/>
<path d="M891.529 32.0349H840.184V33.905H891.529V32.0349Z" fill="url(#paint61_radial_152_4926)"/>
<path d="M865.836 35.6123H840.184V37.4824H865.836V35.6123Z" fill="url(#paint62_radial_152_4926)"/>
<path d="M130.254 505.159C167.053 505.159 196.885 475.328 196.885 438.528C196.885 401.729 167.053 371.897 130.254 371.897C93.4547 371.897 63.623 401.729 63.623 438.528C63.623 475.328 93.4547 505.159 130.254 505.159Z" fill="url(#paint63_linear_152_4926)"/>
<path d="M130.254 494.102C160.946 494.102 185.827 469.221 185.827 438.528C185.827 407.836 160.946 382.955 130.254 382.955C99.5616 382.955 74.6807 407.836 74.6807 438.528C74.6807 469.221 99.5616 494.102 130.254 494.102Z" fill="url(#paint64_linear_152_4926)"/>
<path d="M146.719 451.822C146.719 443.691 141.962 439.179 132.571 435.561C124.929 432.593 121.554 430.073 121.554 424.869C121.554 421.088 124.441 416.576 132.002 416.576C135.092 416.576 137.694 417.185 139.645 417.917C141.271 418.486 143.019 417.633 143.588 416.006C144.117 414.421 143.304 412.673 141.718 412.144C139.889 411.494 137.653 411.006 134.97 410.803V401.087C134.97 399.786 133.913 398.729 132.612 398.729C131.311 398.729 130.254 399.786 130.254 401.087V410.803C120.619 411.535 114.359 417.673 114.359 425.763C114.359 433.569 119.928 438.244 128.994 441.456C136.474 444.342 139.442 447.269 139.442 452.473C139.442 458.042 135.173 461.904 127.856 461.904C124.359 461.904 120.944 461.05 118.139 459.871C116.432 459.14 114.521 460.034 113.993 461.823V461.863C113.546 463.368 114.277 464.994 115.741 465.604C118.912 466.905 123.302 467.84 127.368 467.84C128.384 467.84 129.36 467.799 130.295 467.718V476.133C130.295 477.434 131.352 478.491 132.653 478.491C133.954 478.491 135.011 477.434 135.011 476.133V466.864C142.857 464.465 146.719 458.489 146.719 451.822Z" fill="white"/>
<path d="M431.333 374.743C445.388 374.743 456.782 363.349 456.782 349.294C456.782 335.239 445.388 323.845 431.333 323.845C417.278 323.845 405.884 335.239 405.884 349.294C405.884 363.349 417.278 374.743 431.333 374.743Z" stroke="#BD8AFF" stroke-width="3" stroke-miterlimit="10"/>
<path d="M431.332 370.515C443.052 370.515 452.553 361.014 452.553 349.294C452.553 337.574 443.052 328.073 431.332 328.073C419.612 328.073 410.111 337.574 410.111 349.294C410.111 361.014 419.612 370.515 431.332 370.515Z" stroke="#BD8AFF" stroke-width="3" stroke-miterlimit="10"/>
<path d="M437.634 354.376C437.634 351.286 435.805 349.538 432.227 348.156C429.3 347.018 428.04 346.042 428.04 344.09C428.04 342.627 429.137 340.919 432.024 340.919C433.203 340.919 434.219 341.163 434.951 341.448C435.561 341.692 436.252 341.326 436.455 340.716C436.658 340.106 436.333 339.456 435.723 339.253C435.032 339.009 434.178 338.806 433.162 338.724V335.025C433.162 334.537 432.756 334.13 432.268 334.13C431.78 334.13 431.373 334.537 431.373 335.025V338.724C427.674 339.009 425.275 341.367 425.275 344.456C425.275 347.424 427.43 349.213 430.845 350.473C433.691 351.571 434.829 352.709 434.829 354.66C434.829 356.815 433.203 358.278 430.398 358.278C429.056 358.278 427.755 357.953 426.698 357.506C426.048 357.222 425.316 357.587 425.113 358.238C424.95 358.807 425.235 359.417 425.804 359.661C427.023 360.149 428.69 360.514 430.235 360.514C430.642 360.514 431.008 360.514 431.373 360.474V363.685C431.373 364.173 431.78 364.58 432.268 364.58C432.756 364.58 433.162 364.173 433.162 363.685V360.149C436.171 359.173 437.634 356.896 437.634 354.376Z" stroke="#BD8AFF" stroke-width="3" stroke-miterlimit="10"/>
<path d="M891.488 262.702L908.604 250.547H891.488H874.414L891.488 262.702Z" stroke="#BD8AFF" stroke-width="3" stroke-miterlimit="10" stroke-linejoin="round"/>
<path d="M874.414 250.547V269.695L887.87 260.141L874.414 250.547Z" stroke="#BD8AFF" stroke-width="3" stroke-miterlimit="10" stroke-linejoin="round"/>
<path d="M908.604 250.547V269.695L895.147 260.141L908.604 250.547Z" stroke="#BD8AFF" stroke-width="3" stroke-miterlimit="10" stroke-linejoin="round"/>
<path d="M874.414 269.695H908.604L895.147 260.141L891.488 262.702L887.87 260.141L874.414 269.695Z" stroke="#BD8AFF" stroke-width="3" stroke-miterlimit="10" stroke-linejoin="round"/>
<path d="M891.488 291.932C909.046 291.932 923.279 277.699 923.279 260.141C923.279 242.583 909.046 228.35 891.488 228.35C873.931 228.35 859.697 242.583 859.697 260.141C859.697 277.699 873.931 291.932 891.488 291.932Z" stroke="#BD8AFF" stroke-width="3" stroke-miterlimit="10" stroke-linejoin="round"/>
<path d="M512.112 31.7095H508.087V66.1836H512.112V31.7095Z" stroke="#BD8AFF" stroke-width="3" stroke-miterlimit="10" stroke-linejoin="round"/>
<path d="M520.486 41.7915H516.461V66.1835H520.486V41.7915Z" stroke="#BD8AFF" stroke-width="3" stroke-miterlimit="10" stroke-linejoin="round"/>
<path d="M528.658 36.9131H524.633V66.1835H528.658V36.9131Z" stroke="#BD8AFF" stroke-width="3" stroke-miterlimit="10" stroke-linejoin="round"/>
<path d="M536.828 31.7095H532.804V66.1836H536.828V31.7095Z" stroke="#BD8AFF" stroke-width="3" stroke-miterlimit="10" stroke-linejoin="round"/>
<path d="M544.959 46.2634H540.935V66.2242H544.959V46.2634Z" stroke="#BD8AFF" stroke-width="3" stroke-miterlimit="10" stroke-linejoin="round"/>
<path d="M544.959 69.5171H503.249V31.7095H503.452V69.3139H544.959V69.5171Z" stroke="#BD8AFF" stroke-width="3" stroke-miterlimit="10" stroke-linejoin="round"/>
<path d="M524.104 92.1205C545.142 92.1205 562.196 75.066 562.196 54.0283C562.196 32.9905 545.142 15.936 524.104 15.936C503.066 15.936 486.012 32.9905 486.012 54.0283C486.012 75.066 503.066 92.1205 524.104 92.1205Z" stroke="#BD8AFF" stroke-width="3" stroke-miterlimit="10" stroke-linejoin="round"/>
<path d="M887.545 154.727C887.016 154.727 886.528 154.768 886.041 154.849C884.821 146.027 877.26 139.197 868.072 139.197C860.144 139.197 853.437 144.279 850.957 151.312C850.632 151.271 850.266 151.271 849.94 151.271C843.802 151.271 838.679 155.703 837.622 161.557C835.346 162.329 833.72 164.484 833.72 167.045C833.72 168.021 833.964 168.915 834.37 169.728H838.923H844.655H854.819H880.674H881.284H894.375C895.757 168.142 896.611 166.069 896.611 163.793C896.611 158.792 892.545 154.727 887.545 154.727Z" fill="#2B2263"/>
<path d="M359.051 338.236C359.051 338.236 312.624 408.323 266.198 349.294L301.689 308.925L318.397 300.794L354.132 290.021C354.132 290.021 361.693 316.568 359.051 338.236Z" fill="url(#paint65_radial_152_4926)"/>
<path d="M252.986 535.975C252.986 535.975 257.824 546.219 268.15 545.081C278.476 543.943 276.809 549.837 276.809 549.837H250.018L247.945 544.796L246.807 549.837H242.904C242.904 549.837 242.66 538.048 246.116 533.861C249.571 529.673 252.986 535.975 252.986 535.975Z" fill="#F77B64"/>
<path d="M320.634 535.975C320.634 535.975 325.471 546.219 335.797 545.081C346.123 543.943 344.457 549.837 344.457 549.837H317.666L315.593 544.796L314.454 549.837H310.552C310.552 549.837 310.308 538.048 313.763 533.861C317.178 529.673 320.634 535.975 320.634 535.975Z" fill="#F77B64"/>
<path d="M353.156 300.632L346.164 414.014L323.845 537.519H310.796C310.796 537.519 293.233 478.043 316.284 428.649L315.552 351.652L288.599 437.634L256.279 537.519H244.246C244.246 537.519 235.505 470.197 262.418 435.398C262.418 435.398 260.426 354.254 293.965 314.86C327.504 275.467 353.156 300.632 353.156 300.632Z" fill="#22CDC6"/>
<path opacity="0.06" d="M352.14 317.544L351.611 326.365L336.326 334.618L329.74 316.365L322.829 336L284.655 328.357L289.493 320.674L321.04 303.478L341.448 305.388L352.14 317.544Z" fill="black"/>
<path d="M462.636 235.058C429.625 243.107 398.119 229.976 376.207 216.357C365.84 209.893 357.628 203.308 352.424 198.836C348.562 195.461 346.367 193.266 346.245 193.104L348.4 208.999L349.497 217.048L352.424 239.001C352.912 239.53 353.4 240.058 353.888 240.587C355.88 242.66 357.994 244.53 360.189 246.197C377.508 259.247 400.843 259.572 421.129 256.035C445.561 251.807 465.644 241.969 465.644 241.969L462.636 235.058Z" fill="url(#paint66_radial_152_4926)"/>
<path opacity="0.06" d="M421.047 256.035C398.159 260.019 371.45 259.084 353.807 240.587C353.319 240.058 352.831 239.53 352.343 239.001L349.416 217.048L351.611 211.885C351.733 212.251 371.288 260.832 421.047 256.035Z" fill="black"/>
<path d="M283.435 230.22C280.386 221.236 276.362 211.357 272.256 207.414C272.256 207.414 264.45 213.959 255.588 229.366C254.083 231.968 252.579 234.814 251.034 237.904C240.343 259.653 229.732 294.29 230.301 345.473H236.968C236.968 345.473 242.538 323.194 253.026 299.168C259.287 284.818 267.296 269.817 276.931 258.556C278.028 257.255 279.167 256.035 280.305 254.815C282.947 252.051 285.712 249.612 288.598 247.579C288.598 247.579 286.525 239.367 283.435 230.22Z" fill="url(#paint67_radial_152_4926)"/>
<path d="M236.928 345.473C236.928 345.473 239.652 351.652 244.246 353.278C244.246 353.278 243.27 355.595 238.636 353.278L238.31 357.547C238.31 357.547 229.773 359.01 228.432 354.904L230.22 345.432H236.928V345.473Z" fill="url(#paint68_linear_152_4926)"/>
<path opacity="0.06" d="M288.599 224.203V247.579C273.639 258.312 261.646 279.329 253.027 299.168C258.556 265.263 274.98 240.912 283.436 230.22C286.526 226.277 288.599 224.203 288.599 224.203Z" fill="black"/>
<path d="M471.011 226.846L483.166 219.122C483.166 219.122 487.11 219.528 483.654 222.496C480.199 225.464 474.019 228.919 474.019 228.919L485.036 224.407C485.036 224.407 485.931 227.374 480.402 228.919L475.076 232.375L485.768 228.35C485.768 228.35 484.955 231.48 481.5 231.643L476.093 234.855L484.711 233.066C484.711 233.066 483.41 235.708 480.361 235.546L470.157 238.92L471.011 226.846Z" fill="url(#paint69_linear_152_4926)"/>
<path d="M354.132 261.686C354.092 282.907 353.197 316.975 353.197 316.975C353.197 316.975 339.05 324.577 338.196 324.821C337.343 325.105 331.123 308.966 331.123 308.966L323.846 328.723L285.713 323.113C285.713 323.113 295.388 307.258 297.055 294.453C300.755 266.198 272.216 207.373 272.216 207.373C283.111 200.137 305.308 193.104 305.308 193.104L323.886 192.9L346.205 193.104C348.644 196.6 350.392 203.389 351.612 211.886C352.791 220.26 353.482 230.302 353.807 240.587C354.051 247.661 354.132 254.856 354.132 261.686Z" fill="url(#paint70_radial_152_4926)"/>
<path d="M305.308 166.313L301.689 195.868L319.943 197.494L323.846 192.9C323.846 192.9 320.146 174.769 322.016 163.061C323.927 151.312 306.771 149.564 305.308 166.313Z" fill="url(#paint71_linear_152_4926)"/>
<path d="M307.665 154.646L309.617 173.062H323.845V141.515C323.886 141.515 305.714 136.23 307.665 154.646Z" fill="url(#paint72_linear_152_4926)"/>
<path d="M308.235 160.052C308.235 160.052 310.714 152.044 310.186 143.791C310.186 143.791 327.057 145.092 328.927 140.823C330.797 136.595 328.358 130.294 323.845 132.408C319.292 134.481 322.016 138.465 314.292 138.262C306.527 138.059 307.503 142.449 307.503 142.449C307.503 142.449 302.99 143.71 302.99 148.71C302.99 153.751 305.307 166.313 305.307 166.313L308.235 160.052Z" fill="#4A474E"/>
<path d="M308.235 160.053L307.584 152.369C307.584 152.369 305.836 151.678 305.064 154.727C304.332 157.776 306.527 160.906 308.235 160.053Z" fill="url(#paint73_linear_152_4926)"/>
<path d="M462.636 235.058C462.636 235.058 462.961 227.984 470.685 223.716C478.409 219.447 476.458 220.423 476.458 220.423C476.458 220.423 476.092 226.114 471.051 226.846C471.051 226.846 474.344 234.895 472.515 237.7C470.726 240.505 465.603 241.969 465.603 241.969L462.636 235.058Z" fill="url(#paint74_linear_152_4926)"/>
<path d="M319.943 197.494L312.788 207.373L301.689 195.827L319.943 197.494Z" fill="url(#paint75_radial_152_4926)"/>
<path d="M319.942 197.494L326.447 203.592V192.86H323.886L319.942 197.494Z" fill="url(#paint76_radial_152_4926)"/>
<path d="M320.227 197.047L326 202.535L323.723 209.934H319.129L315.552 203.511L320.227 197.047Z" fill="url(#paint77_radial_152_4926)"/>
<path d="M300.306 194.771C300.306 194.771 307.827 204.08 310.836 219.285C313.844 234.489 333.683 322.422 266.198 349.294L295.835 281.444L272.215 207.414C272.215 207.373 277.459 200.625 300.306 194.771Z" fill="url(#paint78_radial_152_4926)"/>
<path d="M326.447 192.86C326.447 192.86 361.694 296.688 359.051 338.196C359.051 338.196 362.873 299.25 354.986 272.012C354.986 272.012 356.531 205.056 346.205 193.063L326.447 192.86Z" fill="#8D58D1"/>
<path d="M323.723 209.934C323.723 209.934 338.481 236.318 330.96 261.645C323.439 286.972 275.387 319.088 275.387 319.088L258.597 316.568L263.231 303.03C263.231 303.03 319.617 270.345 323.723 251.116C328.439 228.96 319.13 209.934 319.13 209.934H323.723Z" fill="url(#paint79_radial_152_4926)"/>
<path d="M587.442 261.564L579.312 266.849C579.312 266.849 580.938 268.475 584.596 266.036C588.255 263.597 589.678 262.499 589.678 262.499L584.596 270.101C584.596 270.101 586.223 270.914 587.849 268.475C589.475 266.036 591.833 264.735 591.833 264.735L588.255 271.321C588.255 271.321 588.946 271.809 590.247 269.979C591.548 268.15 592.158 267.134 592.158 267.134L594.353 266.646L592.443 262.743L587.605 261.157L587.442 261.564Z" fill="url(#paint80_linear_152_4926)"/>
<path d="M721.191 180.664L671.919 245.668C671.919 245.668 645.982 236.481 600.613 257.011L604.272 266.28C604.272 266.28 657.365 277.053 680.619 267.581C703.873 258.108 731.639 219.406 731.639 219.406L721.191 180.664Z" fill="url(#paint81_linear_152_4926)"/>
<path d="M802.539 522.884L809.531 532.803L803.27 535.771L800.14 530.852L798.717 540.08L772.536 548.658C772.536 548.658 769.284 544.796 783.919 540.528L791.034 523.575L802.539 522.884Z" fill="#8D58D1"/>
<path d="M751.844 402.834C751.844 402.834 808.962 448.57 804.978 523.534H789.449L744.445 435.073L751.844 402.834Z" fill="#150329"/>
<path d="M720.825 291.322L729.281 536.95H746.112C746.112 536.95 772.414 470.238 753.307 423.852C753.307 423.852 772.618 355.392 764.121 306.161L756.153 291.322H720.825Z" fill="#150329"/>
<path d="M722.614 181.477C722.614 181.477 703.995 240.749 720.825 291.322H749.892L778.025 183.997C778.025 183.997 747.453 165.663 722.614 181.477Z" fill="url(#paint82_linear_152_4926)"/>
<path d="M761.642 178.672C761.642 178.672 754.121 159.605 746.275 143.791L734.729 147.653C734.729 147.653 738.429 167.695 738.429 178.712C738.307 176.517 731.884 182.859 761.642 178.672Z" fill="url(#paint83_linear_152_4926)"/>
<path d="M730.501 137.287L729.281 161.069C729.281 161.069 741.924 162.41 743.388 156.15C744.892 149.889 744.811 136.636 744.811 136.636C744.811 136.636 737.168 117.936 730.501 137.287Z" fill="url(#paint84_linear_152_4926)"/>
<path d="M731.924 133.79C731.924 133.79 726.233 133.221 726.517 129.481C726.802 125.741 729.973 128.424 734.201 127.774C738.429 127.123 743.998 127.855 744.405 132.286C744.405 132.286 748.226 132.571 747.82 139.116C747.413 145.661 748.836 149.035 748.836 149.035C748.836 149.035 741.681 147.531 741.965 133.872C742.006 133.831 735.176 134.766 731.924 133.79Z" fill="#4A474E"/>
<path d="M744.526 146.677L744.852 140.173C744.852 140.173 746.559 138.791 747.331 141.636C748.104 144.482 744.526 146.677 744.526 146.677Z" fill="url(#paint85_linear_152_4926)"/>
<path d="M760.869 174.891L739.566 179.647L741.111 188.063L766.276 178.55L760.869 174.891Z" fill="url(#paint86_radial_152_4926)"/>
<path d="M739.567 179.647L735.786 182.859V175.541L738.307 174.891L739.567 179.647Z" fill="url(#paint87_radial_152_4926)"/>
<path d="M750.543 181.761C750.543 181.761 730.582 308.234 793.27 347.505C793.27 347.505 776.114 295.713 757.495 272.052L779.082 183.306L760.869 174.85L750.543 181.761Z" fill="url(#paint88_linear_152_4926)"/>
<path d="M735.786 175.541C735.786 175.541 711.434 188.998 713.752 249.612C713.752 249.612 709.442 208.227 721.069 180.623L735.786 175.541Z" fill="url(#paint89_linear_152_4926)"/>
<path d="M739.567 179.647L733.916 184.526L733.144 192.534L735.786 193.754L740.868 186.68L739.567 179.647Z" fill="url(#paint90_linear_152_4926)"/>
<path d="M733.144 192.534C733.144 192.534 712.858 221.236 716.842 256.279C720.826 291.322 761.642 296.201 761.642 296.201L778.025 288.233L766.236 277.581C766.236 277.581 726.151 275.345 724.363 249.652C722.574 223.919 735.746 193.754 735.746 193.754L733.144 192.534Z" fill="#F77B64"/>
<path d="M743.226 536.95L746.356 549.675H737.778V545.691L733.469 550H702.45C702.45 550 704.686 544.796 715.744 546.138L733.103 536.95H743.226Z" fill="#8D58D1"/>
<path d="M587.32 258.637L576.953 262.377C576.953 262.377 577.888 266.239 587.482 261.401L594.353 266.686L603.54 264.45L593.621 258.393L587.32 258.637Z" fill="url(#paint91_linear_152_4926)"/>
<path d="M600.654 257.051L584.596 255.507C584.596 255.507 586.669 261.483 593.661 258.352C593.661 258.352 596.06 266.28 603.581 264.41L600.654 257.051Z" fill="url(#paint92_linear_152_4926)"/>
<path d="M599.516 255.872L604.109 267.459L609.272 268.394L604.719 253.311L599.516 255.872Z" fill="url(#paint93_linear_152_4926)"/>
<path d="M760.869 174.891L757.78 211.885L750.95 215.463L754.934 226.561L750.95 271.158C750.95 271.158 741.153 213.918 750.503 181.761L760.869 174.891Z" fill="url(#paint94_linear_152_4926)"/>
<path d="M538.942 229.407C534.023 226.195 528.291 225.26 522.925 226.358L539.958 200.34L513.9 183.265C517.802 181.68 521.258 178.956 523.738 175.175C530.202 165.297 527.437 152.044 517.558 145.539C507.68 139.075 494.427 141.84 487.922 151.718C485.442 155.499 484.345 159.768 484.426 163.996L462.473 149.645L445.968 174.891C444.626 170.094 441.577 165.744 437.105 162.776C427.227 156.312 413.974 159.077 407.469 168.955C401.005 178.834 403.77 192.087 413.648 198.592C418.161 201.519 423.364 202.576 428.284 201.885L411.778 227.13L431.658 240.14C432.186 237.741 433.203 235.342 434.625 233.147C441.089 223.268 454.342 220.504 464.262 226.968C474.181 233.432 476.905 246.685 470.441 256.604C469.018 258.799 467.23 260.67 465.238 262.133L489.223 277.825L506.257 251.807C507.395 257.133 510.566 262.011 515.485 265.263C525.364 271.727 538.617 268.963 545.121 259.084C551.585 249.165 548.821 235.871 538.942 229.407Z" fill="url(#paint95_linear_152_4926)"/>
<path d="M843.355 348.278C839.086 345.432 834.086 344.538 829.411 345.432L844.574 322.869L821.971 307.665C825.386 306.323 828.476 303.966 830.671 300.673C836.444 292.095 834.126 280.468 825.549 274.695C816.971 268.922 805.344 271.24 799.571 279.817C797.376 283.11 796.359 286.85 796.4 290.509L777.374 277.744L762.658 299.616C761.519 295.388 758.918 291.566 755.015 288.924C746.437 283.151 734.81 285.468 729.037 294.046C723.265 302.624 725.582 314.251 734.16 320.024C738.062 322.666 742.616 323.601 746.925 323.032L732.208 344.904L749.445 356.49C749.933 354.376 750.828 352.343 752.129 350.432C757.901 341.855 769.528 339.578 778.106 345.31C786.684 351.083 788.96 362.71 783.228 371.288C781.968 373.198 780.383 374.784 778.635 376.044L799.449 390.029L814.613 367.466C815.548 372.141 818.272 376.451 822.54 379.296C831.118 385.069 842.745 382.793 848.518 374.174C854.209 365.637 851.933 354.01 843.355 348.278Z" fill="url(#paint96_linear_152_4926)"/>
<path d="M779.001 182.859C779.001 182.859 813.475 210.259 812.174 267.906C810.832 325.552 790.018 343.765 790.018 343.765L784.245 338.887C784.245 338.887 805.913 265.67 768.878 222.862L779.001 182.859Z" fill="url(#paint97_linear_152_4926)"/>
<path d="M784.53 339.252C784.53 339.252 774.976 339.984 774.041 343.358C773.106 346.733 775.545 345.228 774.976 347.464C774.407 349.7 779.855 353.847 783.026 353.847C786.196 353.847 789.408 343.358 789.408 343.358L784.53 339.252Z" fill="url(#paint98_linear_152_4926)"/>
<path d="M784.204 338.887L789.977 343.765L793.27 339.984L785.302 334.74L784.204 338.887Z" fill="url(#paint99_linear_152_4926)"/>
<defs>
<radialGradient id="paint0_radial_152_4926" cx="0" cy="0" r="1" gradientUnits="userSpaceOnUse" gradientTransform="translate(365.298 272.74) scale(289.25 289.25)">
<stop offset="0.00055627" stop-color="#7929B7"/>
<stop offset="0.0501306" stop-color="#7628B5"/>
<stop offset="1" stop-color="#310B7A"/>
</radialGradient>
<radialGradient id="paint1_radial_152_4926" cx="0" cy="0" r="1" gradientUnits="userSpaceOnUse" gradientTransform="translate(549.842 39.6155) scale(121.055 622.828)">
<stop offset="0.00055627" stop-color="#7929B7"/>
<stop offset="0.0501306" stop-color="#7628B5"/>
<stop offset="1" stop-color="#310B7A"/>
</radialGradient>
<radialGradient id="paint2_radial_152_4926" cx="0" cy="0" r="1" gradientUnits="userSpaceOnUse" gradientTransform="translate(478.258 302.974) scale(400.93 400.929)">
<stop stop-color="#E20081"/>
<stop offset="0.5464" stop-color="#FFB048"/>
<stop offset="1" stop-color="#FFFC9F"/>
</radialGradient>
<radialGradient id="paint3_radial_152_4926" cx="0" cy="0" r="1" gradientUnits="userSpaceOnUse" gradientTransform="translate(478.258 302.974) scale(400.929 400.929)">
<stop stop-color="#E20081"/>
<stop offset="0.5464" stop-color="#FFB048"/>
<stop offset="1" stop-color="#FFFC9F"/>
</radialGradient>
<radialGradient id="paint4_radial_152_4926" cx="0" cy="0" r="1" gradientUnits="userSpaceOnUse" gradientTransform="translate(478.258 302.974) scale(400.93 400.929)">
<stop stop-color="#E20081"/>
<stop offset="0.5464" stop-color="#FFB048"/>
<stop offset="1" stop-color="#FFFC9F"/>
</radialGradient>
<radialGradient id="paint5_radial_152_4926" cx="0" cy="0" r="1" gradientUnits="userSpaceOnUse" gradientTransform="translate(478.258 302.973) scale(400.93 400.93)">
<stop stop-color="#E20081"/>
<stop offset="0.5464" stop-color="#FFB048"/>
<stop offset="1" stop-color="#FFFC9F"/>
</radialGradient>
<radialGradient id="paint6_radial_152_4926" cx="0" cy="0" r="1" gradientUnits="userSpaceOnUse" gradientTransform="translate(478.258 302.973) scale(400.93 400.932)">
<stop stop-color="#E20081"/>
<stop offset="0.5464" stop-color="#FFB048"/>
<stop offset="1" stop-color="#FFFC9F"/>
</radialGradient>
<radialGradient id="paint7_radial_152_4926" cx="0" cy="0" r="1" gradientUnits="userSpaceOnUse" gradientTransform="translate(478.258 302.973) scale(400.929 400.93)">
<stop stop-color="#E20081"/>
<stop offset="0.5464" stop-color="#FFB048"/>
<stop offset="1" stop-color="#FFFC9F"/>
</radialGradient>
<radialGradient id="paint8_radial_152_4926" cx="0" cy="0" r="1" gradientUnits="userSpaceOnUse" gradientTransform="translate(478.258 302.975) scale(400.929 400.927)">
<stop stop-color="#E20081"/>
<stop offset="0.5464" stop-color="#FFB048"/>
<stop offset="1" stop-color="#FFFC9F"/>
</radialGradient>
<radialGradient id="paint9_radial_152_4926" cx="0" cy="0" r="1" gradientUnits="userSpaceOnUse" gradientTransform="translate(478.258 302.974) scale(400.928 400.93)">
<stop stop-color="#E20081"/>
<stop offset="0.5464" stop-color="#FFB048"/>
<stop offset="1" stop-color="#FFFC9F"/>
</radialGradient>
<radialGradient id="paint10_radial_152_4926" cx="0" cy="0" r="1" gradientUnits="userSpaceOnUse" gradientTransform="translate(478.258 302.975) scale(400.929 400.927)">
<stop stop-color="#E20081"/>
<stop offset="0.5464" stop-color="#FFB048"/>
<stop offset="1" stop-color="#FFFC9F"/>
</radialGradient>
<radialGradient id="paint11_radial_152_4926" cx="0" cy="0" r="1" gradientUnits="userSpaceOnUse" gradientTransform="translate(478.258 302.974) scale(400.93 400.928)">
<stop stop-color="#E20081"/>
<stop offset="0.5464" stop-color="#FFB048"/>
<stop offset="1" stop-color="#FFFC9F"/>
</radialGradient>
<radialGradient id="paint12_radial_152_4926" cx="0" cy="0" r="1" gradientUnits="userSpaceOnUse" gradientTransform="translate(478.258 302.972) scale(400.93 400.932)">
<stop stop-color="#E20081"/>
<stop offset="0.5464" stop-color="#FFB048"/>
<stop offset="1" stop-color="#FFFC9F"/>
</radialGradient>
<radialGradient id="paint13_radial_152_4926" cx="0" cy="0" r="1" gradientUnits="userSpaceOnUse" gradientTransform="translate(478.258 302.973) scale(400.929 400.931)">
<stop stop-color="#E20081"/>
<stop offset="0.5464" stop-color="#FFB048"/>
<stop offset="1" stop-color="#FFFC9F"/>
</radialGradient>
<radialGradient id="paint14_radial_152_4926" cx="0" cy="0" r="1" gradientUnits="userSpaceOnUse" gradientTransform="translate(478.258 302.976) scale(400.928 400.926)">
<stop stop-color="#E20081"/>
<stop offset="0.5464" stop-color="#FFB048"/>
<stop offset="1" stop-color="#FFFC9F"/>
</radialGradient>
<radialGradient id="paint15_radial_152_4926" cx="0" cy="0" r="1" gradientUnits="userSpaceOnUse" gradientTransform="translate(478.258 302.976) scale(400.929 400.926)">
<stop stop-color="#E20081"/>
<stop offset="0.5464" stop-color="#FFB048"/>
<stop offset="1" stop-color="#FFFC9F"/>
</radialGradient>
<radialGradient id="paint16_radial_152_4926" cx="0" cy="0" r="1" gradientUnits="userSpaceOnUse" gradientTransform="translate(478.258 302.974) scale(400.928 400.929)">
<stop stop-color="#E20081"/>
<stop offset="0.5464" stop-color="#FFB048"/>
<stop offset="1" stop-color="#FFFC9F"/>
</radialGradient>
<radialGradient id="paint17_radial_152_4926" cx="0" cy="0" r="1" gradientUnits="userSpaceOnUse" gradientTransform="translate(478.258 302.972) scale(400.931 400.933)">
<stop stop-color="#E20081"/>
<stop offset="0.5464" stop-color="#FFB048"/>
<stop offset="1" stop-color="#FFFC9F"/>
</radialGradient>
<radialGradient id="paint18_radial_152_4926" cx="0" cy="0" r="1" gradientUnits="userSpaceOnUse" gradientTransform="translate(523.951 293.42) scale(106.304 106.304)">
<stop offset="0.00055627" stop-color="#7929B7"/>
<stop offset="0.0501306" stop-color="#7628B5"/>
<stop offset="1" stop-color="#310B7A"/>
</radialGradient>
<radialGradient id="paint19_radial_152_4926" cx="0" cy="0" r="1" gradientUnits="userSpaceOnUse" gradientTransform="translate(557.637 410.669) scale(230.159 230.159)">
<stop offset="0.00055627" stop-color="#7929B7"/>
<stop offset="0.0501306" stop-color="#7628B5"/>
<stop offset="1" stop-color="#310B7A"/>
</radialGradient>
<radialGradient id="paint20_radial_152_4926" cx="0" cy="0" r="1" gradientUnits="userSpaceOnUse" gradientTransform="translate(1269.37 410.669) scale(68.4195 230.136)">
<stop offset="0.00055627" stop-color="#7929B7"/>
<stop offset="0.0501306" stop-color="#7628B5"/>
<stop offset="1" stop-color="#310B7A"/>
</radialGradient>
<radialGradient id="paint21_radial_152_4926" cx="0" cy="0" r="1" gradientUnits="userSpaceOnUse" gradientTransform="translate(557.637 410.669) scale(230.16)">
<stop stop-color="#E20081"/>
<stop offset="0.5464" stop-color="#FFB048"/>
<stop offset="1" stop-color="#FFFC9F"/>
</radialGradient>
<radialGradient id="paint22_radial_152_4926" cx="0" cy="0" r="1" gradientUnits="userSpaceOnUse" gradientTransform="translate(557.637 410.669) scale(230.158 230.16)">
<stop stop-color="#E20081"/>
<stop offset="0.5464" stop-color="#FFB048"/>
<stop offset="1" stop-color="#FFFC9F"/>
</radialGradient>
<radialGradient id="paint23_radial_152_4926" cx="0" cy="0" r="1" gradientUnits="userSpaceOnUse" gradientTransform="translate(557.636 410.669) scale(230.158 230.16)">
<stop stop-color="#E20081"/>
<stop offset="0.5464" stop-color="#FFB048"/>
<stop offset="1" stop-color="#FFFC9F"/>
</radialGradient>
<radialGradient id="paint24_radial_152_4926" cx="0" cy="0" r="1" gradientUnits="userSpaceOnUse" gradientTransform="translate(557.637 410.669) scale(230.16)">
<stop stop-color="#E20081"/>
<stop offset="0.5464" stop-color="#FFB048"/>
<stop offset="1" stop-color="#FFFC9F"/>
</radialGradient>
<radialGradient id="paint25_radial_152_4926" cx="0" cy="0" r="1" gradientUnits="userSpaceOnUse" gradientTransform="translate(557.637 410.669) scale(230.158 230.16)">
<stop stop-color="#E20081"/>
<stop offset="0.5464" stop-color="#FFB048"/>
<stop offset="1" stop-color="#FFFC9F"/>
</radialGradient>
<radialGradient id="paint26_radial_152_4926" cx="0" cy="0" r="1" gradientUnits="userSpaceOnUse" gradientTransform="translate(557.636 410.669) scale(230.158 230.16)">
<stop stop-color="#E20081"/>
<stop offset="0.5464" stop-color="#FFB048"/>
<stop offset="1" stop-color="#FFFC9F"/>
</radialGradient>
<radialGradient id="paint27_radial_152_4926" cx="0" cy="0" r="1" gradientUnits="userSpaceOnUse" gradientTransform="translate(557.637 410.67) scale(230.16 230.158)">
<stop stop-color="#E20081"/>
<stop offset="0.5464" stop-color="#FFB048"/>
<stop offset="1" stop-color="#FFFC9F"/>
</radialGradient>
<radialGradient id="paint28_radial_152_4926" cx="0" cy="0" r="1" gradientUnits="userSpaceOnUse" gradientTransform="translate(557.637 410.67) scale(230.158)">
<stop stop-color="#E20081"/>
<stop offset="0.5464" stop-color="#FFB048"/>
<stop offset="1" stop-color="#FFFC9F"/>
</radialGradient>
<radialGradient id="paint29_radial_152_4926" cx="0" cy="0" r="1" gradientUnits="userSpaceOnUse" gradientTransform="translate(557.636 410.67) scale(230.158)">
<stop stop-color="#E20081"/>
<stop offset="0.5464" stop-color="#FFB048"/>
<stop offset="1" stop-color="#FFFC9F"/>
</radialGradient>
<radialGradient id="paint30_radial_152_4926" cx="0" cy="0" r="1" gradientUnits="userSpaceOnUse" gradientTransform="translate(557.637 410.669) scale(230.161)">
<stop stop-color="#E20081"/>
<stop offset="0.5464" stop-color="#FFB048"/>
<stop offset="1" stop-color="#FFFC9F"/>
</radialGradient>
<radialGradient id="paint31_radial_152_4926" cx="0" cy="0" r="1" gradientUnits="userSpaceOnUse" gradientTransform="translate(557.637 410.669) scale(230.159 230.161)">
<stop stop-color="#E20081"/>
<stop offset="0.5464" stop-color="#FFB048"/>
<stop offset="1" stop-color="#FFFC9F"/>
</radialGradient>
<radialGradient id="paint32_radial_152_4926" cx="0" cy="0" r="1" gradientUnits="userSpaceOnUse" gradientTransform="translate(557.636 410.669) scale(230.159 230.161)">
<stop stop-color="#E20081"/>
<stop offset="0.5464" stop-color="#FFB048"/>
<stop offset="1" stop-color="#FFFC9F"/>
</radialGradient>
<radialGradient id="paint33_radial_152_4926" cx="0" cy="0" r="1" gradientUnits="userSpaceOnUse" gradientTransform="translate(557.637 410.67) scale(230.161 230.159)">
<stop stop-color="#E20081"/>
<stop offset="0.5464" stop-color="#FFB048"/>
<stop offset="1" stop-color="#FFFC9F"/>
</radialGradient>
<radialGradient id="paint34_radial_152_4926" cx="0" cy="0" r="1" gradientUnits="userSpaceOnUse" gradientTransform="translate(557.637 410.67) scale(230.158)">
<stop stop-color="#E20081"/>
<stop offset="0.5464" stop-color="#FFB048"/>
<stop offset="1" stop-color="#FFFC9F"/>
</radialGradient>
<radialGradient id="paint35_radial_152_4926" cx="0" cy="0" r="1" gradientUnits="userSpaceOnUse" gradientTransform="translate(557.636 410.67) scale(230.158)">
<stop stop-color="#E20081"/>
<stop offset="0.5464" stop-color="#FFB048"/>
<stop offset="1" stop-color="#FFFC9F"/>
</radialGradient>
<radialGradient id="paint36_radial_152_4926" cx="0" cy="0" r="1" gradientUnits="userSpaceOnUse" gradientTransform="translate(557.637 410.669) scale(230.159)">
<stop stop-color="#E20081"/>
<stop offset="0.5464" stop-color="#FFB048"/>
<stop offset="1" stop-color="#FFFC9F"/>
</radialGradient>
<radialGradient id="paint37_radial_152_4926" cx="0" cy="0" r="1" gradientUnits="userSpaceOnUse" gradientTransform="translate(557.637 410.669) scale(230.157 230.159)">
<stop stop-color="#E20081"/>
<stop offset="0.5464" stop-color="#FFB048"/>
<stop offset="1" stop-color="#FFFC9F"/>
</radialGradient>
<radialGradient id="paint38_radial_152_4926" cx="0" cy="0" r="1" gradientUnits="userSpaceOnUse" gradientTransform="translate(557.636 410.669) scale(230.158 230.16)">
<stop stop-color="#E20081"/>
<stop offset="0.5464" stop-color="#FFB048"/>
<stop offset="1" stop-color="#FFFC9F"/>
</radialGradient>
<radialGradient id="paint39_radial_152_4926" cx="0" cy="0" r="1" gradientUnits="userSpaceOnUse" gradientTransform="translate(557.637 410.669) scale(230.16)">
<stop stop-color="#E20081"/>
<stop offset="0.5464" stop-color="#FFB048"/>
<stop offset="1" stop-color="#FFFC9F"/>
</radialGradient>
<radialGradient id="paint40_radial_152_4926" cx="0" cy="0" r="1" gradientUnits="userSpaceOnUse" gradientTransform="translate(557.637 410.669) scale(230.158 230.16)">
<stop stop-color="#E20081"/>
<stop offset="0.5464" stop-color="#FFB048"/>
<stop offset="1" stop-color="#FFFC9F"/>
</radialGradient>
<radialGradient id="paint41_radial_152_4926" cx="0" cy="0" r="1" gradientUnits="userSpaceOnUse" gradientTransform="translate(557.636 410.669) scale(230.158 230.16)">
<stop stop-color="#E20081"/>
<stop offset="0.5464" stop-color="#FFB048"/>
<stop offset="1" stop-color="#FFFC9F"/>
</radialGradient>
<radialGradient id="paint42_radial_152_4926" cx="0" cy="0" r="1" gradientUnits="userSpaceOnUse" gradientTransform="translate(557.637 410.669) scale(230.162 230.16)">
<stop stop-color="#E20081"/>
<stop offset="0.5464" stop-color="#FFB048"/>
<stop offset="1" stop-color="#FFFC9F"/>
</radialGradient>
<radialGradient id="paint43_radial_152_4926" cx="0" cy="0" r="1" gradientUnits="userSpaceOnUse" gradientTransform="translate(557.637 410.669) scale(230.16)">
<stop stop-color="#E20081"/>
<stop offset="0.5464" stop-color="#FFB048"/>
<stop offset="1" stop-color="#FFFC9F"/>
</radialGradient>
<radialGradient id="paint44_radial_152_4926" cx="0" cy="0" r="1" gradientUnits="userSpaceOnUse" gradientTransform="translate(557.636 410.669) scale(230.16)">
<stop stop-color="#E20081"/>
<stop offset="0.5464" stop-color="#FFB048"/>
<stop offset="1" stop-color="#FFFC9F"/>
</radialGradient>
<radialGradient id="paint45_radial_152_4926" cx="0" cy="0" r="1" gradientUnits="userSpaceOnUse" gradientTransform="translate(510.752 583.353) scale(130.761 130.761)">
<stop stop-color="#E20081"/>
<stop offset="0.5464" stop-color="#FFB048"/>
<stop offset="1" stop-color="#FFFC9F"/>
</radialGradient>
<radialGradient id="paint46_radial_152_4926" cx="0" cy="0" r="1" gradientUnits="userSpaceOnUse" gradientTransform="translate(526.535 581.032) scale(126.894 126.894)">
<stop stop-color="#E20081"/>
<stop offset="0.5464" stop-color="#FFB048"/>
<stop offset="1" stop-color="#FFFC9F"/>
</radialGradient>
<linearGradient id="paint47_linear_152_4926" x1="-25.4208" y1="369.576" x2="154.181" y2="159.038" gradientUnits="userSpaceOnUse">
<stop stop-color="#FFE75C"/>
<stop offset="1" stop-color="#FF2A00"/>
</linearGradient>
<linearGradient id="paint48_linear_152_4926" x1="-52.057" y1="383.18" x2="106.061" y2="242.679" gradientUnits="userSpaceOnUse">
<stop stop-color="#FFE75C"/>
<stop offset="1" stop-color="#FF2A00"/>
</linearGradient>
<linearGradient id="paint49_linear_152_4926" x1="-57.8967" y1="314.692" x2="80.4566" y2="319.848" gradientUnits="userSpaceOnUse">
<stop stop-color="#FFE75C"/>
<stop offset="1" stop-color="#FF2A00"/>
</linearGradient>
<radialGradient id="paint50_radial_152_4926" cx="0" cy="0" r="1" gradientUnits="userSpaceOnUse" gradientTransform="translate(12.6374 333.529) scale(342.23 185.249)">
<stop stop-color="#EAB5F7"/>
<stop offset="0.995" stop-color="#09337C"/>
</radialGradient>
<radialGradient id="paint51_radial_152_4926" cx="0" cy="0" r="1" gradientUnits="userSpaceOnUse" gradientTransform="translate(-44.1077 320.009) scale(342.227 185.247)">
<stop stop-color="#EAB5F7"/>
<stop offset="0.995" stop-color="#09337C"/>
</radialGradient>
<radialGradient id="paint52_radial_152_4926" cx="0" cy="0" r="1" gradientUnits="userSpaceOnUse" gradientTransform="translate(-22.0539 323.927) scale(171.114 185.247)">
<stop stop-color="#EAB5F7"/>
<stop offset="0.995" stop-color="#09337C"/>
</radialGradient>
<linearGradient id="paint53_linear_152_4926" x1="830.34" y1="14.8917" x2="805.523" y2="23.5579" gradientUnits="userSpaceOnUse">
<stop stop-color="#FFE75C"/>
<stop offset="1" stop-color="#FF2A00"/>
</linearGradient>
<linearGradient id="paint54_linear_152_4926" x1="764.023" y1="-23.3057" x2="957.043" y2="141.352" gradientUnits="userSpaceOnUse">
<stop stop-color="#FFE75C"/>
<stop offset="1" stop-color="#FF2A00"/>
</linearGradient>
<linearGradient id="paint55_linear_152_4926" x1="747.946" y1="-49.2202" x2="876.757" y2="95.7417" gradientUnits="userSpaceOnUse">
<stop stop-color="#FFE75C"/>
<stop offset="1" stop-color="#FF2A00"/>
</linearGradient>
<linearGradient id="paint56_linear_152_4926" x1="814.339" y1="-53.0796" x2="809.612" y2="73.7621" gradientUnits="userSpaceOnUse">
<stop stop-color="#FFE75C"/>
<stop offset="1" stop-color="#FF2A00"/>
</linearGradient>
<radialGradient id="paint57_radial_152_4926" cx="0" cy="0" r="1" gradientUnits="userSpaceOnUse" gradientTransform="translate(799.727 -2.315) scale(313.752 169.834)">
<stop stop-color="#EAB5F7"/>
<stop offset="0.995" stop-color="#09337C"/>
</radialGradient>
<radialGradient id="paint58_radial_152_4926" cx="0" cy="0" r="1" gradientUnits="userSpaceOnUse" gradientTransform="translate(851.75 10.0798) scale(313.755 169.836)">
<stop stop-color="#EAB5F7"/>
<stop offset="0.995" stop-color="#09337C"/>
</radialGradient>
<radialGradient id="paint59_radial_152_4926" cx="0" cy="0" r="1" gradientUnits="userSpaceOnUse" gradientTransform="translate(819.946 1.27704) scale(156.876 169.834)">
<stop stop-color="#EAB5F7"/>
<stop offset="0.995" stop-color="#09337C"/>
</radialGradient>
<radialGradient id="paint60_radial_152_4926" cx="0" cy="0" r="1" gradientUnits="userSpaceOnUse" gradientTransform="translate(851.75 24.6597) scale(313.755 169.835)">
<stop stop-color="#EAB5F7"/>
<stop offset="0.995" stop-color="#09337C"/>
</radialGradient>
<radialGradient id="paint61_radial_152_4926" cx="0" cy="0" r="1" gradientUnits="userSpaceOnUse" gradientTransform="translate(799.727 12.2643) scale(313.753 169.834)">
<stop stop-color="#EAB5F7"/>
<stop offset="0.995" stop-color="#09337C"/>
</radialGradient>
<radialGradient id="paint62_radial_152_4926" cx="0" cy="0" r="1" gradientUnits="userSpaceOnUse" gradientTransform="translate(819.946 15.8565) scale(156.877 169.834)">
<stop stop-color="#EAB5F7"/>
<stop offset="0.995" stop-color="#09337C"/>
</radialGradient>
<linearGradient id="paint63_linear_152_4926" x1="77.2301" y1="491.634" x2="179.294" y2="389.595" gradientUnits="userSpaceOnUse">
<stop stop-color="#1DD3C6"/>
<stop offset="0.3611" stop-color="#835ED2"/>
<stop offset="0.6869" stop-color="#F51BC9"/>
<stop offset="1" stop-color="#ED7660"/>
</linearGradient>
<linearGradient id="paint64_linear_152_4926" x1="-136.804" y1="438.841" x2="2851.86" y2="438.841" gradientUnits="userSpaceOnUse">
<stop stop-color="#1DD3C6"/>
<stop offset="0.3611" stop-color="#835ED2"/>
<stop offset="0.6869" stop-color="#F51BC9"/>
<stop offset="1" stop-color="#ED7660"/>
</linearGradient>
<radialGradient id="paint65_radial_152_4926" cx="0" cy="0" r="1" gradientUnits="userSpaceOnUse" gradientTransform="translate(385.146 297.424) scale(85.6746 85.6746)">
<stop stop-color="#A171FF"/>
<stop offset="1" stop-color="#4B28FC"/>
</radialGradient>
<radialGradient id="paint66_radial_152_4926" cx="0" cy="0" r="1" gradientUnits="userSpaceOnUse" gradientTransform="translate(469.75 175.305) scale(153.857 153.857)">
<stop stop-color="#A171FF"/>
<stop offset="1" stop-color="#4B28FC"/>
</radialGradient>
<radialGradient id="paint67_radial_152_4926" cx="0" cy="0" r="1" gradientUnits="userSpaceOnUse" gradientTransform="translate(165.5 176.382) scale(190.935 190.935)">
<stop stop-color="#A171FF"/>
<stop offset="1" stop-color="#4B28FC"/>
</radialGradient>
<linearGradient id="paint68_linear_152_4926" x1="199.509" y1="325.418" x2="260.216" y2="371.39" gradientUnits="userSpaceOnUse">
<stop stop-color="#FFFAC0"/>
<stop offset="0.5439" stop-color="#FFC880"/>
<stop offset="1" stop-color="#EF6262"/>
</linearGradient>
<linearGradient id="paint69_linear_152_4926" x1="501.751" y1="216.791" x2="472.577" y2="232.705" gradientUnits="userSpaceOnUse">
<stop stop-color="#FFFAC0"/>
<stop offset="0.5439" stop-color="#FFC880"/>
<stop offset="1" stop-color="#EF6262"/>
</linearGradient>
<radialGradient id="paint70_radial_152_4926" cx="0" cy="0" r="1" gradientUnits="userSpaceOnUse" gradientTransform="translate(393.543 173.4) rotate(180) scale(305.22 305.22)">
<stop offset="0.00263467" stop-color="#FFF6A6"/>
<stop offset="1" stop-color="#219DDB"/>
</radialGradient>
<linearGradient id="paint71_linear_152_4926" x1="360.56" y1="228.155" x2="300.836" y2="165.287" gradientUnits="userSpaceOnUse">
<stop stop-color="#FFFAC0"/>
<stop offset="0.5439" stop-color="#FFC880"/>
<stop offset="1" stop-color="#EF6262"/>
</linearGradient>
<linearGradient id="paint72_linear_152_4926" x1="332.313" y1="152.238" x2="304.023" y2="162.847" gradientUnits="userSpaceOnUse">
<stop stop-color="#FFFAC0"/>
<stop offset="0.5439" stop-color="#FFC880"/>
<stop offset="1" stop-color="#EF6262"/>
</linearGradient>
<linearGradient id="paint73_linear_152_4926" x1="286.224" y1="134.782" x2="314.711" y2="163.858" gradientUnits="userSpaceOnUse">
<stop stop-color="#FFFAC0"/>
<stop offset="0.5439" stop-color="#FFC880"/>
<stop offset="1" stop-color="#EF6262"/>
</linearGradient>
<linearGradient id="paint74_linear_152_4926" x1="454.723" y1="248.066" x2="490.45" y2="210.094" gradientUnits="userSpaceOnUse">
<stop stop-color="#FFFAC0"/>
<stop offset="0.5439" stop-color="#FFC880"/>
<stop offset="1" stop-color="#EF6262"/>
</linearGradient>
<radialGradient id="paint75_radial_152_4926" cx="0" cy="0" r="1" gradientUnits="userSpaceOnUse" gradientTransform="translate(387.651 167.32) rotate(180) scale(186.93 186.93)">
<stop offset="0.00263467" stop-color="#FFF6A6"/>
<stop offset="1" stop-color="#219DDB"/>
</radialGradient>
<radialGradient id="paint76_radial_152_4926" cx="0" cy="0" r="1" gradientUnits="userSpaceOnUse" gradientTransform="translate(368.29 176.158) rotate(180) scale(103.785 103.785)">
<stop offset="0.00263467" stop-color="#FFF6A6"/>
<stop offset="1" stop-color="#219DDB"/>
</radialGradient>
<radialGradient id="paint77_radial_152_4926" cx="0" cy="0" r="1" gradientUnits="userSpaceOnUse" gradientTransform="translate(352.375 187.351) rotate(180) scale(83.2488 83.2487)">
<stop stop-color="#FFFF31"/>
<stop offset="1" stop-color="#FF00FF"/>
</radialGradient>
<radialGradient id="paint78_radial_152_4926" cx="0" cy="0" r="1" gradientUnits="userSpaceOnUse" gradientTransform="translate(317.587 152.413) scale(366.044 366.044)">
<stop stop-color="#A171FF"/>
<stop offset="1" stop-color="#4B28FC"/>
</radialGradient>
<radialGradient id="paint79_radial_152_4926" cx="0" cy="0" r="1" gradientUnits="userSpaceOnUse" gradientTransform="translate(208.016 376.464) rotate(180) scale(425.07 425.07)">
<stop stop-color="#FFFF31"/>
<stop offset="1" stop-color="#FF00FF"/>
</radialGradient>
<linearGradient id="paint80_linear_152_4926" x1="581.81" y1="270.511" x2="586.632" y2="267.334" gradientUnits="userSpaceOnUse">
<stop stop-color="#FFFAC0"/>
<stop offset="0.5439" stop-color="#FFC880"/>
<stop offset="1" stop-color="#EF6262"/>
</linearGradient>
<linearGradient id="paint81_linear_152_4926" x1="1022.03" y1="248.98" x2="434.827" y2="209.217" gradientUnits="userSpaceOnUse">
<stop stop-color="#3EA8FF"/>
<stop offset="1" stop-color="#5E4AED"/>
</linearGradient>
<linearGradient id="paint82_linear_152_4926" x1="720.342" y1="279.521" x2="795.723" y2="237.883" gradientUnits="userSpaceOnUse">
<stop stop-color="#1DD3C6"/>
<stop offset="0.3611" stop-color="#835ED2"/>
<stop offset="0.6869" stop-color="#F51BC9"/>
<stop offset="1" stop-color="#ED7660"/>
</linearGradient>
<linearGradient id="paint83_linear_152_4926" x1="687.582" y1="118.653" x2="761.205" y2="176.31" gradientUnits="userSpaceOnUse">
<stop stop-color="#FFFAC0"/>
<stop offset="0.5439" stop-color="#FFC880"/>
<stop offset="1" stop-color="#EF6262"/>
</linearGradient>
<linearGradient id="paint84_linear_152_4926" x1="702.143" y1="117.237" x2="754.313" y2="162.357" gradientUnits="userSpaceOnUse">
<stop stop-color="#FFFAC0"/>
<stop offset="0.5439" stop-color="#FFC880"/>
<stop offset="1" stop-color="#EF6262"/>
</linearGradient>
<linearGradient id="paint85_linear_152_4926" x1="772.924" y1="120.985" x2="734.153" y2="151.838" gradientUnits="userSpaceOnUse">
<stop stop-color="#FFFAC0"/>
<stop offset="0.5439" stop-color="#FFC880"/>
<stop offset="1" stop-color="#EF6262"/>
</linearGradient>
<radialGradient id="paint86_radial_152_4926" cx="0" cy="0" r="1" gradientUnits="userSpaceOnUse" gradientTransform="translate(707.397 179.698) rotate(180) scale(228.978 228.978)">
<stop offset="0.00055627" stop-color="#7929B7"/>
<stop offset="0.0501306" stop-color="#7628B5"/>
<stop offset="1" stop-color="#310B7A"/>
</radialGradient>
<radialGradient id="paint87_radial_152_4926" cx="0" cy="0" r="1" gradientUnits="userSpaceOnUse" gradientTransform="translate(712.303 170.008) rotate(180) scale(123.015 123.016)">
<stop offset="0.00055627" stop-color="#7929B7"/>
<stop offset="0.0501306" stop-color="#7628B5"/>
<stop offset="1" stop-color="#310B7A"/>
</radialGradient>
<linearGradient id="paint88_linear_152_4926" x1="849.195" y1="147.579" x2="737.948" y2="316.114" gradientUnits="userSpaceOnUse">
<stop stop-color="#3EA8FF"/>
<stop offset="1" stop-color="#5E4AED"/>
</linearGradient>
<linearGradient id="paint89_linear_152_4926" x1="735.799" y1="212.588" x2="712.995" y2="212.588" gradientUnits="userSpaceOnUse">
<stop stop-color="#3EA8FF"/>
<stop offset="1" stop-color="#5E4AED"/>
</linearGradient>
<linearGradient id="paint90_linear_152_4926" x1="693.01" y1="145.363" x2="814.089" y2="259.125" gradientUnits="userSpaceOnUse">
<stop stop-color="#FFE75C"/>
<stop offset="1" stop-color="#FF2A00"/>
</linearGradient>
<linearGradient id="paint91_linear_152_4926" x1="550.26" y1="265.783" x2="593.131" y2="262.482" gradientUnits="userSpaceOnUse">
<stop stop-color="#FFFAC0"/>
<stop offset="0.5439" stop-color="#FFC880"/>
<stop offset="1" stop-color="#EF6262"/>
</linearGradient>
<linearGradient id="paint92_linear_152_4926" x1="658.175" y1="264.549" x2="568.643" y2="258.486" gradientUnits="userSpaceOnUse">
<stop stop-color="#FFFAC0"/>
<stop offset="0.5439" stop-color="#FFC880"/>
<stop offset="1" stop-color="#EF6262"/>
</linearGradient>
<linearGradient id="paint93_linear_152_4926" x1="588.293" y1="257.214" x2="678.948" y2="274.971" gradientUnits="userSpaceOnUse">
<stop stop-color="#3EA8FF"/>
<stop offset="1" stop-color="#5E4AED"/>
</linearGradient>
<linearGradient id="paint94_linear_152_4926" x1="735.17" y1="169.657" x2="748.33" y2="203.497" gradientUnits="userSpaceOnUse">
<stop stop-color="#3EA8FF"/>
<stop offset="1" stop-color="#5E4AED"/>
</linearGradient>
<linearGradient id="paint95_linear_152_4926" x1="418.745" y1="264.044" x2="522.531" y2="153.515" gradientUnits="userSpaceOnUse">
<stop stop-color="#1DD3C6"/>
<stop offset="0.3611" stop-color="#835ED2"/>
<stop offset="0.6869" stop-color="#F51BC9"/>
<stop offset="1" stop-color="#ED7660"/>
</linearGradient>
<linearGradient id="paint96_linear_152_4926" x1="486.515" y1="331.107" x2="3868.88" y2="331.107" gradientUnits="userSpaceOnUse">
<stop stop-color="#1DD3C6"/>
<stop offset="0.3611" stop-color="#835ED2"/>
<stop offset="0.6869" stop-color="#F51BC9"/>
<stop offset="1" stop-color="#ED7660"/>
</linearGradient>
<linearGradient id="paint97_linear_152_4926" x1="888.899" y1="161.927" x2="751.188" y2="295.646" gradientUnits="userSpaceOnUse">
<stop stop-color="#3EA8FF"/>
<stop offset="1" stop-color="#5E4AED"/>
</linearGradient>
<linearGradient id="paint98_linear_152_4926" x1="746.244" y1="367.206" x2="805.879" y2="332.325" gradientUnits="userSpaceOnUse">
<stop stop-color="#FFFAC0"/>
<stop offset="0.5439" stop-color="#FFC880"/>
<stop offset="1" stop-color="#EF6262"/>
</linearGradient>
<linearGradient id="paint99_linear_152_4926" x1="772.974" y1="325.503" x2="844.12" y2="388.415" gradientUnits="userSpaceOnUse">
<stop stop-color="#3EA8FF"/>
<stop offset="1" stop-color="#5E4AED"/>
</linearGradient>
</defs>
</svg>
