<svg width="56" height="50" viewBox="0 0 56 50" fill="none" xmlns="http://www.w3.org/2000/svg">
<path opacity="0.4" d="M29.2016 13.8711C21.621 -6.93539 0.330639 -0.483783 0.81451 15.1614C1.13709 27.2581 15.6532 46.1291 18.879 50.0001C23.5564 48.3872 45.9758 40.1614 52.5887 30.0001C61.1371 17.0969 46.621 0.16138 29.2016 13.8711Z" fill="#8D58D1"/>
<path d="M28.5565 13.3872C20.9758 -7.41928 -0.314502 -0.967666 0.169369 14.6775C0.491949 26.7743 15.0081 45.6452 18.0726 49.5162C22.75 47.9033 45.1694 39.6775 51.7823 29.5162C60.4919 16.4517 45.9758 -0.32251 28.5565 13.3872Z" fill="#037B8E"/>
<path d="M28.3952 13.3872C20.8146 -7.41928 -0.475757 -0.967666 0.00811386 14.6775C0.330694 26.7743 14.8468 45.6452 18.0726 49.5162C22.75 47.9033 45.1694 39.6775 51.7823 29.5162C60.3307 16.613 45.8146 -0.161219 28.3952 13.3872Z" fill="#8D58D1"/>
<mask id="mask0_144_969" style="mask-type:luminance" maskUnits="userSpaceOnUse" x="28" y="8" width="27" height="31">
<g opacity="0.5">
<path d="M34.8468 33.0644C36.621 35.3225 38.7178 37.258 41.1372 38.8709C45.6533 36.1289 49.5243 32.9031 51.7823 29.6773C60.3307 16.6128 46.1372 -9.05991e-05 28.7178 13.2257C26.621 20.1612 30.492 27.7418 34.8468 33.0644Z" fill="url(#paint0_radial_144_969)"/>
</g>
</mask>
<g mask="url(#mask0_144_969)">
<path opacity="0.5" d="M34.8468 33.0644C36.621 35.3225 38.7178 37.258 41.1372 38.8709C45.6533 36.1289 49.5243 32.9031 51.7823 29.6773C60.3307 16.6128 46.1372 -9.05991e-05 28.7178 13.2257C26.621 20.1612 30.492 27.7418 34.8468 33.0644Z" fill="white"/>
</g>
<path opacity="0.6" d="M27.5888 15.9678C20.6533 -4.51608 0.16946 0.483918 0.975912 16.6129C1.62107 27.742 15.1695 45.3226 18.0727 48.871C22.4275 47.4194 43.234 39.6775 49.6856 30.4839C58.5565 17.5807 44.6856 2.41941 27.5888 15.9678Z" fill="#BF9AED"/>
<path opacity="0.7" d="M28.0726 14.3548C28.0726 14.1935 28.0726 14.1935 28.0726 14.3548C42.1048 3.54834 54.2016 11.7741 54.2016 22.258C54.6855 11.4516 42.5887 2.41931 28.2339 13.5483C22.1048 -3.38714 6.94355 -2.25811 1.62097 7.09673C7.26613 -1.77424 21.9435 -2.25811 28.0726 14.3548Z" fill="url(#paint1_radial_144_969)"/>
<path opacity="0.1" d="M1.29846 18.7097C3.39524 29.8387 15.492 45.3226 18.2339 48.7097C22.2662 47.2581 40.8146 40.4839 48.3952 32.0968C36.9436 44.5162 6.29846 39.6775 1.29846 18.7097Z" fill="url(#paint2_radial_144_969)"/>
<mask id="mask1_144_969" style="mask-type:luminance" maskUnits="userSpaceOnUse" x="2" y="24" width="16" height="26">
<path d="M17.9113 49.6774C17.4275 50 13.3952 44.6774 9.04037 37.5806C4.68553 30.4838 1.45973 24.5161 2.10489 24.0322C2.58876 23.7096 6.62102 29.0322 10.9759 36.129C15.3307 43.2258 18.3952 49.1935 17.9113 49.6774Z" fill="url(#paint3_radial_144_969)"/>
</mask>
<g mask="url(#mask1_144_969)">
<path d="M17.9113 49.6774C17.4275 50 13.3952 44.6774 9.04037 37.5806C4.68553 30.4838 1.45973 24.5161 2.10489 24.0322C2.58876 23.7096 6.62102 29.0322 10.9759 36.129C15.3307 43.2258 18.3952 49.1935 17.9113 49.6774Z" fill="#F3F3F3"/>
</g>
<mask id="mask2_144_969" style="mask-type:luminance" maskUnits="userSpaceOnUse" x="4" y="27" width="13" height="20">
<path d="M16.2985 46.7743C15.9759 47.0969 12.9114 42.9033 9.5243 37.4194C6.1372 32.0969 3.71785 27.4194 4.04043 27.2582C4.36301 26.9356 7.42753 31.1291 10.8146 36.613C14.0404 41.9356 16.6211 46.613 16.2985 46.7743Z" fill="url(#paint4_radial_144_969)"/>
</mask>
<g mask="url(#mask2_144_969)">
<path d="M16.2985 46.7743C15.9759 47.0969 12.9114 42.9033 9.5243 37.4194C6.1372 32.0969 3.71785 27.4194 4.04043 27.2582C4.36301 26.9356 7.42753 31.1291 10.8146 36.613C14.0404 41.9356 16.6211 46.613 16.2985 46.7743Z" fill="white"/>
</g>
<mask id="mask3_144_969" style="mask-type:luminance" maskUnits="userSpaceOnUse" x="21" y="37" width="23" height="12">
<path d="M43.7178 37.0968C44.0404 37.5807 39.2017 40.4839 32.9114 43.5484C26.621 46.6129 21.4598 48.7097 21.1372 48.2258C20.8146 47.7419 25.6533 44.8387 31.9436 41.7742C38.0727 38.7097 43.3952 36.6129 43.7178 37.0968Z" fill="url(#paint5_radial_144_969)"/>
</mask>
<g mask="url(#mask3_144_969)">
<path d="M43.7178 37.0968C44.0404 37.5807 39.2017 40.4839 32.9114 43.5484C26.621 46.6129 21.4598 48.7097 21.1372 48.2258C20.8146 47.7419 25.6533 44.8387 31.9436 41.7742C38.0727 38.7097 43.3952 36.6129 43.7178 37.0968Z" fill="#F3F3F3"/>
</g>
<mask id="mask4_144_969" style="mask-type:luminance" maskUnits="userSpaceOnUse" x="24" y="37" width="19" height="10">
<path d="M42.1049 37.7419C42.2662 38.0644 38.3952 40.3225 33.3952 42.9032C28.3952 45.4838 24.2017 47.258 24.0404 46.9354C23.8791 46.6128 27.7501 44.3548 32.7501 41.7741C37.7501 39.3548 41.9436 37.5806 42.1049 37.7419Z" fill="url(#paint6_radial_144_969)"/>
</mask>
<g mask="url(#mask4_144_969)">
<path d="M42.1049 37.7419C42.2662 38.0644 38.3952 40.3225 33.3952 42.9032C28.3952 45.4838 24.2017 47.258 24.0404 46.9354C23.8791 46.6128 27.7501 44.3548 32.7501 41.7741C37.7501 39.3548 41.9436 37.5806 42.1049 37.7419Z" fill="white"/>
</g>
<mask id="mask5_144_969" style="mask-type:luminance" maskUnits="userSpaceOnUse" x="9" y="0" width="10" height="2">
<path d="M9.20166 0.645184C9.20166 0.161313 11.4597 2.38419e-05 14.0404 0.161314C16.621 0.322604 18.7178 0.967764 18.7178 1.45164C18.7178 1.93551 16.4597 2.0968 13.8791 1.9355C11.2984 1.77421 9.20166 1.12905 9.20166 0.645184Z" fill="url(#paint7_radial_144_969)"/>
</mask>
<g mask="url(#mask5_144_969)">
<path d="M9.20166 0.645184C9.20166 0.161313 11.4597 2.38419e-05 14.0404 0.161314C16.621 0.322604 18.7178 0.967764 18.7178 1.45164C18.7178 1.93551 16.4597 2.0968 13.8791 1.9355C11.2984 1.77421 9.20166 1.12905 9.20166 0.645184Z" fill="#F3F3F3"/>
</g>
<mask id="mask6_144_969" style="mask-type:luminance" maskUnits="userSpaceOnUse" x="10" y="0" width="8" height="2">
<path d="M10.3307 0.48387C10.3307 0.161289 12.1049 0 14.2017 0C16.2984 0.16129 17.9113 0.483871 17.9113 0.806451C17.9113 1.12903 16.1371 1.29032 14.0404 1.29032C11.9436 1.29032 10.3307 0.80645 10.3307 0.48387Z" fill="url(#paint8_radial_144_969)"/>
</mask>
<g mask="url(#mask6_144_969)">
<path d="M10.3307 0.48387C10.3307 0.161289 12.1049 0 14.2017 0C16.2984 0.16129 17.9113 0.483871 17.9113 0.806451C17.9113 1.12903 16.1371 1.29032 14.0404 1.29032C11.9436 1.29032 10.3307 0.80645 10.3307 0.48387Z" fill="white"/>
</g>
<mask id="mask7_144_969" style="mask-type:luminance" maskUnits="userSpaceOnUse" x="51" y="20" width="4" height="11">
<path d="M54.3629 20.9677C54.8467 21.129 54.5242 23.3871 53.7177 25.9677C52.9113 28.5484 51.9435 30.4838 51.4596 30.3225C50.9758 30.1613 51.2984 27.9032 52.1048 25.4838C52.9113 22.9032 53.879 20.8064 54.3629 20.9677Z" fill="url(#paint9_radial_144_969)"/>
</mask>
<g mask="url(#mask7_144_969)">
<path d="M54.3629 20.9677C54.8467 21.129 54.5242 23.3871 53.7177 25.9677C52.9113 28.5484 51.9435 30.4838 51.4596 30.3225C50.9758 30.1613 51.2984 27.9032 52.1048 25.4838C52.9113 22.9032 53.879 20.8064 54.3629 20.9677Z" fill="#F3F3F3"/>
</g>
<mask id="mask8_144_969" style="mask-type:luminance" maskUnits="userSpaceOnUse" x="52" y="21" width="3" height="9">
<path d="M54.3629 21.7742C54.6855 21.9355 54.5242 23.5484 53.8791 25.6451C53.2339 27.5806 52.5887 29.1935 52.2661 29.0322C51.9436 28.8709 52.1049 27.258 52.75 25.1613C53.2339 23.2258 54.0403 21.7742 54.3629 21.7742Z" fill="url(#paint10_radial_144_969)"/>
</mask>
<g mask="url(#mask8_144_969)">
<path d="M54.3629 21.7742C54.6855 21.9355 54.5242 23.5484 53.8791 25.6451C53.2339 27.5806 52.5887 29.1935 52.2661 29.0322C51.9436 28.8709 52.1049 27.258 52.75 25.1613C53.2339 23.2258 54.0403 21.7742 54.3629 21.7742Z" fill="white"/>
</g>
<mask id="mask9_144_969" style="mask-type:luminance" maskUnits="userSpaceOnUse" x="36" y="8" width="11" height="2">
<path d="M36.621 8.87095C36.621 8.38708 38.879 8.0645 41.4597 8.22579C44.2016 8.38708 46.2984 8.70966 46.2984 9.19353C46.2984 9.6774 44.0403 9.99999 41.4597 9.8387C38.7177 9.8387 36.621 9.35482 36.621 8.87095Z" fill="url(#paint11_radial_144_969)"/>
</mask>
<g mask="url(#mask9_144_969)">
<path d="M36.621 8.87095C36.621 8.38708 38.879 8.0645 41.4597 8.22579C44.2016 8.38708 46.2984 8.70966 46.2984 9.19353C46.2984 9.6774 44.0403 9.99999 41.4597 9.8387C38.7177 9.8387 36.621 9.35482 36.621 8.87095Z" fill="#F3F3F3"/>
</g>
<mask id="mask10_144_969" style="mask-type:luminance" maskUnits="userSpaceOnUse" x="37" y="8" width="9" height="2">
<path d="M37.4275 8.70962C37.4275 8.38704 39.2017 8.06445 41.2985 8.06445C43.3952 8.06445 45.0081 8.38704 45.0081 8.70962C45.0081 9.0322 43.2339 9.35477 41.1372 9.35477C39.0404 9.35477 37.4275 9.0322 37.4275 8.70962Z" fill="url(#paint12_radial_144_969)"/>
</mask>
<g mask="url(#mask10_144_969)">
<path d="M37.4275 8.70962C37.4275 8.38704 39.2017 8.06445 41.2985 8.06445C43.3952 8.06445 45.0081 8.38704 45.0081 8.70962C45.0081 9.0322 43.2339 9.35477 41.1372 9.35477C39.0404 9.35477 37.4275 9.0322 37.4275 8.70962Z" fill="white"/>
</g>
<mask id="mask11_144_969" style="mask-type:luminance" maskUnits="userSpaceOnUse" x="24" y="6" width="5" height="8">
<path d="M24.2016 6.29032C24.5242 6.12903 25.6532 7.58064 26.7822 9.51612C27.9113 11.4516 28.3951 13.2258 28.0726 13.3871C27.75 13.5484 26.6209 12.0968 25.4919 10.1613C24.5242 8.2258 23.879 6.45161 24.2016 6.29032Z" fill="url(#paint13_radial_144_969)"/>
</mask>
<g mask="url(#mask11_144_969)">
<path d="M24.2016 6.29032C24.5242 6.12903 25.6532 7.58064 26.7822 9.51612C27.9113 11.4516 28.3951 13.2258 28.0726 13.3871C27.75 13.5484 26.6209 12.0968 25.4919 10.1613C24.5242 8.2258 23.879 6.45161 24.2016 6.29032Z" fill="#F3F3F3"/>
</g>
<mask id="mask12_144_969" style="mask-type:luminance" maskUnits="userSpaceOnUse" x="24" y="6" width="4" height="7">
<path d="M24.6856 6.77411C25.0081 6.61282 25.8146 7.74185 26.7823 9.35476C27.5888 10.8064 28.234 12.258 27.9114 12.4193C27.7501 12.5806 26.7823 11.4515 25.8146 9.83863C25.0081 8.22573 24.5243 6.9354 24.6856 6.77411Z" fill="url(#paint14_radial_144_969)"/>
</mask>
<g mask="url(#mask12_144_969)">
<path d="M24.6856 6.77411C25.0081 6.61282 25.8146 7.74185 26.7823 9.35476C27.5888 10.8064 28.234 12.258 27.9114 12.4193C27.7501 12.5806 26.7823 11.4515 25.8146 9.83863C25.0081 8.22573 24.5243 6.9354 24.6856 6.77411Z" fill="white"/>
</g>
<path fill-rule="evenodd" clip-rule="evenodd" d="M8.23374 38.5484C9.20148 39.5161 10.8144 39.5161 11.7821 38.5484C12.7499 37.5806 12.7499 35.9677 11.7821 35C10.8144 34.0322 9.20148 34.0322 8.23374 35C7.266 35.9677 7.266 37.5806 8.23374 38.5484Z" fill="#E9E9E9"/>
<mask id="mask13_144_969" style="mask-type:luminance" maskUnits="userSpaceOnUse" x="4" y="31" width="12" height="11">
<g opacity="0.65">
<path d="M4.04041 39.8387L9.36298 36.7742L6.78234 32.0967L7.4275 31.7742L10.1694 36.2903L15.6533 33.0645L15.9759 33.7096L10.492 36.9355L13.234 41.4516L12.4275 41.9355L9.68557 37.258L4.36299 40.4838L4.04041 39.8387Z" fill="url(#paint15_radial_144_969)"/>
</g>
</mask>
<g mask="url(#mask13_144_969)">
<path opacity="0.65" d="M4.68542 40.1612L9.36285 36.7742L6.29833 31.2903L10.1693 36.2903L15.1693 33.7096L10.4919 36.9354L13.7177 42.4193L9.68543 37.258L4.68542 40.1612Z" fill="#E9E9E9"/>
</g>
<mask id="mask14_144_969" style="mask-type:luminance" maskUnits="userSpaceOnUse" x="9" y="36" width="2" height="2">
<path d="M9.20158 37.2581C9.36287 37.5807 9.84674 37.7419 10.3306 37.4194C10.8145 37.2581 10.9758 36.7742 10.6532 36.4516C10.4919 36.129 10.008 35.9678 9.52416 36.2903C9.20158 36.4516 9.04029 36.9355 9.20158 37.2581Z" fill="url(#paint16_radial_144_969)"/>
</mask>
<g mask="url(#mask14_144_969)">
<path d="M9.20158 37.2581C9.36287 37.5807 9.84674 37.7419 10.3306 37.4194C10.8145 37.2581 10.9758 36.7742 10.6532 36.4516C10.4919 36.129 10.008 35.9678 9.52416 36.2903C9.20158 36.4516 9.04029 36.9355 9.20158 37.2581Z" fill="#E9E9E9"/>
</g>
<mask id="mask15_144_969" style="mask-type:luminance" maskUnits="userSpaceOnUse" x="5" y="33" width="9" height="7">
<g opacity="0.65">
<path d="M6.137 35.9677L9.68538 36.6129L10.1693 33.5483H10.6531L10.1693 36.6129L13.7176 37.0967V37.5806L10.1693 36.9354L9.68538 40H9.20151L9.68538 36.9354L5.97571 36.4516L6.137 35.9677Z" fill="url(#paint17_radial_144_969)"/>
</g>
</mask>
<g mask="url(#mask15_144_969)">
<path opacity="0.65" d="M6.2981 36.4517L9.6852 36.613L10.1691 32.9033V36.613L13.3949 37.2582L10.1691 36.9356L9.5239 40.6453L9.6852 36.9356L6.2981 36.4517Z" fill="#E9E9E9"/>
</g>
<mask id="mask16_144_969" style="mask-type:luminance" maskUnits="userSpaceOnUse" x="9" y="36" width="2" height="2">
<path d="M9.36255 36.7743C9.36255 36.9356 9.52384 37.2582 9.84642 37.2582C10.169 37.2582 10.3303 37.0969 10.3303 36.9356C10.3303 36.7743 10.169 36.4517 9.84642 36.4517C9.68513 36.2904 9.36255 36.4517 9.36255 36.7743Z" fill="url(#paint18_radial_144_969)"/>
</mask>
<g mask="url(#mask16_144_969)">
<path d="M9.36255 36.7743C9.36255 36.9356 9.52384 37.2582 9.84642 37.2582C10.169 37.2582 10.3303 37.0969 10.3303 36.9356C10.3303 36.7743 10.169 36.4517 9.84642 36.4517C9.68513 36.2904 9.36255 36.4517 9.36255 36.7743Z" fill="#E9E9E9"/>
</g>
<defs>
<radialGradient id="paint0_radial_144_969" cx="0" cy="0" r="1" gradientUnits="userSpaceOnUse" gradientTransform="translate(51.6314 14.5653) rotate(16.0154) scale(21.545 21.545)">
<stop stop-color="white"/>
<stop offset="1"/>
</radialGradient>
<radialGradient id="paint1_radial_144_969" cx="0" cy="0" r="1" gradientUnits="userSpaceOnUse" gradientTransform="translate(29.5121 9.34431) rotate(16.0154) scale(37.4818 37.4818)">
<stop stop-color="#D5D5D5"/>
<stop offset="1"/>
</radialGradient>
<radialGradient id="paint2_radial_144_969" cx="0" cy="0" r="1" gradientUnits="userSpaceOnUse" gradientTransform="translate(27.0145 18.4876) rotate(16.0145) scale(36.7691 36.6739)">
<stop offset="0.2287"/>
<stop offset="0.2953" stop-color="#080808"/>
<stop offset="0.3966" stop-color="#1D1D1D"/>
<stop offset="0.52" stop-color="#3F3F3F"/>
<stop offset="0.6608" stop-color="#6F6F6F"/>
<stop offset="0.8163" stop-color="#ADADAD"/>
<stop offset="0.9819" stop-color="#F6F6F6"/>
<stop offset="1" stop-color="white"/>
</radialGradient>
<radialGradient id="paint3_radial_144_969" cx="0" cy="0" r="1" gradientUnits="userSpaceOnUse" gradientTransform="translate(9.96048 36.7713) rotate(58.2502) scale(15.0908 1.19625)">
<stop stop-color="#E9E9E9"/>
<stop offset="0.9152"/>
</radialGradient>
<radialGradient id="paint4_radial_144_969" cx="0" cy="0" r="1" gradientUnits="userSpaceOnUse" gradientTransform="translate(10.0925 37.0356) rotate(57.8401) scale(11.5549 0.759824)">
<stop stop-color="#E9E9E9"/>
<stop offset="0.9152"/>
</radialGradient>
<radialGradient id="paint5_radial_144_969" cx="0" cy="0" r="1" gradientUnits="userSpaceOnUse" gradientTransform="translate(32.4019 42.7122) rotate(-26.4452) scale(12.5464 0.997061)">
<stop stop-color="#E9E9E9"/>
<stop offset="0.9152"/>
</radialGradient>
<radialGradient id="paint6_radial_144_969" cx="0" cy="0" r="1" gradientUnits="userSpaceOnUse" gradientTransform="translate(33.0615 42.3889) rotate(-26.9431) scale(10.1136 0.63413)">
<stop stop-color="#E9E9E9"/>
<stop offset="0.9152"/>
</radialGradient>
<radialGradient id="paint7_radial_144_969" cx="0" cy="0" r="1" gradientUnits="userSpaceOnUse" gradientTransform="translate(14.0353 1.04164) rotate(-175.37) scale(4.82759 0.904152)">
<stop stop-color="#E9E9E9"/>
<stop offset="0.9152"/>
</radialGradient>
<radialGradient id="paint8_radial_144_969" cx="0" cy="0" r="1" gradientUnits="userSpaceOnUse" gradientTransform="translate(14.034 0.709328) rotate(-177.034) scale(3.75307 0.616819)">
<stop stop-color="#E9E9E9"/>
<stop offset="0.9152"/>
</radialGradient>
<radialGradient id="paint9_radial_144_969" cx="0" cy="0" r="1" gradientUnits="userSpaceOnUse" gradientTransform="translate(52.9377 25.6721) rotate(-72.8354) scale(4.87519 0.871972)">
<stop stop-color="#E9E9E9"/>
<stop offset="0.9152"/>
</radialGradient>
<radialGradient id="paint10_radial_144_969" cx="0" cy="0" r="1" gradientUnits="userSpaceOnUse" gradientTransform="translate(53.3236 25.4766) rotate(-74.3238) scale(3.78752 0.596041)">
<stop stop-color="#E9E9E9"/>
<stop offset="0.9152"/>
</radialGradient>
<radialGradient id="paint11_radial_144_969" cx="0" cy="0" r="1" gradientUnits="userSpaceOnUse" gradientTransform="translate(41.4579 9.04528) rotate(-178.038) scale(4.86969 0.874721)">
<stop stop-color="#E9E9E9"/>
<stop offset="0.9152"/>
</radialGradient>
<radialGradient id="paint12_radial_144_969" cx="0" cy="0" r="1" gradientUnits="userSpaceOnUse" gradientTransform="translate(41.1698 8.72334) rotate(-179.608) scale(3.80065 0.597814)">
<stop stop-color="#E9E9E9"/>
<stop offset="0.9152"/>
</radialGradient>
<radialGradient id="paint13_radial_144_969" cx="0" cy="0" r="1" gradientUnits="userSpaceOnUse" gradientTransform="translate(26.1819 9.85787) rotate(-118.364) scale(4.09304 0.734955)">
<stop stop-color="#E9E9E9"/>
<stop offset="0.9152"/>
</radialGradient>
<radialGradient id="paint14_radial_144_969" cx="0" cy="0" r="1" gradientUnits="userSpaceOnUse" gradientTransform="translate(26.2903 9.50943) rotate(-119.939) scale(3.20049 0.504084)">
<stop stop-color="#E9E9E9"/>
<stop offset="0.9152"/>
</radialGradient>
<radialGradient id="paint15_radial_144_969" cx="0" cy="0" r="1" gradientUnits="userSpaceOnUse" gradientTransform="translate(9.94887 36.7997) rotate(149.867) scale(6.72701 5.64546)">
<stop stop-color="white"/>
<stop offset="1" stop-color="#020000"/>
</radialGradient>
<radialGradient id="paint16_radial_144_969" cx="0" cy="0" r="1" gradientUnits="userSpaceOnUse" gradientTransform="translate(9.9636 36.8053) rotate(149.867) scale(0.849189 0.712659)">
<stop offset="0.691" stop-color="white"/>
<stop offset="0.717" stop-color="#F7F7F7"/>
<stop offset="0.7574" stop-color="#E1E1E1"/>
<stop offset="0.8072" stop-color="#BDBDBD"/>
<stop offset="0.8644" stop-color="#8B8C8B"/>
<stop offset="0.928" stop-color="#4B4C4B"/>
<stop offset="0.9944" stop-color="#000200"/>
</radialGradient>
<radialGradient id="paint17_radial_144_969" cx="0" cy="0" r="1" gradientUnits="userSpaceOnUse" gradientTransform="translate(9.88927 36.7718) rotate(-171.921) scale(3.85923 3.23889)">
<stop stop-color="white"/>
<stop offset="1" stop-color="#020000"/>
</radialGradient>
<radialGradient id="paint18_radial_144_969" cx="0" cy="0" r="1" gradientUnits="userSpaceOnUse" gradientTransform="translate(9.88967 36.7743) rotate(-171.921) scale(0.487092 0.408797)">
<stop offset="0.691" stop-color="white"/>
<stop offset="0.717" stop-color="#F7F7F7"/>
<stop offset="0.7574" stop-color="#E1E1E1"/>
<stop offset="0.8072" stop-color="#BDBDBD"/>
<stop offset="0.8644" stop-color="#8B8C8B"/>
<stop offset="0.928" stop-color="#4B4C4B"/>
<stop offset="0.9944" stop-color="#000200"/>
</radialGradient>
</defs>
</svg>
