<svg width="30" height="30" viewBox="0 0 30 30" fill="none" xmlns="http://www.w3.org/2000/svg">
<path opacity="0.3" d="M30 15C30 23.2824 23.2824 30 15 30C6.71756 30 0 23.2824 0 15C0 6.71756 6.71756 0 15 0C23.2824 0 30 6.71756 30 15Z" fill="url(#paint0_linear_144_1365)"/>
<path d="M8.66409 5.31286C9.06867 5.93881 10.7175 5.22125 11.3435 4.90064C12.0076 4.55713 13.4962 3.6869 13.145 2.90064C12.7633 2.03805 10.9465 2.72507 10.29 3.06858C9.61829 3.42736 8.22897 4.63347 8.66409 5.31286Z" fill="#8D58D1"/>
<path d="M7.59537 7.45028C7.97705 8.51898 9.56485 8.26707 10.4351 7.99226C11.4885 7.65638 12.8854 6.79379 12.6717 5.57241C12.4427 4.2518 10.5648 4.35867 9.57247 4.70982C8.52667 5.07623 7.17553 6.26707 7.59537 7.45028Z" fill="url(#paint1_linear_144_1365)"/>
<path d="M21.814 21.163C22.2186 21.7889 23.8674 21.0713 24.4934 20.7507C25.1575 20.4072 26.6461 19.537 26.2949 18.7507C25.9132 17.8881 24.0964 18.5752 23.4399 18.9187C22.7682 19.2775 21.3789 20.4836 21.814 21.163Z" fill="#8D58D1"/>
<path d="M20.7453 23.3004C21.127 24.3691 22.7147 24.1172 23.585 23.8424C24.6384 23.5065 26.0354 22.6439 25.8216 21.4225C25.5926 20.1019 23.7147 20.2088 22.7224 20.5599C21.6766 20.9263 20.3254 22.1172 20.7453 23.3004Z" fill="url(#paint2_linear_144_1365)"/>
<g opacity="0.24">
<path d="M9.51892 3.0001C10.3662 2.67185 10.9235 2.58789 10.9235 2.58789C11.2899 3.50392 11.6029 4.41994 11.8853 5.36651C11.8853 5.36651 11.9922 5.59552 11.9159 5.61842C11.3968 5.79399 10.9082 5.99247 10.4502 6.21385C10.1907 5.09934 9.96167 4.0688 9.51892 3.0001Z" fill="#22CDC6"/>
<path d="M10.1372 6.37398C9.38916 6.76329 8.7403 7.21367 8.19068 7.67932C7.95404 6.49611 7.6716 5.32818 7.28992 4.19077C8.03801 3.70986 8.65633 3.35871 9.22122 3.12207C9.65633 4.19841 9.88534 5.24421 10.1372 6.37398Z" fill="#F77B64"/>
<path d="M3.38159 9.01514C3.80144 8.10675 4.25182 7.28232 4.81671 6.44263C5.36633 7.7556 5.76327 9.04568 6.04572 10.435C5.519 11.809 5.57243 13.122 5.6106 14.5648C4.5877 12.7938 3.80144 11.0915 3.39686 9.12965C3.38922 9.09911 3.38923 9.06094 3.38159 9.01514Z" fill="#22CDC6"/>
<path d="M5.09912 6.09167C5.63347 5.45808 6.25942 4.8932 6.94645 4.41992C7.35866 5.57259 7.65637 6.75579 7.88538 7.95427C7.25179 8.55732 6.70981 9.24435 6.28233 9.99244C6.00752 8.6413 5.62584 7.37411 5.09912 6.09167Z" fill="#F77B64"/>
</g>
<g opacity="0.24">
<path d="M23.5977 26.522C22.8642 27.0584 22.3476 27.2837 22.3476 27.2837C21.7566 26.4937 21.2172 25.6899 20.6994 24.8487C20.6994 24.8487 20.5369 24.6552 20.6047 24.6133C21.0607 24.3093 21.4812 23.9912 21.8663 23.6588C22.4055 24.6682 22.8934 25.6043 23.5977 26.522Z" fill="#22CDC6"/>
<path d="M22.127 23.423C22.7489 22.8533 23.259 22.2504 23.6694 21.6583C24.2042 22.74 24.7793 23.795 25.4424 24.7949C24.8443 25.453 24.3379 25.9522 23.8535 26.327C23.1546 25.4 22.6628 24.4491 22.127 23.423Z" fill="#F77B64"/>
<path d="M27.9689 19.1233C27.7985 20.1094 27.5769 21.0223 27.2485 21.9796C26.3778 20.8536 25.6605 19.7102 25.0281 18.4414C25.1813 16.9778 24.7898 15.7234 24.3796 14.3397C25.826 15.7856 27.026 17.2264 27.9246 19.0166C27.9398 19.0442 27.9497 19.081 27.9689 19.1233Z" fill="#22CDC6"/>
<path d="M27.0667 22.3918C26.7146 23.1421 26.2561 23.8497 25.715 24.4847C25.0185 23.478 24.4247 22.4122 23.8933 21.3138C24.3492 20.5673 24.6949 19.7634 24.9142 18.9302C25.5294 20.1642 26.226 21.2894 27.0667 22.3918Z" fill="#F77B64"/>
</g>
<defs>
<linearGradient id="paint0_linear_144_1365" x1="15" y1="4.83333" x2="19" y2="26.6667" gradientUnits="userSpaceOnUse">
<stop stop-color="#AC82E2"/>
<stop offset="1" stop-color="#A680D8" stop-opacity="0.3"/>
</linearGradient>
<linearGradient id="paint1_linear_144_1365" x1="8.87511" y1="7.24789" x2="10.5045" y2="4.99913" gradientUnits="userSpaceOnUse">
<stop stop-color="#1DD3C6"/>
<stop offset="0.3611" stop-color="#835ED2"/>
<stop offset="0.6869" stop-color="#F51BC9"/>
<stop offset="1" stop-color="#ED7660"/>
</linearGradient>
<linearGradient id="paint2_linear_144_1365" x1="22.025" y1="23.098" x2="23.6544" y2="20.8492" gradientUnits="userSpaceOnUse">
<stop stop-color="#1DD3C6"/>
<stop offset="0.3611" stop-color="#835ED2"/>
<stop offset="0.6869" stop-color="#F51BC9"/>
<stop offset="1" stop-color="#ED7660"/>
</linearGradient>
</defs>
</svg>
