<svg width="24" height="25" viewBox="0 0 24 25" fill="none" xmlns="http://www.w3.org/2000/svg">
<g clip-path="url(#clip0_144_835)">
<path d="M11.4167 0.187256C11.9158 0.187256 12.4149 0.187256 12.914 0.187256C13.2009 0.218449 13.4879 0.249642 13.7687 0.293313C16.4575 0.705062 18.772 1.82801 20.6623 3.81814C22.3343 5.57743 23.4136 7.63618 23.8253 10.0318C23.9002 10.4623 23.9439 10.8927 24.0062 11.3232C24.0062 11.8223 24.0062 12.3214 24.0062 12.8205C23.9938 12.8953 23.9688 12.9702 23.9626 13.0451C23.8565 14.3739 23.5383 15.6528 22.9893 16.8693C20.1757 23.1267 12.6207 25.7531 6.55056 22.5964C6.4445 22.5403 6.29478 22.5278 6.18248 22.5527C4.77255 22.9083 3.36262 23.2764 1.95893 23.6445C1.35378 23.8067 0.748638 23.9751 0.143491 24.1436C0.112298 24.1124 0.0811046 24.0812 0.0499115 24.05C0.074866 23.9876 0.112298 23.9252 0.131014 23.8628C0.64882 21.9725 1.17286 20.0822 1.68443 18.1919C1.71563 18.0734 1.69067 17.9112 1.63452 17.8051C0.274502 15.3097 -0.149725 12.6583 0.355604 9.86961C1.27268 4.70402 5.41513 1.19167 10.0816 0.380653C10.5246 0.299551 10.9675 0.249642 11.4167 0.187256ZM2.92592 21.2676C3.03198 21.2426 3.09436 21.2364 3.15051 21.2177C4.24227 20.9369 5.33403 20.6562 6.42579 20.363C6.60047 20.3193 6.73148 20.3443 6.88121 20.4316C9.15831 21.7979 11.6038 22.2408 14.2054 21.6606C19.2025 20.5439 22.8646 15.7901 21.8227 10.1815C20.8869 5.11577 16.0707 1.59719 10.9613 2.21481C8.0104 2.57041 5.66468 3.96163 3.96153 6.39469C2.53912 8.43472 1.95269 10.7118 2.23343 13.1886C2.40811 14.7357 2.95087 16.1457 3.79933 17.4433C3.88667 17.5805 3.91162 17.6991 3.86171 17.855C3.72446 18.3229 3.59345 18.7971 3.46244 19.2712C3.294 19.9263 3.11308 20.5751 2.92592 21.2676Z" fill="white"/>
<path d="M15.2472 17.7053C14.4175 17.7365 13.7312 17.4246 13.0263 17.1812C11.0112 16.4888 9.45776 15.1786 8.13517 13.5628C7.49883 12.783 6.85625 12.0094 6.43826 11.0861C5.99532 10.1129 5.8144 9.1147 6.27606 8.11028C6.4757 7.67982 6.78139 7.29302 7.06213 6.90623C7.23681 6.66916 7.50507 6.5631 7.79829 6.55062C8.06031 6.53815 8.32857 6.54439 8.59059 6.55686C8.82766 6.56934 8.94619 6.74402 9.0273 6.93118C9.21445 7.35541 9.39537 7.79211 9.57629 8.22258C9.71978 8.5657 9.85703 8.91506 10.013 9.25195C10.1191 9.48902 10.1191 9.70737 9.96309 9.91325C9.74474 10.2127 9.52015 10.5122 9.28308 10.8054C9.03977 11.1111 9.02729 11.1984 9.22693 11.5353C10.1752 13.1137 11.4916 14.274 13.2072 14.9665C13.5753 15.1163 13.7 15.0913 13.9558 14.7794C14.2365 14.4362 14.5173 14.0931 14.7918 13.7438C14.9727 13.5129 15.0912 13.4505 15.3782 13.5566C15.7713 13.7063 16.1518 13.8873 16.5324 14.0619C16.7944 14.1805 17.0439 14.324 17.306 14.4425C17.4931 14.5236 17.6927 14.5735 17.8861 14.6484C18.0483 14.7107 18.1295 14.8418 18.1232 15.0164C18.1107 15.815 17.9423 16.5449 17.2311 17.044C16.6135 17.4682 15.9584 17.7552 15.2472 17.7053Z" fill="white"/>
</g>
<defs>
<clipPath id="clip0_144_835">
<rect width="24" height="24" fill="white" transform="translate(0 0.143555)"/>
</clipPath>
</defs>
</svg>
